<?xml version="1.0" encoding="utf-8" ?>
<svg baseProfile="full" height="200mm" version="1.1" viewBox="0,0,200,200" width="200mm" xmlns="http://www.w3.org/2000/svg" xmlns:ev="http://www.w3.org/2001/xml-events" xmlns:xlink="http://www.w3.org/1999/xlink"><defs /><rect fill="#1a1a1a" height="200" width="200" x="0" y="0" /><text alignment-baseline="middle" fill="#e1ed5e" style="dominant-baseline: central; font-size:9.0px; font-family:Arial;" text-anchor="middle" x="100.0" y="100.0">2022</text><line stroke="#e1ed5e" stroke-width="0.3" x1="100.0" x2="100.0" y1="15.0" y2="10.0" /><path d="M 100.0 14.0 a86.0,86.0 0 0,1 42.46469731375804,11.215312516191453" fill="none" id="id37" stroke="none" /><text fill="#e1ed5e" style="font-size:6.75px; font-family:Arial;" text-anchor="middle"><textPath startOffset="22.20632615414155" xlink:href="#id37">January</textPath></text><path d="M 100.36148047927253 79.00311137660856 l 0.08735890895288978 -5.074313515452451 a26.075065441162,26.075065441162 0 0,0 0.44870638742793956,0.01158876217447332 l -0.17469193157569712 5.072057961135617" fill="#ff1902" stroke="none" /><path d="M 101.08401301168833 79.027996857942 l 0.4178898002310477 -8.08476107664961 a29.095553937294575,29.095553937294575 0 0,0 0.49994190812428274,0.030157861180186853 l -0.5569937571949424 8.07636994608912" fill="#ff4506" stroke="none" /><path d="M 101.44485096284872 79.0497635885617 l 0.5866818912895725 -8.506845783313658 a29.527052293884942,29.527052293884942 0 0,0 0.5067542536155868,0.03933388315566326 l -0.7330263342675004 8.49548663796953" fill="#ff4c07" stroke="none" /><path d="M 102.16513564639614 79.11191278185805 l 0.8714831841690899 -8.407610299321396 a29.45265602550729,29.45265602550729 0 0,0 0.5038273673541493,0.05661087515371264 l -1.0160772550329646 8.391363470697083" fill="#ff4b06" stroke="none" /><path d="M 103.2404852339499 79.25152402106235 l 1.2553380475867657 -8.037793554162251 a29.13523194709599,29.13523194709599 0 0,0 0.49484220513803484,0.08165320381940165 l -1.3935094588636758 8.014994087403224" fill="#ff4606" stroke="none" /><path d="M 103.59715602781102 79.31037775812273 l 1.4081645651983188 -8.099285291797496 a29.220787655730284,29.220787655730284 0 0,0 0.4948121264568484,0.09042375335047209 l -1.547371812758068 8.073846057096285" fill="#ff4706" stroke="none" /><path d="M 104.307194497241 79.44645832069477 l 1.7502083802089736 -8.351835728137447 a29.53325198291641,29.53325198291641 0 0,0 0.4966610865321037,0.10855087668640537 l -1.8937121908946053 8.32047135335517" fill="#ff4c07" stroke="none" /><path d="M 104.66035177308747 79.52364482259891 l 1.9619540716475647 -8.620308158881487 a29.840756558877366,29.840756558877366 0 0,0 0.4998700628824178,0.11830309373027269 l -2.1100478214925062 8.585259153010345" fill="#ff5007" stroke="none" /><path d="M 105.71112130821622 79.79150937346287 l 2.186477428948056 -7.736730887586845 a29.039756736011334,29.039756736011334 0 0,0 0.47986093630133014,0.14008456595963262 l -2.3193285829728136 7.697947992708508" fill="#ff4506" stroke="none" /><path d="M 106.0581310904928 79.89281104454417 l 2.407680550892969 -7.991191847458509 a29.346021374165993,29.346021374165993 0 0,0 0.4824131348145719,0.1498881092537006 l -2.544879058418259 7.948563603322288" fill="#ff4906" stroke="none" /><path d="M 106.40334571778207 80.00007090966166 l 2.6790986492277207 -8.36777918483758 a29.786199295400422,29.786199295400422 0 0,0 0.486957803724846,0.16054233174850172 l -2.8227392751949845 8.320423128829843" fill="#ff4f07" stroke="none" /><path d="M 108.09893153111575 80.62456947434976 l 3.257010922775259 -7.791890647928742 a29.44521639866953,29.44521639866953 0 0,0 0.46595826974556404,0.1994990137352606 l -3.3906529503111384 7.734672106230691" fill="#ff4a06" stroke="none" /><path d="M 108.43124777332544 80.76684994638697 l 3.4538761076580053 -7.878895180300767 a29.602688500068886,29.602688500068886 0 0,0 0.4649283813705013,0.20859981238391787 l -3.5889866074952868 7.818275037400317" fill="#ff4d07" stroke="none" /><path d="M 108.76106565485865 80.91482961587045 l 3.4886315481332106 -7.599660831972867 a29.36214056564782,29.36214056564782 0 0,0 0.45752057885542446,0.21481204645380844 l -3.618930338288233 7.538483802879055" fill="#ff4906" stroke="none" /><path d="M 109.08828744355905 81.06846463323043 l 3.5373648858238473 -7.36857728774892 a29.173670019091105,29.173670019091105 0 0,0 0.45084257942625655,0.22122649573663888 l -3.6636787322605358 7.306595631877449" fill="#ff4706" stroke="none" /><line stroke="#e1ed5e" stroke-width="0.3" x1="143.23703022742887" x2="145.7803849466894" y1="26.81831364943548" y2="22.513508569990506" /><path d="M 143.74570117128098 25.957352633546492 a86.0,86.0 0 0,1 28.547481713284135,27.462654790039103" fill="none" id="id38" stroke="none" /><text fill="#e1ed5e" style="font-size:6.75px; font-family:Arial;" text-anchor="middle"><textPath startOffset="19.985693538727396" xlink:href="#id38">February</textPath></text><path d="M 110.68208982089419 81.91981866633111 l 4.667961193751377 -7.900849576875161 a30.17677970438308,30.17677970438308 0 0,0 0.4449464626605099,0.2680752652130062 l -4.8032697226295245 7.81932770220354" fill="#ff5507" stroke="none" /><path d="M 111.2981086023043 82.29822771554956 l 3.805765292141904 -5.9628379351762355 a28.073845184908187,28.073845184908187 0 0,0 0.4051095620978282,0.2634945280440123 l -3.9078418800240122 5.8964444829726945" fill="#ff3605" stroke="none" /><path d="M 112.19680574252982 82.90503203632743 l 3.6130237404951155 -5.063991868000471 a27.220767974177804,27.220767974177804 0 0,0 0.37908767078548045,0.2754233146681453 l -3.699656727634385 5.00104931851565" fill="#ff2a04" stroke="none" /><path d="M 112.48926042617603 83.11751280151076 l 4.896496047736159 -6.618889271465799 a29.233187033793225,29.233187033793225 0 0,0 0.40196167590039816,0.30274920074870443 l -5.009703877394941 6.533623481211247" fill="#ff4706" stroke="none" /><path d="M 112.77801427241765 83.33499621200491 l 5.029320187758234 -6.559206946649725 a29.265425416756873,29.265425416756873 0 0,0 0.39712826205645096,0.3099649076791744 l -5.141481004974115 6.4716636497473266" fill="#ff4806" stroke="none" /><path d="M 113.06298171725822 83.55741782278167 l 4.958683075454332 -6.241572997933627 a28.971560156665156,28.971560156665156 0 0,0 0.3878003380153797,0.3135742369693079 l -5.065386812034204 6.155292663700189" fill="#ff4406" stroke="none" /><path d="M 113.34407831869373 83.78471172551755 l 5.381333321853106 -6.539220546441484 a29.468775216989116,29.468775216989116 0 0,0 0.3889070926873564,0.32569850575642256 l -5.493097951499579 6.445620883291242" fill="#ff4b07" stroke="none" /><path d="M 113.6212207817346 84.01681056812373 l 5.2984669552678225 -6.217240172638756 a29.16871026786593,29.16871026786593 0 0,0 0.3793407456966662,0.3289605565823681 l -5.404701499611253 6.125114622636717" fill="#ff4606" stroke="none" /><path d="M 114.94478906791727 85.2469230424477 l 6.051567444415947 -5.973937793002834 a29.503493475565353,29.503493475565353 0 0,0 0.3536706501619982,0.36448869351977387 l -6.153502358281054 5.868884903932946" fill="#ff4b07" stroke="none" /><path d="M 115.19652480421416 85.50635884689758 l 6.128378697442344 -5.844923285777488 a29.468775216989116,29.468775216989116 0 0,0 0.3469354388165082,0.370086536755527 l -6.228081458229315 5.738567332143907" fill="#ff4b07" stroke="none" /><path d="M 115.4437574822437 85.77008943001954 l 9.500787805752744 -8.754045832153347 a33.91891200377886,33.91891200377886 0 0,0 0.3919352238620012,0.43278466334580856 l -9.65006667023078 8.58920838153799" fill="#ff8a0c" stroke="none" /><path d="M 116.15771136456269 86.58626213691792 l 6.299437194603757 -5.22963910586299 a29.18730933496034,29.18730933496034 0 0,0 0.31758781882241643,0.38932511386988783 l -6.388523505502583 5.1204298223850016" fill="#ff4706" stroke="none" /><path d="M 116.38621287248628 86.86637796730983 l 6.773595799185762 -5.429066967517401 a29.680804581865416,29.680804581865416 0 0,0 0.316094801401056,0.4014082978496803 l -6.8660446811807825 5.311666275714683" fill="#ff4e07" stroke="none" /><path d="M 116.60985879189232 87.15038557335679 l 21.905438365784025 -16.946347369570514 a48.69525084138637,48.69525084138637 0 0,0 0.5071820455158657,0.6673921206877574 l -22.193896351524007 16.56677047300172" fill="#b6ff1f" stroke="none" /><path d="M 116.82858285166822 87.43820079747576 l 12.923254653828854 -9.646642942866245 a37.126631108661854,37.126631108661854 0 0,0 0.37787376853979576,0.515419395625199 l -13.087391034882277 9.422761103569552" fill="#ffb610" stroke="none" /><path d="M 117.04232023915458 87.72973835380427 l 17.463606905303852 -12.57358288116635 a42.51912062823516,42.51912062823516 0 0,0 0.4225335186737655,0.5976436970786103 l -17.677453043781497 12.271112683755948" fill="#fffc17" stroke="none" /><path d="M 117.2510076193507 88.02491185347247 l 13.249686499193876 -9.197501226752944 a37.12911098427444,37.12911098427444 0 0,0 0.3599323146604081,0.5281562584492822 l -13.406043279523018 8.968066945033256" fill="#ffb610" stroke="none" /><path d="M 117.65298651832404 88.62581576622439 l 12.90906560035288 -8.317577893797019 a36.35662973095317,36.35662973095317 0 0,0 0.3344332170249513,0.5289930350226842 l -13.050326413623788 8.094137211060128" fill="#ffab0f" stroke="none" /><line stroke="#e1ed5e" stroke-width="0.3" x1="172.23445277983987" x2="176.4835382374775" y1="55.19839476539836" y2="52.563006222186495" /><path d="M 173.08426987136738 54.67131705675599 a86.0,86.0 0 0,1 12.851231095245387,41.99856678651699" fill="none" id="id39" stroke="none" /><text fill="#e1ed5e" style="font-size:6.75px; font-family:Arial;" text-anchor="middle"><textPath startOffset="22.20632615414155" xlink:href="#id39">March</textPath></text><path d="M 117.84615892207809 88.93136811851018 l 7.378149822219927 -4.576112131759632 a29.682044519671713,29.682044519671713 0 0,0 0.26556129713387056,0.43651294784651234 l -7.455826917640022 4.448431410706038" fill="#ff4e07" stroke="none" /><path d="M 118.03404312379186 89.2402003453031 l 7.210919720973753 -4.302310413210694 a29.396858824224054,29.396858824224054 0 0,0 0.2555291513963662,0.43678215072780796 l -7.283908546840446 4.177548850128991" fill="#ff4a06" stroke="none" /><path d="M 118.21658344932153 89.55222093294921 l 7.5291435067754175 -4.318198752348337 a29.679564644059123,29.679564644059123 0 0,0 0.2503575279267783,0.44535810653806185 l -7.602358675994629 4.1879571358754815" fill="#ff4e07" stroke="none" /><path d="M 118.89224826269711 90.83032412892265 l 7.811750747918747 -3.791566855782713 a29.683284457478006,29.683284457478006 0 0,0 0.21915000166649126,0.4615857937280339 l -7.875858943426994 3.656538646414139" fill="#ff4e07" stroke="none" /><path d="M 119.04729006885535 91.15688171328212 l 7.876983584144319 -3.6570607853041017 a29.6845243952843,29.6845243952843 0 0,0 0.21118091270002276,0.4653091480437365 l -7.938766813807688 3.5209296284183025" fill="#ff4e07" stroke="none" /><path d="M 119.196687751892 91.48605970444005 l 7.65766827442672 -3.3962593617353014 a29.377019819323348,29.377019819323348 0 0,0 0.2010357459605932,0.46401821921742276 l -7.714994730229993 3.2639419979312763" fill="#ff4906" stroke="none" /><path d="M 119.34039704204932 91.81776055985345 l 7.998197615531509 -3.383755144095716 a29.6845243952843,29.6845243952843 0 0,0 0.19503907626889755,0.47230259354589377 l -8.055258378686604 3.245577980096519" fill="#ff4e07" stroke="none" /><path d="M 119.61058180528143 92.48833698450437 l 16.318285897094874 -6.250577666006809 a38.474443504103604,38.474443504103604 0 0,0 0.23157110089867364,0.6204954205005693 l -16.423461586495176 5.968759108476906" fill="#ffc812" stroke="none" /><path d="M 119.85752413597 93.16781622104841 l 8.311715755076344 -2.859730607312943 a29.789919108819305,29.789919108819305 0 0,0 0.1626567973017753,0.4863231205843708 l -8.359709846149888 2.7162343838062584" fill="#ff4f07" stroke="none" /><path d="M 119.97218684219823 93.5106431181261 l 8.198152468674568 -2.6637412097927924 a29.620047629357003,29.620047629357003 0 0,0 0.1533817976293866,0.486262213841065 l -8.242789750072161 2.522228829525308" fill="#ff4d07" stroke="none" /><path d="M 120.18372546131832 94.20196356495316 l 7.829739393465412 -2.2491940037153526 a29.146391387352637,29.146391387352637 0 0,0 0.1343693465022071,0.48339803173057794 l -7.867295510533982 2.1140846685658228" fill="#ff4606" stroke="none" /><path d="M 120.53481517161879 95.60439243477599 l 18.95698607775747 -4.057863229877237 a40.386427601409196,40.386427601409196 0 0,0 0.1396614670424923,0.6810389130596621 l -19.02402684071496 3.7309486606541626" fill="#ffe115" stroke="none" /><path d="M 120.6074358757038 95.95851677861258 l 8.565983304037951 -1.6799410662619325 a29.729162156310892,29.729162156310892 0 0,0 0.09416255712349646,0.5030201453717908 l -8.593631585071307 1.532242843427579" fill="#ff4f07" stroke="none" /><path d="M 120.67395015179393 96.31383870115 l 9.014768360191988 -1.6073314486807768 a30.156940699482377,30.156940699482377 0 0,0 0.08672007195651257,0.5118267736291445 l -9.041100293668723 1.4519188867357944" fill="#ff5507" stroke="none" /><path d="M 120.78858239683441 97.02765380044208 l 14.199196274277027 -2.030197455361408 a35.34360054321085,35.34360054321085 0 0,0 0.0809267486580577,0.6029982761917053 l -14.23203902199292 1.7854808371050384" fill="#ff9e0e" stroke="none" /><path d="M 120.91429891909075 98.10471618934814 l 8.770100824069507 -0.7947591345971897 a29.806038300301125,29.806038300301125 0 0,0 0.04190660314820477,0.5113667039414622 l -8.782481911037207 0.6436785134479588" fill="#ff5007" stroke="none" /><path d="M 120.98425023603335 99.18683210126433 l 8.5565883286453 -0.3315792974867755 a29.563010490267473,29.563010490267473 0 0,0 0.015328147191857261,0.5086665820057882 l -8.561028170292802 0.18424256805598824" fill="#ff4c07" stroke="none" /><line stroke="#e1ed5e" stroke-width="0.3" x1="184.98032266829074" x2="189.97916517819016" y1="98.17113171792111" y2="98.06355123074" /><path d="M 185.9800911702706 98.14961562048488 a86.0,86.0 0 0,1 -9.607161424134198,41.387399972396054" fill="none" id="id40" stroke="none" /><text fill="#e1ed5e" style="font-size:6.75px; font-family:Arial;" text-anchor="middle"><textPath startOffset="21.466115282336823" xlink:href="#id40">April</textPath></text><path d="M 120.99513854157772 99.54816195383933 l 8.68003464355491 -0.18680371583087602 a29.682044519671713,29.682044519671713 0 0,0 0.006596470976426572,0.5109039466903083 l -8.681964121649052 0.03736351108010507" fill="#ff4e07" stroke="none" /><path d="M 120.99980553446 99.90962569577887 l 9.001865113277937 -0.038740229997366864 a30.001948473695606,30.001948473695606 0 0,0 -0.0022225767886056755,0.5164485718410662 l -9.001198239199828 -0.11621782004738403" fill="#ff5307" stroke="none" /><path d="M 120.99824983174949 100.27111621757518 l 16.601383529323094 0.21434664055571237 a37.60276722627881,37.60276722627881 0 0,0 -0.013927236493154888,0.6471439538119456 l -16.595234230144932 -0.5000804101577727" fill="#ffbc11" stroke="none" /><path d="M 120.95626037817324 101.35467743843564 l 8.359571834612275 0.5403885595507404 a29.377019819323348,29.377019819323348 0 0,0 -0.036963902848213326,0.5043430864063269 l -8.349031373099724 -0.6842047824538374" fill="#ff4906" stroke="none" /><path d="M 120.92983693683757 101.71520430193887 l 8.562823917141504 0.7017251239820368 a29.59152905981224,29.59152905981224 0 0,0 -0.04597312296928722,0.5073095810875345 l -8.54947619789514 -0.8490160936181419" fill="#ff4d07" stroke="none" /><path d="M 120.89721153311464 102.0752229133903 l 22.342894355821215 2.2187881978982986 a43.45279379637466,43.45279379637466 0 0,0 -0.08032083088212545,0.7436711387999414 l -22.30139122343804 -2.6030556585830316" fill="#f6ff19" stroke="none" /><path d="M 120.76222939487914 103.15116336523771 l 17.054703025540288 2.588457836437656 a38.250014761164365,38.250014761164365 0 0,0 -0.10440113056022679,0.6501059396571937 l -17.007620140618773 -2.881643005788055" fill="#ffc512" stroke="none" /><path d="M 120.70491114924044 103.5080841355445 l 8.939025191791577 1.5145610737724446 a30.0664252396229,30.0664252396229 0 0,0 -0.09084864988556589,0.5095274750125378 l -8.911630099566823 -1.668207299518201" fill="#ff5307" stroke="none" /><path d="M 120.64145759157962 103.86396538481128 l 21.024963190321017 3.9357554874163685 a42.390167096380566,42.390167096380566 0 0,0 -0.14043270314609493,0.7160633278446227 l -20.954100554199258 -4.297082542328936" fill="#fffa17" stroke="none" /><path d="M 120.5718875245553 104.21870165774334 l 16.889848020760567 3.463621398822319 a38.241335196520296,38.241335196520296 0 0,0 -0.13778892324311887,0.6437039770973326 l -16.827725058793007 -3.753839195335821" fill="#ffc512" stroke="none" /><path d="M 120.49622156327973 104.57218783832717 l 16.96931756737833 3.78542489730305 a38.38640791985672,38.38640791985672 0 0,0 -0.14941348853943015,0.6436693981135633 l -16.901643512908347 -4.076962952765178" fill="#ffc712" stroke="none" /><path d="M 120.32669344350535 105.2749913415812 l 17.330637484946603 4.497483219848805 a38.90470192288768,38.90470192288768 0 0,0 -0.1737964250826596,0.6467611515896559 l -17.250652983522166 -4.795135304614009" fill="#ffcd13" stroke="none" /><path d="M 120.23288151984713 105.62410040840565 l 28.715647213637272 7.982040672922916 a50.80438504989274,50.80438504989274 0 0,0 -0.24145960506919367,0.8405525617700955 l -28.573994971681977 -8.475150710197592" fill="#9eff22" stroke="none" /><path d="M 120.13307415673323 105.97154293290107 l 16.934939150750154 5.022964472166864 a38.66415398846661,38.66415398846661 0 0,0 -0.1947443978895236,0.6364359601384146 l -16.845967980354494 -5.313727404857335" fill="#ffca12" stroke="none" /><path d="M 120.02730092923936 106.31721596034902 l 11.294106428496825 3.5625024879820586 a32.842645987915525,32.842645987915525 0 0,0 -0.17470371685620623,0.5376827532516766 l -11.231110460624372 -3.75638414121153" fill="#ff7b0b" stroke="none" /><path d="M 119.9155931802556 106.66101706037122 l 8.71819212177459 2.9159074466487587 a30.192898895864907,30.192898895864907 0 0,0 -0.16909341669322459,0.49146461978435946 l -8.666707874138137 -3.0655447695224183" fill="#ff5507" stroke="none" /><path d="M 119.79798401119884 107.00284435728193 l 9.74098687822944 3.4455333914796746 a31.33240173984924,31.33240173984924 0 0,0 -0.1842281647290002,0.5069167864858433 l -9.680234452495213 -3.612697974971649" fill="#ff6609" stroke="none" /><path d="M 119.67450827220406 107.3425965602758 l 12.783067312523384 4.770686249440542 a34.644275620460945,34.644275620460945 0 0,0 -0.2133191912888006,0.5569090949335561 l -12.699053841641078 -4.990018911207242" fill="#ff940d" stroke="none" /><path d="M 119.54520255179757 107.68017299344265 l 8.954194725308351 3.5184984307576324 a30.620677439036392,30.620677439036392 0 0,0 -0.19698921293721236,0.4889110715423905 l -8.892302898113746 -3.672108870142836" fill="#ff5b08" stroke="none" /><path d="M 119.41010516605496 108.01547362559984 l 10.441780088247757 4.311971119457582 a32.2970733531461,32.2970733531461 0 0,0 -0.21661957581669775,0.5120246888424227 l -10.36600953123875 -4.491070333966168" fill="#ff730a" stroke="none" /><path d="M 118.97047184881838 109.00673069616215 l 20.2851017643784 9.630885841533777 a43.45527367198724,43.45527367198724 0 0,0 -0.3266320681923587,0.6729588056991263 l -20.116316439571328 -9.97863360319818" fill="#f6ff19" stroke="none" /><path d="M 118.81262510543309 109.33194174019688 l 8.092068761031314 4.014044494715557 a30.032946918852957,30.032946918852957 0 0,0 -0.23371543503415823,0.46114272591146094 l -8.021774656210887 -4.152741432329712" fill="#ff5307" stroke="none" /><path d="M 118.64920377521936 109.65438752849418 l 15.608600652270331 8.080317062906477 a38.57611840421973,38.57611840421973 0 0,0 -0.31034944984821256,0.587064200868955 l -15.467198694197226 -8.347796278861567" fill="#ffc912" stroke="none" /><line stroke="#e1ed5e" stroke-width="0.3" x1="174.80103733775053" x2="179.2010983576182" y1="140.37084112569926" y2="142.7455964860345" /><path d="M 175.68104954172406 140.8457921977663 a86.0,86.0 0 0,1 -30.038265399797805,32.042727171017184" fill="none" id="id41" stroke="none" /><text fill="#e1ed5e" style="font-size:6.75px; font-family:Arial;" text-anchor="middle"><textPath startOffset="22.206326154141568" xlink:href="#id41">May</textPath></text><path d="M 118.48025628344425 109.97397251340804 l 22.53464461605369 12.162164991255663 a46.607195575587,46.607195575587 0 0,0 -0.3871140189376001,0.7027243892395345 l -22.32195418766458 -12.548259898893003" fill="#cfff1d" stroke="none" /><path d="M 117.35343817320211 111.8261652097733 l 7.8711908547622595 5.364124533536092 a30.52520222795174,30.52520222795174 0 0,0 -0.29963988076011006,0.43165359643326323 l -7.777690066840013 -5.498819392156374" fill="#ff5a08" stroke="none" /><path d="M 116.93607887273984 112.41649034213515 l 21.110682816966133 15.477052940196517 a47.17632702867602,47.17632702867602 0 0,0 -0.4857785332694759,0.650779730107811 l -20.841143017001563 -15.838145549813643" fill="#c8ff1d" stroke="none" /><path d="M 116.498646956653 112.99209946851258 l 6.821047018667027 5.371332666172827 a29.682044519671713,29.682044519671713 0 0,0 -0.31955136188038863,0.3986894572138392 l -6.727577744731785 -5.487949956964916" fill="#ff4e07" stroke="none" /><path d="M 116.27256486870786 113.27417163493432 l 4.620525760413474 3.769144721942913 a26.962860910468617,26.962860910468617 0 0,0 -0.2964682113591057,0.35711505896447615 l -4.554961549160825 -3.8481210380211595" fill="#ff2603" stroke="none" /><path d="M 116.0416608686014 113.55231037782055 l 6.051497055019445 5.1124236456471595 a28.92196264441339,28.92196264441339 0 0,0 -0.32455605405095916,0.37753201419183446 l -5.962598491397707 -5.215832759000522" fill="#ff4306" stroke="none" /><path d="M 115.80600337817218 113.82643327865902 l 12.844458136970834 11.235796879343276 a38.06526402802653,38.06526402802653 0 0,0 -0.43564996880645834,0.48945735824766634 l -12.649149318516038 -11.45522840733181" fill="#ffc212" stroke="none" /><path d="M 115.32070863581623 114.36230785411682 l 6.632571141990867 6.21766465703229 a30.091223995748784,30.091223995748784 0 0,0 -0.35750301180606764,0.374840478600456 l -6.524561578805835 -6.330912252215253" fill="#ff5407" stroke="none" /><path d="M 115.07121518719521 114.62390073753431 l 5.618669095551015 5.451906704921865 a28.82896730894133,28.82896730894133 0 0,0 -0.348637453241578,0.35316789947361016 l -5.523991017253902 -5.54781509837614" fill="#ff4106" stroke="none" /><path d="M 114.81725581225074 114.88116024355365 l 6.390122012990577 6.417681577215605 a30.05650573717255,30.05650573717255 0 0,0 -0.3697666518388449,0.3618944943881525 l -6.278705408775938 -6.526726174526329" fill="#ff5307" stroke="none" /><path d="M 114.55890576462653 115.13401014063108 l 14.658335792777555 15.237367843376635 a42.143419472928024,42.143419472928024 0 0,0 -0.5271221957988014,0.49842693743632266 l -14.393877762587946 -15.487429417558879" fill="#fff717" stroke="none" /><path d="M 114.29624159901734 115.38237550388516 l 5.404879152817887 5.8155061318689585 a28.939321773701508,28.939321773701508 0 0,0 -0.36780561997734884,0.33598171326222975 l -5.303973983373674 -5.907680611717772" fill="#ff4306" stroke="none" /><path d="M 114.0293411484842 115.62618273729858 l 8.783076080854457 9.78277956052531 a34.147060560136985,34.147060560136985 0 0,0 -0.44075342336128515,0.3889136505945215 l -8.613380304586583 -9.932516352892119" fill="#ff8d0d" stroke="none" /><path d="M 113.20401910651253 116.32954008644616 l 4.860973004532993 6.011613047235242 a28.73101222224409,28.73101222224409 0 0,0 -0.38724274934059033,0.3076490602422341 l -4.756772762475051 -6.094396021482602" fill="#ff4006" stroke="none" /><path d="M 112.63410532772338 116.77436683061366 l 3.732866011529125 4.956145463622042 a27.20464878269598,27.20464878269598 0 0,0 -0.3764799909874172,0.2785108969670661 l -3.6470010501231434 -5.019666309328877" fill="#ff2a04" stroke="none" /><path d="M 111.45004920935366 117.60387380957326 l 4.959607215246425 7.625146230020045 a30.096183746973963,30.096183746973963 0 0,0 -0.4367073750782079,0.2787273088692301 l -4.827618038121287 -7.709387967713083" fill="#ff5407" stroke="none" /><path d="M 111.1453310114006 117.79835938074945 l 8.903717564855643 14.21865038210987 a37.77635851915999,37.77635851915999 0 0,0 -0.5540906749864575,0.34036774824052957 l -8.657647689936878 -14.369806597178776" fill="#ffbe11" stroke="none" /><line stroke="#e1ed5e" stroke-width="0.3" x1="143.8653032363475" x2="146.44561519142675" y1="172.8068346515853" y2="177.08958963109032" /><path d="M 144.38136562736335 173.6633856474863 a86.0,86.0 0 0,1 -40.68145358897372,12.25698825130547" fill="none" id="id42" stroke="none" /><text fill="#e1ed5e" style="font-size:6.75px; font-family:Arial;" text-anchor="middle"><textPath startOffset="21.466115282336833" xlink:href="#id42">June</textPath></text><path d="M 110.5260780823613 118.17145234162733 l 6.277237613327307 10.836564505329921 a33.52337184357102,33.52337184357102 0 0,0 -0.5018149179040813,0.28494360695080556 l -6.0897739285020265 -10.943011278075355" fill="#ff840c" stroke="none" /><path d="M 108.59647513512805 119.15986991738527 l 10.72761727140455 23.909770948292888 a47.20608553602708,47.20608553602708 0 0,0 -0.7442361405388673,0.32625125292816565 l -10.31446045620793 -24.090886754515505" fill="#c8ff1d" stroke="none" /><path d="M 107.93186726928326 119.44442032107085 l 9.63410665018556 23.617341637785536 a46.50676061327718,46.50676061327718 0 0,0 -0.7438400338840978,0.29598930059124007 l -9.226145540259594 -23.779677782782844" fill="#d1ff1d" stroke="none" /><path d="M 107.59598834532513 119.57807347666477 l 10.214196613381555 26.32630313670198 a49.23834360054321,49.23834360054321 0 0,0 -0.7928071548467339,0.2997718281514487 l -9.759519237774546 -26.49822321496006" fill="#b0ff20" stroke="none" /><path d="M 107.2578585660854 119.70592522655815 l 9.80751546832828 26.62853853067427 a49.37721663484815,49.37721663484815 0 0,0 -0.8001000462565189,0.286887410391448 l -9.347695861442027 -26.793413482105677" fill="#aeff20" stroke="none" /><path d="M 106.2309692047433 120.05430185196036 l 1.1239511260105963 3.6174236153676835 a24.78800999822866,24.78800999822866 0 0,0 -0.40855955210534933,0.12309564158423142 l -1.061516599465001 -3.6362346260576404" fill="#ff0500" stroke="none" /><path d="M 104.13013068566511 120.58985236759428 l 0.738902319130387 3.6836339629087766 a24.757011553071308,24.757011553071308 0 0,0 -0.418549565131561,0.08021602031382448 l -0.6753851394271216 -3.695807181571069" fill="#ff0500" stroke="none" /><path d="M 101.98527174616119 120.90594882070398 l 1.40851179723314 14.832365192952768 a35.899092680430634,35.899092680430634 0 0,0 -0.6156791531800058,0.05312338797914016 l -1.1529883263115925 -14.85441283321057" fill="#ffa50f" stroke="none" /><path d="M 100.90346689309514 120.98055641714683 l 0.8827512928972279 20.499493057781834 a41.51849081855577,41.51849081855577 0 0,0 -0.7142755124727146,0.024601092871412565 l -0.529755428749861 -20.511650949079343" fill="#ffef16" stroke="none" /><line stroke="#e1ed5e" stroke-width="0.3" x1="102.19456741930631" x2="102.32365962044197" y1="184.97166512339345" y2="189.96999836594603" /><path d="M 102.22038585953345 185.97133177190398 a86.0,86.0 0 0,1 -42.740103519485714,-10.115201625700543" fill="none" id="id43" stroke="none" /><text fill="#e1ed5e" style="font-size:6.75px; font-family:Arial;" text-anchor="middle"><textPath startOffset="22.20632615414155" xlink:href="#id43">July</textPath></text><path d="M 99.45781275523022 120.99299961872073 l -0.5270022883780504 20.405051844557896 a41.41185616721447,41.41185616721447 0 0,0 -0.712440992028167,-0.024537908278012423 l 0.8781636320808605 -20.392957137853788" fill="#ffee16" stroke="none" /><path d="M 99.09653310690486 120.98055641714683 l -0.8644539945249875 20.07458816783627 a41.09319215099687,41.09319215099687 0 0,0 -0.7064348892136684,-0.036514614585503334 l 1.2098769521521449 -20.056733746488565" fill="#ffea16" stroke="none" /><path d="M 98.73552117531835 120.96189622390904 l -1.237128114604199 20.508489859877546 a41.545769450294245,41.545769450294245 0 0,0 -0.7134738855175803,-0.04920533640826492 l 1.5899647609007093 -20.484156178952997" fill="#fff016" stroke="none" /><path d="M 98.37488393609728 120.93702456842531 l -1.593035302382231 20.523715201145293 a41.58544746009565,41.58544746009565 0 0,0 -0.713201676286382,-0.06153804162613476 l 1.9460812964101546 -20.493252907240496" fill="#fff016" stroke="none" /><path d="M 96.22490169976321 120.6578951692458 l -1.5901642193640473 8.70161334433267 a29.84571631010254,29.84571631010254 0 0,0 -0.5045807550662939,-0.09670410262077127 l 1.7397125890020364 -8.67295204336343" fill="#ff5007" stroke="none" /><path d="M 94.11515582081647 120.15858648285463 l -2.6612620737487473 9.116177087062347 a30.496683658406972,30.496683658406972 0 0,0 -0.5026507338454215,-0.15144454280078198 l 2.8177877820344146 -9.06901717515584" fill="#ff5a08" stroke="none" /><path d="M 93.76903079525671 120.05430185196036 l -6.27536312810563 20.19718317752098 a42.14961916195949,42.14961916195949 0 0,0 -0.6910101995242162,-0.2212396445047752 l 6.622094672720786 -20.0861706863565" fill="#fff717" stroke="none" /><path d="M 93.42475214034765 119.94407469862007 l -6.337519694992913 19.222996440410594 a41.240744749945875,41.240744749945875 0 0,0 -0.6722835792436511,-0.22807509111217275 l 6.667473007173791 -19.1110583624003" fill="#ffec16" stroke="none" /><path d="M 92.7421414339146 119.70592522655815 l -3.565434269705988 9.680566310198811 a31.316282548367415,31.316282548367415 0 0,0 -0.504236557366099,-0.19065912018875608 l 3.73154104783237 -9.617758939903421" fill="#ff6509" stroke="none" /><path d="M 92.06813273071674 119.44442032107085 l -5.215840054597079 12.786268719071389 a34.80918734869807,34.80918734869807 0 0,0 -0.5528503548805079,-0.23109149317754452 l 5.435161868975049 -12.69459218287387" fill="#ff960d" stroke="none" /><path d="M 91.7346041902142 119.30500536409082 l -3.2644157081416996 7.624506340239143 a29.29394398630164,29.29394398630164 0 0,0 -0.46183901007612405,-0.20245664981996114 l 3.395175392875567 -7.56718513712473" fill="#ff4806" stroke="none" /><path d="M 91.40352486487194 119.15986991738527 l -5.397562435018503 12.030116123214883 a34.1854986321321,34.1854986321321 0 0,0 -0.5348109705383095,-0.24550548575249218 l 5.603841401324232 -11.935423567128316" fill="#ff8e0d" stroke="none" /><path d="M 91.07499286063937 119.00905698771935 l -3.2524834614419 6.9273494692792905 a28.65289614044756,28.65289614044756 0 0,0 -0.4446483751084103,-0.21345824128929594 l 3.3712445045505524 -6.870336951490432" fill="#ff3f05" stroke="none" /><path d="M 90.7491055286396 118.85261126421891 l -5.2207315253555056 10.639449219433821 a32.85132555255959,32.85132555255959 0 0,0 -0.5055132133214814,-0.2534748194415545 l 5.403098646359747 -10.548006559082966" fill="#ff7b0b" stroke="none" /><path d="M 90.42595943632237 118.69057910512821 l -6.455114400793258 12.601766781561876 a35.15884981007302,35.15884981007302 0 0,0 -0.5362714024224277,-0.2805518519956843 l 6.671076705742181 -12.488785510621474" fill="#ff9b0e" stroke="none" /><path d="M 90.10565033884886 118.52300852407294 l -3.0110105386982404 5.636850908288212 a27.390639453640105,27.390639453640105 0 0,0 -0.41396019671029394,-0.22572410532048573 l 3.1075935472771747 -5.58418615120796" fill="#ff2c04" stroke="none" /><line stroke="#e1ed5e" stroke-width="0.3" x1="58.666819895761336" x2="56.23545636021788" y1="174.27360380694188" y2="178.64263932499728" /><path d="M 58.180547188652646 175.14741091055294 a86.0,86.0 0 0,1 -31.652253787137756,-30.449443065178592" fill="none" id="id44" stroke="none" /><text fill="#e1ed5e" style="font-size:6.75px; font-family:Arial;" text-anchor="middle"><textPath startOffset="22.20632615414155" xlink:href="#id44">August</textPath></text><path d="M 89.1626897886671 117.98757091392108 l -5.516450904282764 9.156105149614062 a31.68950382806196,31.68950382806196 0 0,0 -0.46481077727941955,-0.2855247430835992 l 5.673240881494492 -9.059791939702086" fill="#ff6b09" stroke="none" /><path d="M 88.8546689885994 117.79835938074946 l -6.905152136587601 11.027073056872055 a34.01066740144463,34.01066740144463 0 0,0 -0.49350806103569766,-0.314980194078742 l 7.093941999670222 -10.906578433969509" fill="#ff8b0c" stroke="none" /><path d="M 88.54995079064634 117.60387380957326 l -7.219689947057874 11.09990956793675 a34.241295833415336,34.241295833415336 0 0,0 -0.49132232297799844,-0.3256216446824112 l 7.4096869687758335 -10.973989902163021" fill="#ff8e0d" stroke="none" /><path d="M 88.24862548938628 117.40417183066458 l -17.2263599938007 25.512805253394642 a51.78393591686512,51.78393591686512 0 0,0 -0.7344518476175101,-0.5051626778808179 l 17.6629687260411 -25.21250178614872" fill="#93ff23" stroke="none" /><path d="M 87.95078237400918 117.19931262002967 l -15.129524023361263 21.596208280671803 a47.36851738865162,47.36851738865162 0 0,0 -0.6637742946569036,-0.4735853349371088 l 15.499025645867054 -21.332578683890475" fill="#c6ff1e" stroke="none" /><path d="M 87.65650970185807 116.9893568818739 l -9.554792919087609 13.151044227678177 a37.255584640516446,37.255584640516446 0 0,0 -0.5155729920179699,-0.38140857388545674 l 9.779750881524143 -12.984625705052954" fill="#ffb711" stroke="none" /><path d="M 87.36589467227662 116.77436683061367 l -8.210216491384799 10.900746797087171 a34.64675549607353,34.64675549607353 0 0,0 -0.4732932763206614,-0.3629011020220301 l 8.396638496198946 -10.757806353237774" fill="#ff940d" stroke="none" /><path d="M 87.07902340077011 116.55440617244103 l -8.780384558672873 11.24946332177117 a35.27044421263949,35.27044421263949 0 0,0 -0.47538261728181086,-0.37767270197126823 l 8.972724668672043 -11.096656705794771" fill="#ff9d0e" stroke="none" /><path d="M 86.79598089348748 116.32954008644616 l -9.647101837705094 11.930665572812979 a36.342990415083946,36.342990415083946 0 0,0 -0.4830673448982852,-0.3975315377938799 l 9.851039311148067 -11.762838916161918" fill="#ffab0f" stroke="none" /><path d="M 86.51685102203217 116.09983520530335 l -7.114816415365302 8.495594908173512 a32.08132417485091,32.08132417485091 0 0,0 -0.4203180875059314,-0.3582041927787303 l 7.259999979448291 -8.37186632517183" fill="#ff700a" stroke="none" /><path d="M 85.97065885151581 115.62618273729859 l -6.4918388423706785 7.230750109953492 a30.717392587927336,30.717392587927336 0 0,0 -0.39040409147244315,-0.3566248811684086 l 6.615342483309976 -7.117932462198508" fill="#ff5d08" stroke="none" /><path d="M 85.44109423537348 115.13401014063109 l -15.134568377178127 15.732412517621935 a42.83034501761499,42.83034501761499 0 0,0 -0.526915317860095,-0.5156975394997515 l 15.403133647414016 -15.469564875199614" fill="#feff18" stroke="none" /><path d="M 85.18274418774928 114.88116024355367 l -11.217708714480436 11.266088880484464 a36.898482552303726,36.898482552303726 0 0,0 -0.4462245507324936,-0.4520231140127962 l 11.409973890268462 -11.071325272491002" fill="#ffb310" stroke="none" /><path d="M 84.67929136418377 114.36230785411682 l -11.023528632883345 10.33394183177789 a36.10988210750064,36.10988210750064 0 0,0 -0.4212021585277637,-0.457131754645259 l 11.199777199406837 -10.142658822331288" fill="#ffa80f" stroke="none" /><path d="M 84.43433777217949 114.09645910891817 l -46.69698668346152 42.28937732675451 a84.0,84.0 0 0,0 -0.9613646014066468,-1.0801033210365434 l 47.4180101345165 -41.4792998359771" fill="#4dd2ff" stroke="none" /><path d="M 84.19399662182784 113.82643327865904 l -19.804711627163986 17.324336669079695 a47.312720187368384,47.312720187368384 0 0,0 -0.5309331859397708,-0.6175952430628688 l 20.099987322674533 -16.980864326855297" fill="#c7ff1e" stroke="none" /><path d="M 83.72743513129214 113.27417163493432 l -7.816173229561988 6.375960139947098 a31.086894054202993,31.086894054202993 0 0,0 -0.33467571026207343,-0.4175594072948647 l 7.924766851878922 -6.240472899073974" fill="#ff6209" stroke="none" /><path d="M 83.50135304334701 112.99209946851258 l -7.992957838926436 6.294170883454451 a31.173689700643585,31.173689700643585 0 0,0 -0.32835274494960354,-0.4244401852428119 l 8.100117401094108 -6.155652704098387" fill="#ff6309" stroke="none" /><path d="M 83.28015986056508 112.70617746262583 l -8.408129177954729 6.389725055552222 a31.560550296207367,31.560550296207367 0 0,0 -0.32498159135514,-0.43536594935285566 l 8.516872036004953 -6.244046226690058" fill="#ff6909" stroke="none" /><path d="M 83.06392112726016 112.41649034213515 l -17.238740991979498 12.638383574252659 a42.375287842705035,42.375287842705035 0 0,0 -0.4262150998228359,-0.5919754958278377 l 17.45373588417794 -12.339774472973684" fill="#fffa17" stroke="none" /><path d="M 82.85270091963577 112.12312394758628 l -21.5643088692561 15.245945617487466 a47.40943533625932,47.40943533625932 0 0,0 -0.46537799962723675,-0.6704117179943816 l 21.82354777604547 -14.872492637306072" fill="#c6ff1e" stroke="none" /><path d="M 82.6465618267979 111.8261652097733 l -5.330113880040778 3.632410286833475 a27.45015646834222,27.45015646834222 0 0,0 -0.2627331526726828,-0.3927504151433881 l 5.391850138124191 -3.540122957484266" fill="#ff2d04" stroke="none" /><path d="M 82.44556493220864 111.52570212397912 l -3.4007420805815967 2.2328226496551085 a25.06823594245114,25.06823594245114 0 0,0 -0.23372565148803215,-0.3627474014754141 l 3.4386725954466746 -2.1739536482582458" fill="#ff0a01" stroke="none" /><path d="M 82.24976979558568 111.22182372390057 l -6.9066907662278565 4.3664597811709385 a29.17119014347852,29.17119014347852 0 0,0 -0.2646734869191549,-0.4267379347865736 l 6.9808288928149675 -4.2469255150191" fill="#ff4606" stroke="none" /><path d="M 82.05923443525364 110.91462005526583 l -7.654547735884817 4.656795716468591 a29.959790588281603,29.959790588281603 0 0,0 -0.2642441036678987,-0.44288831703984455 l 7.733572715250947 -4.524345305542635" fill="#ff5207" stroke="none" /><line stroke="#e1ed5e" stroke-width="0.3" x1="26.63291911575756" x2="22.317208475507996" y1="142.92168965132927" y2="145.44649492493687" /><path d="M 25.769776987707644 143.4266507060508 a86.0,86.0 0 0,1 -11.730757126820373,-40.83630448921669" fill="none" id="id45" stroke="none" /><text fill="#e1ed5e" style="font-size:6.75px; font-family:Arial;" text-anchor="middle"><textPath startOffset="21.46611528233685" xlink:href="#id45">September</textPath></text><path d="M 81.87401531095188 110.60418214915194 l -6.860254788923137 4.01343113873904 a28.94800133834557,28.94800133834557 0 0,0 -0.24791620267046494,-0.43226279627487335 l 6.928322987745979 -3.894748496605859" fill="#ff4306" stroke="none" /><path d="M 81.69416730710424 110.29060199501025 l -7.475238967745894 4.202196661860548 a29.575409868330414,29.575409868330414 0 0,0 -0.24564996100844003,-0.44592603308482776 l 7.546465338205851 -4.072900110377899" fill="#ff4c07" stroke="none" /><path d="M 81.51974371655577 109.97397251340807 l -4.591602970383203 2.4781323979858594 a26.21765828888583,26.21765828888583 0 0,0 -0.21092417181544218,-0.3989890442252703 l 4.633579650423531 -2.398728338674463" fill="#ff1b02" stroke="none" /><path d="M 81.35079622478065 109.6543875284942 l -30.791061731177084 15.940028644095527 a55.67238087740361,55.67238087740361 0 0,0 -0.4332406923405193,-0.8548249875429892 l 31.06088109330387 -15.407649444849854" fill="#68ff28" stroke="none" /><path d="M 81.18737489456691 109.33194174019688 l -7.492244858360498 3.716503790920583 a29.363380503454113,29.363380503454113 0 0,0 -0.22071018986919455,-0.4547283633293769 l 7.555108304844412 -3.5869864716259214" fill="#ff4906" stroke="none" /><path d="M 81.02952815118164 109.00673069616217 l -3.1620564484174603 1.5012695047294253 a24.500344427168415,24.500344427168415 0 0,0 -0.17759877704675853,-0.38253196582978777 l 3.1874298423040455 -1.4466174716208104" fill="#ff0100" stroke="none" /><path d="M 80.87730276802145 108.67885076344099 l -8.014302876611449 3.6372974897500945 a29.801078549075953,29.801078549075953 0 0,0 -0.20798160695192833,-0.46894361813590413 l 8.075725568294658 -3.4988055351214946" fill="#ff5007" stroke="none" /><path d="M 80.73074385275274 108.34839909993369 l -9.795998470416594 4.244113223076368 a31.67586451219272,31.67586451219272 0 0,0 -0.2124530684013229,-0.5021762960788689 l 9.867602520010223 -4.07486240133134" fill="#ff6a09" stroke="none" /><path d="M 80.58989483394504 108.01547362559985 l -3.2318976894806997 1.334623922387268 a24.496624613749532,24.496624613749532 0 0,0 -0.15759190213503282,-0.3911301770813196 l 3.2543922058731205 -1.278794377463143" fill="#ff0100" stroke="none" /><path d="M 80.45479744820244 107.68017299344265 l -3.3536396277543585 1.3177930712439343 a24.60325926509083,24.60325926509083 0 0,0 -0.15149248398191628,-0.39549907176135357 l 3.3758263913297837 -1.2598704326494228" fill="#ff0300" stroke="none" /><path d="M 80.20201598880116 107.00284435728193 l -36.49743097468854 12.909689613437957 a59.71333818811628,59.71333818811628 0 0,0 -0.3344207659957305,-0.971983284874212 l 36.7142425716275 -12.279533625474448" fill="#3dff2e" stroke="none" /><path d="M 80.0844068197444 106.66101706037122 l -8.392465224319562 2.8069640473067423 a29.84943612352142,29.84943612352142 0 0,0 -0.15878158656156338,-0.4886794749670932 l 8.439539061897376 -2.6620856723618456" fill="#ff5007" stroke="none" /><path d="M 79.97269907076064 106.31721596034903 l -5.219577612332217 1.6464125203594218 a26.473085476982426,26.473085476982426 0 0,0 -0.13334017583911992,-0.43576340965318716 l 5.247144560677468 -1.5563221381541867" fill="#ff1f03" stroke="none" /><path d="M 79.76711848015287 105.62410040840567 l -5.312579904274449 1.476728995818459 a26.514003424590133,26.514003424590133 0 0,0 -0.11844426976864612,-0.4407751901590108 l 5.33721225038487 -1.3850628724839094" fill="#ff1f03" stroke="none" /><path d="M 79.58551787078972 104.9243191809786 l -14.87783382397858 3.588785745683967 a36.30455234308882,36.30455234308882 0 0,0 -0.14131016965088658,-0.6087605124252777 l 14.937404559560022 -3.332156575910115" fill="#ffab0f" stroke="none" /><path d="M 79.50377843672027 104.57218783832718 l -5.629814956742546 1.255869107278122 a26.768190674880437,26.768190674880437 0 0,0 -0.09644956566772805,-0.4505802610858736 l 5.650598561134715 -1.1587750267760846" fill="#ff2303" stroke="none" /><path d="M 79.4281124754447 104.21870165774334 l -6.195980924408464 1.2706172423871036 a27.324922749906513,27.324922749906513 0 0,0 -0.09052365272122537,-0.4615781549741851 l 6.2169345101053555 -1.1637753603449636" fill="#ff2b04" stroke="none" /><path d="M 79.29508885075956 103.50808413554451 l -6.734831753498332 1.1410991459809112 a27.83081737487453,27.83081737487453 0 0,0 -0.07596255364852932,-0.47301889408131953 l 6.7534760615081515 -1.025001022206378" fill="#ff3304" stroke="none" /><path d="M 79.23777060512086 103.15116336523772 l -3.5391696114674227 0.5371533764947927 a24.57970044677124,24.57970044677124 0 0,0 -0.05988779519460837,-0.4188551001067838 l 3.54789145767863 -0.47615280440760827" fill="#ff0200" stroke="none" /><path d="M 79.1416061653843 102.43462659150553 l -25.407427708169134 2.965597428571265 a46.57991694384853,46.57991694384853 0 0,0 -0.08610119866820748,-0.7971901655200249 l 25.454711208338395 -2.5278109411664578" fill="#d0ff1d" stroke="none" /><path d="M 79.10278846688536 102.07522291339032 l -3.822525221688433 0.37960049906610227 a24.84132732389931,24.84132732389931 0 0,0 -0.038593253950263556,-0.4258733414171806 l 3.828493071915772 -0.3137457691003555" fill="#ff0601" stroke="none" /><path d="M 79.07016306316243 101.71520430193888 l -4.534132046758865 0.3715730235084583 a25.549331811293275,25.549331811293275 0 0,0 -0.03214767953719708,-0.43862954583471914 l 4.539856284960397 -0.2934703411769785" fill="#ff1101" stroke="none" /><path d="M 79.04373962182676 101.35467743843564 l -4.209482442473499 0.2721139549425132 a25.218268417012734,25.218268417012734 0 0,0 -0.024273963285978025,-0.43342792079736414 l 4.213542756647009 -0.19961431780971145" fill="#ff0c01" stroke="none" /><path d="M 79.0095281055655 100.63252640178507 l -6.201833613715105 0.18688591280280178 a27.20464878269598,27.20464878269598 0 0,0 -0.01007600251943798,-0.46819224418661914 l 6.204131678919551 -0.08010385282605381" fill="#ff2a04" stroke="none" /><line stroke="#e1ed5e" stroke-width="0.3" x1="15.007084014347285" x2="10.007500721073583" y1="101.09737516637583" y2="101.16192664675087" /><path d="M 14.007167355692545 101.11028546245083 a86.0,86.0 0 0,1 10.666146001902534,-42.60595125391555" fill="none" id="id46" stroke="none" /><text fill="#e1ed5e" style="font-size:6.75px; font-family:Arial;" text-anchor="middle"><textPath startOffset="22.20632615414155" xlink:href="#id46">October</textPath></text><path d="M 79.00175016825051 100.2711162175752 l -4.465883754490052 0.057660687026268136 a25.466255978271565,25.466255978271565 0 0,0 -0.001886567783409865,-0.43837191246591234 l 4.466214619562964 0.019220703643319594" fill="#ff1001" stroke="none" /><path d="M 79.00019446554 99.90962569577889 l -22.099206875200085 -0.09510566380757499 a43.09941152158082,43.09941152158082 0 0,0 0.009578316514374574,-0.7418511697134386 l 22.094295551567996 0.4754930915814855" fill="#fbff18" stroke="none" /><path d="M 79.03285615573316 98.82574320788736 l -21.754097795555342 -1.2183298441813495 a42.78818713220099,42.78818713220099 0 0,0 0.047514058853119046,-0.7350214602374964 l 21.72990314569781 1.5926103686718576" fill="#feff18" stroke="none" /><path d="M 79.05617556472873 98.46500227214037 l -9.904097102998737 -0.7258830208680235 a30.930661890609933,30.930661890609933 0 0,0 0.04348779800594613,-0.530661286225643 l 9.890134821173293 0.896258224301445" fill="#ff6008" stroke="none" /><path d="M 79.08570108090925 98.10471618934814 l -24.002316209157854 -2.175124373298437 a45.100671140939596,45.100671140939596 0 0,0 0.07672026699118674,-0.7725626186213578 l 23.96131881648444 2.587962522624225" fill="#e2ff1b" stroke="none" /><path d="M 79.12142395522702 97.74499172005258 l -4.939702860403002 -0.5335167890186382 a25.9684307898207,25.9684307898207 0 0,0 0.05182513178343421,-0.4440060800458371 l 4.9297873756159785 0.618466607389337" fill="#ff1702" stroke="none" /><path d="M 79.46518482838121 95.60439243477599 l -6.137528847176742 -1.313777017565624 a27.27656517546104,27.27656517546104 0 0,0 0.10222946583873979,-0.4582746501712382 l 6.114004994335964 1.4192298372868215" fill="#ff2b04" stroke="none" /><path d="M 79.54389044137918 95.25157060432595 l -17.21149173632704 -3.9952637655743195 a38.66911373969179,38.66911373969179 0 0,0 0.15608916610046314,-0.6470903641319156 l 17.140169769965762 4.2909393613656315" fill="#ffca12" stroke="none" /><path d="M 79.62865764111835 94.90015583598534 l -19.276376191822543 -4.825725909140042 a40.87124328367021,40.87124328367021 0 0,0 0.17672661005611046,-0.6809997198675333 l 19.190453249896127 5.1568220545564385" fill="#ffe715" stroke="none" /><path d="M 79.81627453868168 94.20196356495316 l -3.608592219697605 -1.0366148315449144 a24.75453167745872,24.75453167745872 0 0,0 0.12117237505734291,-0.40853301067900427 l 3.590213947528555 1.0985772289704578" fill="#ff0500" stroke="none" /><path d="M 79.91906864156998 93.8553929516997 l -3.286681988952824 -1.0056988370892033 a24.437107599047412,24.437107599047412 0 0,0 0.1265429259029886,-0.40117565608530464 l 3.2688835792816313 1.0621246596009224" fill="#ff0000" stroke="none" /><path d="M 80.02781315780177 93.51064311812611 l -7.092015095887352 -2.3043353906349027 a28.456985967053082,28.456985967053082 0 0,0 0.15537881057528585,-0.4645628666318014 l 7.0512989915402935 2.4260713601890265" fill="#ff3c05" stroke="none" /><path d="M 80.14247586403 93.16781622104843 l -10.75047563242982 -3.698810825003854 a32.36898974591116,32.36898974591116 0 0,0 0.18580866624611694,-0.5253061207418671 l 10.685213885373894 3.8833145721723326" fill="#ff740a" stroke="none" /><path d="M 80.2630227832202 92.82701384747504 l -8.86724751377576 -3.222613216235061 a30.434686768092266,30.434686768092266 0 0,0 0.1831811789465282,-0.49083448762438575 l 8.810461746327606 3.374770840888788" fill="#ff5908" stroke="none" /><path d="M 80.38941819471856 92.48833698450439 l -3.5049635571209983 -1.3425458451005872 a24.753291739652425,24.753291739652425 0 0,0 0.15583546807820506,-0.39658426847197803 l 3.481334539161102 1.4026791184683285" fill="#ff0500" stroke="none" /><path d="M 80.52162464483688 92.15188598940014 l -3.458332659153428 -1.393411334401804 a24.72849298352654,24.72849298352654 0 0,0 0.16247598798635418,-0.39344849238871826 l 3.433834984280874 1.4527343972438336" fill="#ff0400" stroke="none" /><path d="M 80.65960295795068 91.81776055985345 l -9.18353872417253 -3.8852311348968787 a30.97157983821764,30.97157983821764 0 0,0 0.2119477977905237,-0.4892047393257727 l 9.115300216539326 4.042735018809251" fill="#ff6008" stroke="none" /><path d="M 80.803312248108 91.48605970444005 l -11.462699712740887 -5.083832286149957 a33.53949103505285,33.53949103505285 0 0,0 0.23860582146977782,-0.5257362992084794 l 11.373491574307758 5.280390594200507" fill="#ff850c" stroke="none" /><path d="M 81.43458229118936 90.18545643968196 l -22.08710669850768 -11.676272207493648 a45.98350685902104,45.98350685902104 0 0,0 0.3759521760583696,-0.6965822849960128 l 21.882846423230838 12.054735475822135" fill="#d7ff1c" stroke="none" /><line stroke="#e1ed5e" stroke-width="0.3" x1="26.266209847984243" x2="21.928928074336255" y1="57.711370442889674" y2="55.22380399835377" /><path d="M 25.398753493254645 57.213857153982495 a86.0,86.0 0 0,1 29.58750427330803,-30.492523968695096" fill="none" id="id47" stroke="none" /><text fill="#e1ed5e" style="font-size:6.75px; font-family:Arial;" text-anchor="middle"><textPath startOffset="21.46611528233685" xlink:href="#id47">November</textPath></text><path d="M 81.78341655067845 89.55222093294921 l -8.61764253946924 -4.9424869148306945 a30.934381704028816,30.934381704028816 0 0,0 0.2688939098244116,-0.4596268551314328 l 8.531288955174503 5.090093182316019" fill="#ff6008" stroke="none" /><path d="M 81.96595687620814 89.24020034530311 l -8.525964885681757 -5.086916638892206 a30.928182014997343,30.928182014997343 0 0,0 0.2767103232545885,-0.4548390153499305 l 8.437138764140952 5.232923427449211" fill="#ff6008" stroke="none" /><path d="M 82.15384107792192 88.93136811851018 l -8.436085043800732 -5.232269883871411 a30.92694207719105,30.92694207719105 0 0,0 0.2844872258006131,-0.44999047146152055 l 8.344770221754157 5.376708003047147" fill="#ff6008" stroke="none" /><path d="M 82.7489923806493 88.02491185347247 l -13.28126247409202 -9.219420241054085 a37.16754905626956,37.16754905626956 0 0,0 0.36935230670779673,-0.5224226442394811 l 13.120597547580346 9.446669385625352" fill="#ffb610" stroke="none" /><path d="M 82.95767976084542 87.72973835380427 l -21.643602473418643 -15.58312844661521 a47.6698222755811,47.6698222755811 0 0,0 0.4851820607201004,-0.661787785563656 l 21.372157800184908 15.953378675850367" fill="#c3ff1e" stroke="none" /><path d="M 83.39014120810768 87.1503855733568 l -3.867973178485506 -2.9923170677644215 a25.89031470802417,25.89031470802417 0 0,0 0.2757268207898809,-0.35014506190610206 l 3.815892277101654 3.0584545236235714" fill="#ff1602" stroke="none" /><path d="M 83.6137871275137 86.86637796730984 l -4.730197095017743 -3.791273875759542 a27.06205593497215,27.06205593497215 0 0,0 0.294462885174007,-0.3609766795398691 l 4.664235717767343 3.872134724907493" fill="#ff2703" stroke="none" /><path d="M 84.31358615837235 86.03803664274999 l -4.10306126779176 -3.6520004923901808 a26.49292448188313,26.49292448188313 0 0,0 0.3061274573432292,-0.3380335843808917 l 4.039590169832485 3.7220868640406284" fill="#ff1f03" stroke="none" /><path d="M 84.80347519578584 85.50635884689758 l -6.394868957052943 -6.099087592640728 a29.837036745458484,29.837036745458484 0 0,0 0.35766897209690973,-0.36860931573612105 l 6.288935721252915 6.208261103926973" fill="#ff5007" stroke="none" /><path d="M 85.05521093208273 85.24692304244772 l -4.437639643914818 -4.380713496793707 a27.235647227853335,27.235647227853335 0 0,0 0.33222846566897063,-0.33080177105552944 l 4.361575378078534 4.456451118499345" fill="#ff2a04" stroke="none" /><path d="M 85.31137513191541 84.99185889309783 l -10.132488594569793 -10.352896881572445 a35.48619339093467,35.48619339093467 0 0,0 0.44022609517849576,-0.4234971547710303 l 9.95277925577887 10.525777123105788" fill="#ffa00e" stroke="none" /><path d="M 85.57189188830299 84.74124197986013 l -3.483430144387557 -3.6839769456800133 a26.070105689936824,26.070105689936824 0 0,0 0.32872183120619686,-0.30551111670679476 l 3.419500429386504 3.7433926484614557" fill="#ff1902" stroke="none" /><path d="M 85.83668400450813 84.49514656593479 l -5.052732109159512 -5.5313226661785535 a28.491704225629316,28.491704225629316 0 0,0 0.3649502562552247,-0.32765594344485754 l 4.956770865308316 5.617477618392689" fill="#ff3d05" stroke="none" /><path d="M 86.37877921826538 84.01681056812374 l -3.2717309614495322 -3.839060871629394 a26.044066996004645,26.044066996004645 0 0,0 0.3437103273749843,-0.28784751459669944 l 3.2051630971154377 3.8948095436199055" fill="#ff1802" stroke="none" /><path d="M 86.65592168130627 83.78471172551755 l -3.135040305659371 -3.8095986170264506 a25.933712531244463,25.933712531244463 0 0,0 0.3471370692922878,-0.2806940349360276 l 3.068999837802583 3.8629987492266125" fill="#ff1702" stroke="none" /><path d="M 86.93701828274178 83.55741782278169 l -4.6293382826064615 -5.827021486016118 a28.44210671337755,28.44210671337755 0 0,0 0.3859559274282927,-0.30124472328925966 l 4.528349800018742 5.905844598528599" fill="#ff3c05" stroke="none" /><path d="M 87.22198572758235 83.33499621200491 l -4.077174661662993 -5.317424893443611 a27.700623905213643,27.700623905213643 0 0,0 0.3808886521867966,-0.2868774361772154 l 3.9850398557178064 5.38681891912668" fill="#ff3104" stroke="none" /><path d="M 87.51073957382395 83.11751280151077 l -10.240608526342188 -13.8428486916936 a38.21901631600701,38.21901631600701 0 0,0 0.5322538250460707,-0.3867050395894964 l 10.000809384942334 14.017072966099764" fill="#ffc412" stroke="none" /><path d="M 87.80319425747018 82.90503203632743 l -9.923032513510508 -13.908061381139817 a38.085103032927236,38.085103032927236 0 0,0 0.5369434787522691,-0.3761632206631452 l 9.682157895174578 14.076809444566903" fill="#ffc312" stroke="none" /><path d="M 88.39885842347998 82.49532879139004 l -2.672813149141754 -4.032940643743985 a25.838237320159813,25.838237320159813 0 0,0 0.3728494239818789,-0.2425116368392739 l 2.602996699375588 4.078351204742794" fill="#ff1502" stroke="none" /><path d="M 88.70189139769569 82.29822771554957 l -2.6210082090842364 -4.106571471920668 a25.871715640929757,25.871715640929757 0 0,0 0.37745705560249415,-0.23636357359030605 l 2.5499320011094997 4.151079386833904" fill="#ff1602" stroke="none" /><line stroke="#e1ed5e" stroke-width="0.3" x1="56.762969772571076" x2="54.21961505331055" y1="26.818313649435495" y2="22.513508569990535" /><path d="M 56.25429882871897 25.957352633546506 a86.0,86.0 0 0,1 42.265352541879196,-11.944610805530505" fill="none" id="id48" stroke="none" /><text fill="#e1ed5e" style="font-size:6.75px; font-family:Arial;" text-anchor="middle"><textPath startOffset="22.20632615414155" xlink:href="#id48">December</textPath></text><path d="M 89.3179101791058 81.91981866633112 l -4.47811437314347 -7.579520604757957 a29.80355842468854,29.80355842468854 0 0,0 0.4439357361620624,-0.2571562324541142 l 4.346981904516087 7.655480994602119" fill="#ff5007" stroke="none" /><path d="M 89.94658935756843 81.56283822128135 l -5.743081814178122 -10.532358846411235 a32.996398275896,32.996398275896 0 0,0 0.5010030969997298,-0.2676185035812422 l 5.560933670650088 10.629656076494227" fill="#ff7d0b" stroke="none" /><path d="M 90.26544431104013 81.39251694778311 l -4.667160868804003 -8.921220397016347 a31.068294987108583,31.068294987108583 0 0,0 0.4759951466952748,-0.24382320188911996 l 4.512905234519964 9.000236124217972" fill="#ff6209" stroke="none" /><path d="M 90.58718382345135 81.22770947309562 l -3.3424399113796883 -6.665938429931884 a28.456985967053082,28.456985967053082 0 0,0 0.4397671238376107,-0.21579181777946513 l 3.2272015205316515 6.722485407846178" fill="#ff3c05" stroke="none" /><path d="M 93.59665428221793 80.00007090966166 l -1.1365185633049022 -3.5497522198167877 a24.727253045720246,24.727253045720246 0 0,0 0.4064861640031339,-0.12629722982902955 l 1.0752470265910394 3.568789584528343" fill="#ff0400" stroke="none" /><path d="M 93.94186890950719 79.89281104454417 l -1.3807230614242885 -4.582677244271257 a25.786159932295458,25.786159932295458 0 0,0 0.42609760685023257,-0.12438957580529628 l 1.3016352368506348 4.6057651489952525" fill="#ff1402" stroke="none" /><path d="M 94.28887869178378 79.79150937346287 l -2.69566634284559 -9.538468031364783 a30.91206282351552,30.91206282351552 0 0,0 0.5132905502385123,-0.14030169704305337 l 2.531077903383355 9.583456269234132" fill="#ff6008" stroke="none" /><path d="M 94.98787191387505 79.60689891045804 l -2.3678110266145205 -9.634033447859151 a30.920742388159578,30.920742388159578 0 0,0 0.5179611787470508,-0.1225846763549206 l 2.2016261609049352 9.673364036354943" fill="#ff6008" stroke="none" /><path d="M 95.33964822691252 79.52364482259891 l -2.2126329158650906 -9.721724811439834 a30.970339900411346,30.970339900411346 0 0,0 0.5208286129175612,-0.11383296189022424 l 2.0449615787940085 9.758371271425927" fill="#ff6008" stroke="none" /><path d="M 95.692805502759 79.44645832069477 l -1.0426989768754424 -4.975664993514028 a26.08374500580606,26.08374500580606 0 0,0 0.4402359712834043,-0.08830719431445831 l 0.9568965961249017 4.992876143905696" fill="#ff1902" stroke="none" /><path d="M 96.04723909329186 79.375362276772 l -1.0817599324485168 -5.644385591951926 a26.747111732173433,26.747111732173433 0 0,0 0.45292397277937696,-0.08276896100825558 l 0.9844408385662466 5.662170034310918" fill="#ff2303" stroke="none" /><path d="M 96.40284397218896 79.31037775812273 l -1.0989205822528072 -6.320618717912557 a27.415438209765988,27.415438209765988 0 0,0 0.4656326719203601,-0.07683338056154622 l 0.9899587041935615 6.33859836141373" fill="#ff2d04" stroke="none" /><path d="M 96.75951476605007 79.25152402106235 l -0.847224032116175 -5.4246837155662915 a26.490444606270543,26.490444606270543 0 0,0 0.45113355778280645,-0.06648535941803652 l 0.7537214939047198 5.438463559145298" fill="#ff1f03" stroke="none" /><path d="M 97.11714578562143 79.19881850522333 l -1.7612367428708526 -12.70817128420876 a33.82963648172568,33.82963648172568 0 0,0 0.577496496125329,-0.0749756194574861 l 1.5422255182376658 12.736605226830383" fill="#ff890c" stroke="none" /><path d="M 97.83486435360386 79.11191278185805 l -0.5114866099252675 -4.934553147658047 a25.960991162982936,25.960991162982936 0 0,0 0.4448908759709515,-0.04224774937338817 l 0.42647060686407967 4.942626441546616" fill="#ff1702" stroke="none" /><path d="M 98.55514903715128 79.0497635885617 l -0.4274920688166413 -6.198604656126906 a27.21332834734004,27.21332834734004 0 0,0 0.4676000783385137,-0.02820691368580104 l 0.32072994163850466 6.205044839193014" fill="#ff2a04" stroke="none" /></svg>