<?xml version="1.0" encoding="utf-8" ?>
<svg baseProfile="full" height="200mm" version="1.1" viewBox="0,0,200,200" width="200mm" xmlns="http://www.w3.org/2000/svg" xmlns:ev="http://www.w3.org/2001/xml-events" xmlns:xlink="http://www.w3.org/1999/xlink"><defs /><rect fill="#1a1a1a" height="200" width="200" x="0" y="0" /><text alignment-baseline="middle" fill="#e1ed5e" style="dominant-baseline: central; font-size:9.0px; font-family:Arial;" text-anchor="middle" x="100.0" y="100.0">2021</text><line stroke="#e1ed5e" stroke-width="0.3" x1="100.0" x2="100.0" y1="15.0" y2="10.0" /><path d="M 100.0 14.0 a86.0,86.0 0 0,1 42.46469731375804,11.215312516191453" fill="none" id="id25" stroke="none" /><text fill="#e1ed5e" style="font-size:6.75px; font-family:Arial;" text-anchor="middle"><textPath startOffset="22.20632615414155" xlink:href="#id25">January</textPath></text><path d="M 100.0 79.0 l 0.0 -5.950941366325981 a26.95094136632598,26.95094136632598 0 0,0 0.463916152473587,0.003993072787896584 l -0.1024356732010586 5.9500596701466435" fill="#ff3605" stroke="none" /><path d="M 101.44485096284872 79.0497635885617 l 1.1061387252965544 -16.038933007401287 a37.07703066164605,37.07703066164605 0 0,0 0.636329790465263,0.04939143864713381 l -1.3820587051241584 16.01751630656569" fill="#ffc112" stroke="none" /><path d="M 103.59715602781102 79.31037775812273 l 1.9926580298223764 -11.4610935904708 a32.633028509951586,32.633028509951586 0 0,0 0.5525935310155675,0.10098293570413476 l -2.189646681940845 11.425095173415926" fill="#ff860c" stroke="none" /><path d="M 103.95276090670814 79.375362276772 l 1.7180370159333878 -8.964339580617661 a30.127487896718666,30.127487896718666 0 0,0 0.5084854147128438,0.10199739060897547 l -1.8720888401133569 8.933438233931478" fill="#ff6309" stroke="none" /><path d="M 104.307194497241 79.44645832069477 l 2.8262054049137046 -13.486395987313886 a34.77934373318989,34.77934373318989 0 0,0 0.5848846804067339,0.12783313720410638 l -3.0579328094739666 13.435749352013909" fill="#ffa30f" stroke="none" /><path d="M 107.08798089147638 80.2323363322302 l 7.747593959913934 -21.607257973592368 a43.95427649273803,43.95427649273803 0 0,0 0.7100032116293196,0.26150017480666515 l -8.11837949731583 21.47069453097938" fill="#e6ff1a" stroke="none" /><path d="M 107.4271985657038 80.35727306442388 l 4.936550052600119 -13.055703820117188 a34.95782678859602,34.95782678859602 0 0,0 0.5610179115610707,0.21766623374949645 l -5.160551129160857 12.968794882477145" fill="#ffa50f" stroke="none" /><path d="M 108.43124777332544 80.76684994638697 l 6.450199345467149 -14.71403227877808 a37.065734265734264,37.065734265734264 0 0,0 0.5821400929998928,0.2611892907526399 l -6.702521556933822 14.600822657508909" fill="#ffc111" stroke="none" /><path d="M 108.76106565485865 80.91482961587045 l 4.903180584892385 -10.681124942253039 a32.75277030661646,32.75277030661646 0 0,0 0.5103533373630692,0.23961773498309605 l -5.086312133555052 10.595142224629939" fill="#ff870c" stroke="none" /><line stroke="#e1ed5e" stroke-width="0.3" x1="143.23703022742887" x2="145.7803849466894" y1="26.81831364943548" y2="22.513508569990506" /><path d="M 143.74570117128098 25.957352633546492 a86.0,86.0 0 0,1 28.547481713284135,27.462654790039103" fill="none" id="id26" stroke="none" /><text fill="#e1ed5e" style="font-size:6.75px; font-family:Arial;" text-anchor="middle"><textPath startOffset="19.985693538727396" xlink:href="#id26">February</textPath></text><path d="M 111.60114157652 82.49532879139004 l 7.5323173119202025 -11.365324447978608 a34.6347498655191,34.6347498655191 0 0,0 0.4941146890530085,0.3336284437290358 l -7.7268366953797525 11.233984091950902" fill="#ffa10e" stroke="none" /><path d="M 111.90073688211348 82.69761687909136 l 7.762686144836362 -11.286105310604528 a34.69800968262507,34.69800968262507 0 0,0 0.48919048502144047,0.3427091968619126 l -7.955807769441454 11.15081127097868" fill="#ffa20e" stroke="none" /><path d="M 113.06298171725822 83.55741782278167 l 8.551720683110949 -10.764186395736793 a34.747713824636904,34.747713824636904 0 0,0 0.46511734589328957,0.37609254696908945 l -8.73574142756873 10.615387751503574" fill="#ffa20f" stroke="none" /><path d="M 113.34407831869373 83.78471172551755 l 7.696353293869508 -9.352357228563788 a33.11199569661108,33.11199569661108 0 0,0 0.43698762112180484,0.3659645655982984 l -7.856198451950429 9.21849150557167" fill="#ff8c0c" stroke="none" /><path d="M 113.6212207817346 84.01681056812373 l 7.772668641884923 -9.120477326161563 a32.98321678321678,32.98321678321678 0 0,0 0.42894862114641097,0.3719800173282646 l -7.9285110616780985 8.985332315413627" fill="#ff8b0c" stroke="none" /><path d="M 113.89432698308785 84.25364557470407 l 7.7999567722164995 -8.839642538052093 a32.78891877353416,32.78891877353416 0 0,0 0.41999327993753593,0.3770741135805472 l -7.950961039750026 8.704069415702248" fill="#ff880c" stroke="none" /><path d="M 114.68862486808459 84.99185889309783 l 8.779989216468852 -8.97097708337262 a33.55255513717052,33.55255513717052 0 0,0 0.40928397328833704,0.40752637783701856 l -8.933108989924511 8.818514854885484" fill="#ff920d" stroke="none" /><path d="M 114.94478906791727 85.2469230424477 l 8.531151241997744 -8.421713430529588 a32.9877353415815,32.9877353415815 0 0,0 0.395437706903809,0.4075333169201486 l -8.674853212604663 8.273615918059324" fill="#ff8b0c" stroke="none" /><path d="M 115.19652480421416 85.50635884689758 l 8.308632496505258 -7.924333979566055 a32.48165680473373,32.48165680473373 0 0,0 0.38240604755574553,0.40792410904187265 l -8.443805866031466 7.780140453646128" fill="#ff840c" stroke="none" /><path d="M 115.9244219780498 86.31012108654704 l 4.730212918923673 -4.06646107370023 a27.23786982248521,27.23786982248521 0 0,0 0.30258599718120655,0.3581663801260346 l -4.7995095295919965 3.9844357439450895" fill="#ff3a05" stroke="none" /><path d="M 116.15771136456269 86.58626213691792 l 30.024313145640324 -24.925452433690534 a60.02227003765465,60.02227003765465 0 0,0 0.6531037720286225,0.8006280006478305 l -30.448915409745357 24.404940263434604" fill="#35ff2f" stroke="none" /><path d="M 117.04232023915458 87.72973835380427 l 5.529815797879529 -3.981399583101274 a27.813986013986014,27.813986013986014 0 0,0 0.2764013273366754,0.3909500757843243 l -5.597529745020087 3.8856230069851567" fill="#ff4206" stroke="none" /><path d="M 117.45458315368197 88.32363383020206 l 12.517724723232273 -8.373819998695327 a36.0603550295858,36.0603550295858 0 0,0 0.34069027466940943,0.5188946617377457 l -12.660011633259609 8.157107272979907" fill="#ffb410" stroke="none" /><line stroke="#e1ed5e" stroke-width="0.3" x1="172.23445277983987" x2="176.4835382374775" y1="55.19839476539836" y2="52.563006222186495" /><path d="M 173.08426987136738 54.67131705675599 a86.0,86.0 0 0,1 12.851231095245387,41.99856678651699" fill="none" id="id27" stroke="none" /><text fill="#e1ed5e" style="font-size:6.75px; font-family:Arial;" text-anchor="middle"><textPath startOffset="22.20632615414155" xlink:href="#id27">March</textPath></text><path d="M 118.03404312379186 89.2402003453031 l 7.417336940533218 -4.425466818709654 a29.63722431414739,29.63722431414739 0 0,0 0.2576185035285902,0.4403535307952233 l -7.4924151185321355 4.297133875560535" fill="#ff5c08" stroke="none" /><path d="M 118.21658344932153 89.55222093294921 l 6.871150249953878 -3.940819086506733 a28.921032813340506,28.921032813340506 0 0,0 0.2439590461340038,0.4339759213905006 l -6.937966937380315 3.821959655181439" fill="#ff5207" stroke="none" /><path d="M 118.3937258080291 89.86733742301442 l 6.59562002347079 -3.6333689477238265 a28.5301775147929,28.5301775147929 0 0,0 0.23325716224520993,0.43219009601696734 l -6.657185284934465 3.5192978683744003" fill="#ff4d07" stroke="none" /><path d="M 118.56541770881063 90.18545643968196 l 5.784341009652026 -3.0578717752212 a27.54287251210328,27.54287251210328 0 0,0 0.21796979024690924,0.421048256366233 l -5.836120233059052 2.9578507965946224" fill="#ff3f05" stroke="none" /><path d="M 118.73160827565052 90.50648371742162 l 20.198699273463706 -10.237064411004113 a43.644755244755245,43.644755244755245 0 0,0 0.3338615674842455,0.6730445475392455 l -20.37192085390136 9.887860274965917" fill="#eaff1a" stroke="none" /><path d="M 118.89224826269711 90.83032412892265 l 20.36988833660575 -9.886873757927608 a43.64249596557289,43.64249596557289 0 0,0 0.3222100666550614,0.6786565741873783 l -20.53705659710257 9.53477476809969" fill="#eaff1a" stroke="none" /><path d="M 119.04729006885535 91.15688171328212 l 6.424233928548848 -2.9825901913782205 a28.08284023668639,28.08284023668639 0 0,0 0.19978625068806855,0.4402025207200817 l -6.474622496200263 2.871565661816076" fill="#ff4606" stroke="none" /><path d="M 119.196687751892 91.48605970444005 l 6.792674127592555 -3.012625027659672 a28.43076923076923,28.43076923076923 0 0,0 0.1945602697514476,0.449071927328907 l -6.843525107186683 2.8952539557441623" fill="#ff4b07" stroke="none" /><path d="M 119.34039704204932 91.81776055985345 l 6.5979988187561505 -2.7913804480586015 a28.16417428725121,28.16417428725121 0 0,0 0.18504977420943122,0.4481127062645641 l -6.645070279851779 2.6773931713407344" fill="#ff4706" stroke="none" /><path d="M 119.47837535516314 92.15188598940014 l 6.416652537655674 -2.5853604196295574 a27.917912856374393,27.917912856374393 0 0,0 0.17575848349777598,0.44728616960761614 l -6.46020457103515 2.4745252451261566" fill="#ff4406" stroke="none" /><path d="M 119.7369772167798 92.82701384747503 l 10.050039071223113 -3.652473745013521 a31.69316837009145,31.69316837009145 0 0,0 0.18192922887573876,0.514338428885148 l -10.111421380908661 3.4789376897017585" fill="#ff790b" stroke="none" /><path d="M 119.85752413597 93.16781622104841 l 21.417071486078445 -7.368761956319484 a43.649273803119954,43.649273803119954 0 0,0 0.23833065996012934,0.7125783379818067 l -21.540739439810345 6.999010515415363" fill="#eaff1a" stroke="none" /><path d="M 119.97218684219823 93.5106431181261 l 6.73188395660108 -2.1873216902539987 a28.07832167832168,28.07832167832168 0 0,0 0.1453982622623705,0.4609522250298508 l -6.768537702631657 2.0711192987977287" fill="#ff4606" stroke="none" /><path d="M 120.08093135843002 93.85539295169968 l 6.962973831976327 -2.130615225031944 a28.28165680473373,28.28165680473373 0 0,0 0.1384375018779678,0.46674243536384497 l -6.998617230965997 2.010443402921569" fill="#ff4906" stroke="none" /><path d="M 120.18372546131832 94.20196356495316 l 6.8031857848639365 -1.954303189994811 a28.07832167832168,28.07832167832168 0 0,0 0.12944538089308655,0.4656839075964783 l -6.8358179363233855 1.8369079789793807" fill="#ff4606" stroke="none" /><path d="M 120.28053869075195 94.5502522615342 l 12.502150263368335 -3.359554011985908 a33.94566971490048,33.94566971490048 0 0,0 0.14678053939200666,0.5656052938277054 l -12.558127134630645 3.143852292609352" fill="#ff980e" stroke="none" /><path d="M 120.45610955862082 95.25157060432595 l 21.946027382309513 -5.094280573820513 a43.529532006455085,43.529532006455085 0 0,0 0.16314373809916535,0.7313413886262341 l -22.030465507410717 4.715761015644315" fill="#ebff1a" stroke="none" /><path d="M 120.53481517161879 95.60439243477599 l 26.057896175281734 -5.577858120690403 a47.64819795589027,47.64819795589027 0 0,0 0.1647736039970646,0.8034946112440716 l -26.150049075193795 5.12848785328292" fill="#baff1f" stroke="none" /><path d="M 120.6074358757038 95.95851677861258 l 6.94600286160086 -1.3622342046914273 a28.07832167832168,28.07832167832168 0 0,0 0.08893377334569863,0.47508777335075525 l -6.968422358856418 1.2424683538781094" fill="#ff4606" stroke="none" /><path d="M 120.67395015179393 96.31383870115 l 6.754899043679203 -1.2043971882310305 a27.861430876815493,27.861430876815493 0 0,0 0.08011904504923181,0.47286713915966516 l -6.774629950248658 1.0879442607555276" fill="#ff4306" stroke="none" /><path d="M 120.78858239683441 97.02765380044208 l 7.279917773178702 -1.0408807831695543 a28.353953738569125,28.353953738569125 0 0,0 0.06492245420378223,0.4837476930703026 l -7.29675622644032 0.9154147480345873" fill="#ff4a06" stroke="none" /><path d="M 120.87857604477298 97.74499172005257 l 11.314189084187364 -1.221998569778935 a32.3799892415277,32.3799892415277 0 0,0 0.05508125171837532,0.554660687890698 l -11.333547461587967 1.0270623511838022" fill="#ff820c" stroke="none" /><path d="M 120.91429891909075 98.10471618934814 l 7.47919629984483 -0.6777755122761483 a28.509844002151695,28.509844002151695 0 0,0 0.04008418382805764,0.48912857221680106 l -7.489754967492382 0.5489330228515784" fill="#ff4c07" stroke="none" /><path d="M 120.94382443527127 98.46500227214037 l 7.072906390781764 -0.518381696369165 a28.091877353415814,28.091877353415814 0 0,0 0.031194570355147663,0.48256619635048514 l -7.080781552141327 0.39655643576564453" fill="#ff4606" stroke="none" /><path d="M 120.96714384426684 98.82574320788733 l 7.234172168753501 -0.40514701799949737 a28.24550833781603,28.24550833781603 0 0,0 0.023008511012891565,0.4856733023129916 l -7.240074287999889 0.280562609063506" fill="#ff4906" stroke="none" /><path d="M 120.98425023603335 99.18683210126433 l 7.9489558989858455 -0.3080327242009992 a28.954922001075847,28.954922001075847 0 0,0 0.015012858940984709,0.4982036999033041 l -7.953080452382475 0.17115887687269604" fill="#ff5307" stroke="none" /><line stroke="#e1ed5e" stroke-width="0.3" x1="184.98032266829074" x2="189.97916517819016" y1="98.17113171792111" y2="98.06355123074" /><path d="M 185.9800911702706 98.14961562048488 a86.0,86.0 0 0,1 -9.607161424134198,41.387399972396054" fill="none" id="id28" stroke="none" /><text fill="#e1ed5e" style="font-size:6.75px; font-family:Arial;" text-anchor="middle"><textPath startOffset="21.466115282336823" xlink:href="#id28">April</textPath></text><path d="M 120.99513854157772 99.54816195383933 l 7.582644441535918 -0.1631866940248908 a28.584400215169445,28.584400215169445 0 0,0 0.006352532968979327,0.49201067918440294 l -7.584329981622613 0.032639756780025134" fill="#ff4d07" stroke="none" /><path d="M 120.9764740272857 100.99374915477107 l 9.744638499173714 0.4616469984186611 a30.755567509413662,30.755567509413662 0 0,0 -0.02960391666143772,0.5285978187763187 l -9.735248231624746 -0.6293165335304031" fill="#ff6c09" stroke="none" /><path d="M 120.95626037817324 101.35467743843564 l 7.891007135406815 0.5100990892441898 a28.90747713824637,28.90747713824637 0 0,0 -0.03637309649164061,0.4962820030687278 l -7.881057480250837 -0.6458542288096879" fill="#ff5207" stroke="none" /><path d="M 120.92983693683757 101.71520430193887 l 7.261831535373983 0.5951085394032123 a28.28617536309844,28.28617536309844 0 0,0 -0.043945137666596745,0.4849309322616349 l -7.250511801430311 -0.7200208602134177" fill="#ff4906" stroke="none" /><path d="M 120.89721153311464 102.0752229133903 l 7.358426395684159 0.7307374497607804 a28.394620763851535,28.394620763851535 0 0,0 -0.052486372752531464,0.4859586257721293 l -7.344757721430576 -0.857292397417701" fill="#ff4b07" stroke="none" /><path d="M 120.8583938346157 102.4346265915055 l 7.896792673912065 0.9217268397534034 a28.950403442711135,28.950403442711135 0 0,0 -0.062034498172231105,0.49447598671988396 l -7.879756666492987 -1.0575205807606822" fill="#ff5307" stroke="none" /><path d="M 120.81339534386255 102.79330883721812 l 16.234224447875576 2.178750841294387 a37.379774072081766,37.379774072081766 0 0,0 -0.09107483872300493,0.6369772099068454 l -16.194315558135973 -2.4578735231816418" fill="#ffc512" stroke="none" /><path d="M 120.70491114924044 103.5080841355445 l 6.818475850223236 1.1552711714794743 a27.91565357719204,27.91565357719204 0 0,0 -0.08434988256664705,0.4730789366261812 l -6.797579525317401 -1.2724688588388737" fill="#ff4406" stroke="none" /><path d="M 120.64145759157962 103.86396538481128 l 11.165707237274054 2.090157929513837 a32.359655728886494,32.359655728886494 0 0,0 -0.10720301990205086,0.5466258888871247 l -11.12807428439634 -2.282047545468907" fill="#ff820c" stroke="none" /><path d="M 120.5718875245553 104.21870165774334 l 7.7639786375621265 1.5921684147782273 a28.925551371705218,28.925551371705218 0 0,0 -0.1042228404745514,0.48689441312692716 l -7.735421758363132 -1.7255766473213237" fill="#ff5207" stroke="none" /><path d="M 120.23288151984713 105.62410040840565 l 8.70917256168998 2.4208742048446523 a30.03937600860678,30.03937600860678 0 0,0 -0.14276909090504813,0.4969979349855921 l -8.666210833898832 -2.5704296153348265" fill="#ff6209" stroke="none" /><path d="M 119.9155931802556 106.66101706037122 l 32.751991108487054 10.954309498099466 a55.53534158149543,55.53534158149543 0 0,0 -0.3110221607944534,0.9039759855149981 l -32.55857811674937 -11.516458186703764" fill="#63ff29" stroke="none" /><path d="M 119.54520255179757 107.68017299344265 l 14.740384065422372 5.792147679831411 a36.8375470683163,36.8375470683163 0 0,0 -0.23698363362379946,0.5881739437679318 l -14.638497817541179 -6.045020991442156" fill="#ffbe11" stroke="none" /><path d="M 119.41010516605496 108.01547362559984 l 20.9136313327639 8.636360232424137 a43.6266810112964,43.6266810112964 0 0,0 -0.2926083435370107,0.6916396890141349 l -20.76187200803458 -8.995074447104436" fill="#eaff1a" stroke="none" /><path d="M 118.81262510543309 109.33194174019688 l 6.832858779552676 3.389417462604052 a28.627326519634213,28.627326519634213 0 0,0 -0.22277694191911618,0.4395600412603723 l -6.77350316784729 -3.5065317155671187" fill="#ff4e07" stroke="none" /><path d="M 118.64920377521936 109.65438752849418 l 10.033853478200323 5.194361703066101 a32.29865519096288,32.29865519096288 0 0,0 -0.25984651343915316,0.49153167771152484 l -9.942954456536278 -5.3663083958637605" fill="#ff810b" stroke="none" /><line stroke="#e1ed5e" stroke-width="0.3" x1="174.80103733775053" x2="179.2010983576182" y1="140.37084112569926" y2="142.7455964860345" /><path d="M 175.68104954172406 140.8457921977663 a86.0,86.0 0 0,1 -30.038265399797805,32.042727171017184" fill="none" id="id29" stroke="none" /><text fill="#e1ed5e" style="font-size:6.75px; font-family:Arial;" text-anchor="middle"><textPath startOffset="22.206326154141568" xlink:href="#id29">May</textPath></text><path d="M 118.48025628344425 109.97397251340804 l 9.976753741831443 5.384550196049661 a32.33706293706294,32.33706293706294 0 0,0 -0.26858793453690627,0.4875651178237995 l -9.882589397843027 -5.555485832271265" fill="#ff820c" stroke="none" /><path d="M 118.30583269289576 110.29060199501025 l 6.245055994531733 3.5106507720470668 a28.16417428725121,28.16417428725121 0 0,0 -0.24120335836088613,0.4205583863937863 l -6.1837006400184675 -3.617629004299168" fill="#ff4706" stroke="none" /><path d="M 118.12598468904814 110.60418214915192 l 13.952815540628231 8.162767431649494 a37.16514254975793,37.16514254975793 0 0,0 -0.32779500750555807,0.5494032873129195 l -13.810239657424447 -8.401732812848516" fill="#ffc212" stroke="none" /><path d="M 117.94076556474637 110.91462005526583 l 27.24602976997953 16.575661828954534 a52.89198493813878,52.89198493813878 0 0,0 -0.4798949242316644,0.7737434197318539 l -26.9566702060799 -17.04220158005166" fill="#7fff26" stroke="none" /><path d="M 117.75023020441432 111.22182372390056 l 38.510074481142475 24.346347199158522 a66.56062399139321,66.56062399139321 0 0,0 -0.6205831651477912,0.9631588536540154 l -38.08528645261764 -25.005627652733992" fill="#37ff77" stroke="none" /><path d="M 117.55443506779139 111.5257021239791 l 6.6232817410160685 4.348643071414168 a28.92329209252286,28.92329209252286 0 0,0 -0.2768329472331306,0.4138276949260097 l -6.547445688372218 -4.462007680545985" fill="#ff5207" stroke="none" /><path d="M 117.35343817320211 111.8261652097733 l 6.564248371918083 4.473458512916932 a28.943625605164065,28.943625605164065 0 0,0 -0.28411489169939463,0.40928869178290395 l -6.486272573056552 -4.585788466886856" fill="#ff5307" stroke="none" /><path d="M 116.93607887273984 112.41649034213515 l 38.451002953354376 28.189908089303703 a68.6775685852609,68.6775685852609 0 0,0 -0.7071785922541789,0.9473812897983694 l -37.9600630944051 -28.847602258611385" fill="#3aff8f" stroke="none" /><path d="M 116.71984013943494 112.70617746262583 l 6.306590589441514 4.792668981599371 a28.921032813340506,28.921032813340506 0 0,0 -0.30462549034873654,0.39376951020508366 l -6.22315828187471 -4.900516485917707" fill="#ff5207" stroke="none" /><path d="M 116.498646956653 112.99209946851258 l 5.548657384238545 4.369370945515901 a28.062506724045186,28.062506724045186 0 0,0 -0.30211571967365886,0.3769358127083973 l -5.4726237525100325 -4.464234591802549" fill="#ff4606" stroke="none" /><path d="M 116.27256486870786 113.27417163493432 l 6.150136673886036 5.016908547985399 a28.936847767617,28.936847767617 0 0,0 -0.31817304285782644,0.3832599267226281 l -6.062867631134666 -5.122029731821797" fill="#ff5207" stroke="none" /><path d="M 116.0416608686014 113.55231037782055 l 6.301033225525949 5.323236706769535 a29.24862829478214,29.24862829478214 0 0,0 -0.3282218258307367,0.3817961349386615 l -6.208468890124434 -5.430909940869725" fill="#ff5708" stroke="none" /><path d="M 115.80600337817218 113.82643327865902 l 6.137048541347325 5.368434395124305 a29.153738569123185,29.153738569123185 0 0,0 -0.3336591935597464,0.3748696410612005 l -6.04373049813924 -5.4732782059263725" fill="#ff5607" stroke="none" /><path d="M 115.56566222782051 114.09645910891815 l 17.024262744273628 15.417386046397203 a43.96783216783217,43.96783216783217 0 0,0 -0.5128608772453206,0.5566091909963662 l -16.756355459032587 -15.708146492194905" fill="#e6ff1a" stroke="none" /><path d="M 114.81725581225074 114.88116024355365 l 5.580980376405576 5.605050243429944 a28.909736417428725,28.909736417428725 0 0,0 -0.35565865620218795,0.3480868513182107 l -5.483671767827594 -5.700287197670727" fill="#ff5207" stroke="none" /><path d="M 114.55890576462653 115.13401014063108 l 5.178240178359905 5.3827904814337115 a28.469176976869285,28.469176976869285 0 0,0 -0.35608726743856195,0.33670273720975186 l -5.084817076530535 -5.471127855389385" fill="#ff4c07" stroke="none" /><path d="M 114.29624159901734 115.38237550388516 l 5.386276286149403 5.795489942399764 a28.91199569661108,28.91199569661108 0 0,0 -0.36745831796369466,0.33566446110720793 l -5.2857184187188455 -5.887347170093555" fill="#ff5207" stroke="none" /><path d="M 114.0293411484842 115.62618273729858 l 5.660035428382545 6.304269528226966 a29.472296933835395,29.472296933835395 0 0,0 -0.3804138791106577,0.335671018351855 l -5.5506791963653 -6.40076368835111" fill="#ff5a08" stroke="none" /><path d="M 113.75828350139079 115.86535959552629 l 14.819573363735836 17.08918561273902 a43.61990317374933,43.61990317374933 0 0,0 -0.5714924414983269,0.48703825690861385 l -14.523215445660462 -17.34174825987058" fill="#eaff1a" stroke="none" /><path d="M 113.48314897796784 116.09983520530334 l 14.58268926040997 17.412764208597576 a43.712533620225926,43.712533620225926 0 0,0 -0.5810225662095014,0.4781420161755043 l -14.280796565655777 -17.661201343630257" fill="#e9ff1a" stroke="none" /><path d="M 113.20401910651253 116.32954008644616 l 5.135290916626445 6.350864702797514 a29.167294244217324,29.167294244217324 0 0,0 -0.39312305207304976,0.312320728369427 l -5.025210371836044 -6.438319345172067" fill="#ff5607" stroke="none" /><path d="M 112.92097659922987 116.55440617244103 l 4.7833330261377105 6.128425136026854 a28.77417966648736,28.77417966648736 0 0,0 -0.39307073845151846,0.3013898808484774 l -4.677133559192699 -6.209854358702703" fill="#ff5007" stroke="none" /><path d="M 112.63410532772338 116.77436683061366 l 4.217711547275484 5.5998773830440225 a28.010543302850994,28.010543302850994 0 0,0 -0.3876326128833394,0.28676134002413595 l -4.12069396397358 -5.671648671807928" fill="#ff4506" stroke="none" /><path d="M 112.34349029814194 116.9893568818739 l 4.890917134809764 6.731769918874831 a29.320925228617536,29.320925228617536 0 0,0 -0.41087366747468274,0.29314745237070705 l -4.774316139486197 -6.814961633089757" fill="#ff5808" stroke="none" /><path d="M 112.04921762599082 117.19931262002967 l 5.9202557179021085 8.45070045569398 a31.318128025820336,31.318128025820336 0 0,0 -0.4441851818566533,0.30551461837773697 l -5.773913651422572 -8.551355863436811" fill="#ff740a" stroke="none" /><path d="M 111.7513745106137 117.40417183066458 l 4.355404538898786 6.450497251924635 a28.783216783216783,28.783216783216783 0 0,0 -0.4130053080207485,0.2737173976650461 l -4.243724532138073 -6.524512670680999" fill="#ff5007" stroke="none" /><path d="M 111.45004920935366 117.60387380957326 l 8.889032285604745 13.666439312520785 a37.30295857988166,37.30295857988166 0 0,0 -0.5412804912752159,0.3454708193319088 l -8.6524699922826 -13.817424560676503" fill="#ffc412" stroke="none" /><path d="M 111.1453310114006 117.79835938074945 l 13.430753379096085 21.448028340373813 a46.30618612157073,46.30618612157073 0 0,0 -0.6792032617737923,0.4172221176853751 l -13.059570917389983 -21.676038924887568" fill="#caff1d" stroke="none" /><line stroke="#e1ed5e" stroke-width="0.3" x1="143.8653032363475" x2="146.44561519142675" y1="172.8068346515853" y2="177.08958963109032" /><path d="M 144.38136562736335 173.6633856474863 a86.0,86.0 0 0,1 -40.68145358897372,12.25698825130547" fill="none" id="id30" stroke="none" /><text fill="#e1ed5e" style="font-size:6.75px; font-family:Arial;" text-anchor="middle"><textPath startOffset="21.466115282336833" xlink:href="#id30">June</textPath></text><path d="M 110.8373102113329 117.98757091392108 l 7.397819611716764 12.278766804607772 a35.33512641204949,35.33512641204949 0 0,0 -0.5236869819382576,0.3094034996585 l -7.185364758750124 -12.40428887656002" fill="#ffaa0f" stroke="none" /><path d="M 110.5260780823613 118.17145234162733 l 13.615388572805786 23.50461231881499 a48.16331360946745,48.16331360946745 0 0,0 -0.7209617629665279,0.40938090495859175 l -13.208778042918059 -23.73549638956821" fill="#b4ff20" stroke="none" /><path d="M 110.21172684928248 118.3499491758327 l 7.747509170644446 13.921876448410133 a36.932436793975256,36.932436793975256 0 0,0 -0.5581672828814631,0.30435730668994426 l -7.506719075894335 -14.053174406859847" fill="#ffbf11" stroke="none" /><path d="M 109.89434966115114 118.52300852407294 l 12.897250187682323 24.144676845364987 a48.37342657342657,48.37342657342657 0 0,0 -0.737830886068338,0.3859982475497223 l -12.47972839908749 -24.363104511859426" fill="#b2ff20" stroke="none" /><path d="M 108.92500713936063 119.00905698771935 l 8.007061273278998 17.05395655950421 a39.840129101667564,39.840129101667564 0 0,0 -0.6232741648883621,0.2861145994329137 l -7.712319112623216 -17.1892582292712" fill="#ffe515" stroke="none" /><path d="M 108.59647513512805 119.15986991738527 l 7.4126679083433356 16.521394016981493 a39.108122646584185,39.108122646584185 0 0,0 -0.6165662314872815,0.2702845166727264 l -7.1271810021982995 -16.64654308694867" fill="#ffdb14" stroke="none" /><path d="M 107.59598834532513 119.57807347666477 l 6.578559029571519 16.95572797064566 a39.187197417966644,39.187197417966644 0 0,0 -0.6309694481885996,0.23857865539542625 l -6.285719360622645 -17.066454876147716" fill="#ffdc14" stroke="none" /><path d="M 106.2309692047433 120.05430185196036 l 3.770758663440677 12.136142863612372 a33.70844540075309,33.70844540075309 0 0,0 -0.5555874536150115,0.16739394222082565 l -3.5612962353854196 -12.199252174938923" fill="#ff940d" stroke="none" /><path d="M 104.83641907484287 120.43548508189849 l 3.671411833468667 15.51294058503236 a36.94147391070468,36.94147391070468 0 0,0 -0.6200535812025081,0.14112217636054677 l -3.403838102873297 -15.573839494970592" fill="#ffbf11" stroke="none" /><path d="M 104.13013068566511 120.58985236759428 l 2.2230278451191534 11.082413275424871 a32.3031737493276,32.3031737493276 0 0,0 -0.5461272777680227,0.10466659257811757 l -2.0319329527794263 -11.119037066351456" fill="#ff810b" stroke="none" /><path d="M 103.7750983002368 120.6578951692458 l 2.094478960120627 11.461298051404045 a32.65110274341043,32.65110274341043 0 0,0 -0.5537487535541618,0.09627631879660233 l -1.896881235094415 -11.495652948721652" fill="#ff860c" stroke="none" /><path d="M 103.06178313531738 120.77559828337769 l 1.8558457433435285 12.59276177821946 a33.728778913394294,33.728778913394294 0 0,0 -0.5751100658603343,0.07970501471338742 l -1.6388070862963637 -12.62284135842545" fill="#ff950d" stroke="none" /><path d="M 102.34483914955558 120.86867818915974 l 1.537831033425591 13.68644026262698 a34.77256589564282,34.77256589564282 0 0,0 -0.5953848204027079,0.06171407101639832 l -1.3020136164172804 -13.710883702099137" fill="#ffa30f" stroke="none" /><path d="M 101.62511606390274 120.93702456842531 l 0.9831121707719276 12.665829924503022 a33.703926842388384,33.703926842388384 0 0,0 -0.5788043393975166,0.039917736041533945 l -0.7649450705954806 -12.68087600506084" fill="#ff940d" stroke="none" /><path d="M 100.90346689309514 120.98055641714683 l 0.33358777591205263 7.746666984792676 a28.753846153846155,28.753846153846155 0 0,0 -0.49467521078393767,0.017037614462733126 l -0.2001922134534627 -7.751261397681503" fill="#ff5007" stroke="none" /><line stroke="#e1ed5e" stroke-width="0.3" x1="102.19456741930631" x2="102.32365962044197" y1="184.97166512339345" y2="189.96999836594603" /><path d="M 102.22038585953345 185.97133177190398 a86.0,86.0 0 0,1 -42.740103519485714,-10.115201625700543" fill="none" id="id31" stroke="none" /><text fill="#e1ed5e" style="font-size:6.75px; font-family:Arial;" text-anchor="middle"><textPath startOffset="22.20632615414155" xlink:href="#id31">July</textPath></text><path d="M 100.18074693466247 120.99922214144158 l 0.12159339240929304 14.12674944060615 a35.127272727272725,35.127272727272725 0 0,0 -0.6046806541434873,0.0 l 0.12159339240928331 -14.12674944060615" fill="#ffa70f" stroke="none" /><path d="M 99.45781275523022 120.99299961872073 l -0.4991389191495439 19.326207395093423 a40.3326519634212,40.3326519634212 0 0,0 -0.6938745865416109,-0.023898443732907344 l 0.8317338573657979 -19.314752152934425" fill="#ffeb16" stroke="none" /><path d="M 98.73552117531835 120.96189622390904 l -0.7761002361278969 12.86580074851006 a33.88918773534158,33.88918773534158 0 0,0 -0.5819858621103872,-0.04013715247506429 l 0.9974488590172141 -12.85053525151871" fill="#ff970d" stroke="none" /><path d="M 96.22490169976321 120.6578951692458 l -2.437263571782787 13.33706604740657 a34.557934373318986,34.557934373318986 0 0,0 -0.5842469464778216,-0.11197231781192377 l 2.666478132832304 -13.293136531246176" fill="#ffa00e" stroke="none" /><path d="M 95.86986931433489 120.58985236759428 l -2.6949158266335487 13.4349063592748 a34.70252824098978,34.70252824098978 0 0,0 -0.5846690857928584,-0.12252309155893785 l 2.925776373855794 -13.38652728698932" fill="#ffa20e" stroke="none" /><path d="M 95.51606077576429 120.51570834832081 l -1.9300958403622481 8.830914373494524 a30.03937600860678,30.03937600860678 0 0,0 -0.5042035603735878,-0.11475508879516698 l 2.0818195501286985 -8.79638255112167" fill="#ff6209" stroke="none" /><path d="M 95.16358092515715 120.4354850818985 l -2.8638677340435765 12.10079719104565 a33.435072619688,33.435072619688 0 0,0 -0.5589177341673186,-0.1373683806574148 l 3.0717387529541056 -12.049707552074207" fill="#ff910d" stroke="none" /><path d="M 94.11515582081647 120.15858648285463 l -3.5163447629032123 12.045270503041918 a33.54803657880581,33.54803657880581 0 0,0 -0.5529435723008918,-0.1665973624689705 l 3.72316330964435 -11.982957771467222" fill="#ff920d" stroke="none" /><path d="M 93.08242187328487 119.8279376855182 l -4.468331261193933 12.807631830430468 a34.564712210866055,34.564712210866055 0 0,0 -0.5600807360866931,-0.20082502524256973 l 4.688131557910353 -12.72881926414794" fill="#ffa00e" stroke="none" /><path d="M 91.7346041902142 119.30500536409082 l -3.5640351162583626 8.32431000530135 a30.055190962883273,30.055190962883273 0 0,0 -0.47384058795352785,-0.2077177888675527 l 3.7067963788696336 -8.261727663139343" fill="#ff6209" stroke="none" /><path d="M 91.07499286063937 119.00905698771935 l -4.434177834272986 9.444198512026677 a31.433351264120496,31.433351264120496 0 0,0 -0.48779671329883084,-0.23417206574089172 l 4.59608721557206 -9.366472169786222" fill="#ff750a" stroke="none" /><path d="M 90.42595943632237 118.69057910512821 l -6.180123010442795 12.064924650970335 a34.55567509413663,34.55567509413663 0 0,0 -0.527071290570979,-0.27573878829914544 l 6.3868852035402695 -11.956756443726473" fill="#ffa00e" stroke="none" /><line stroke="#e1ed5e" stroke-width="0.3" x1="58.666819895761336" x2="56.23545636021788" y1="174.27360380694188" y2="178.64263932499728" /><path d="M 58.180547188652646 175.14741091055294 a86.0,86.0 0 0,1 -31.652253787137756,-30.449443065178592" fill="none" id="id32" stroke="none" /><text fill="#e1ed5e" style="font-size:6.75px; font-family:Arial;" text-anchor="middle"><textPath startOffset="22.20632615414155" xlink:href="#id32">August</textPath></text><path d="M 89.4739219176387 118.17145234162733 l -6.28507082916677 10.850087196991034 a33.53899946207638,33.53899946207638 0 0,0 -0.49706734315047524,-0.29367614785360824 l 6.470906043345628 -10.740292476843676" fill="#ff920d" stroke="none" /><path d="M 89.1626897886671 117.98757091392108 l -6.995574100914193 11.611127001993164 a34.55567509413663,34.55567509413663 0 0,0 -0.5068507947321504,-0.31134915544485814 l 7.194404095578652 -11.488989379719929" fill="#ffa00e" stroke="none" /><path d="M 88.8546689885994 117.79835938074946 l -13.205328717434615 21.088040006475925 a45.881441635287786,45.881441635287786 0 0,0 -0.6657576292663882,-0.4249180182298208 l 13.566368148747927 -20.857607559422302" fill="#cfff1d" stroke="none" /><path d="M 88.54995079064634 117.60387380957326 l -7.7434114394832925 11.905104977619962 a35.20182894029048,35.20182894029048 0 0,0 -0.5051048433493981,-0.33475594764670985 l 7.9471909815726525 -11.770051008881934" fill="#ffa80f" stroke="none" /><path d="M 88.24862548938628 117.40417183066458 l -7.6816946236136525 11.37684217785024 a34.727380311995695,34.727380311995695 0 0,0 -0.49253862576240487,-0.33877255800635075 l 7.876390133998948 -11.242928830478787" fill="#ffa20f" stroke="none" /><path d="M 87.65650970185807 116.9893568818739 l -24.902111895724317 34.274816594825104 a63.36600322754169,63.36600322754169 0 0,0 -0.8769101382109228,-0.6487171562878713 l 25.488407004353807 -33.84108948979747" fill="#33ff51" stroke="none" /><path d="M 87.07902340077011 116.55440617244103 l -8.346158526280387 10.693131216711775 a34.564712210866055,34.564712210866055 0 0,0 -0.46587060988887985,-0.3701157880188818 l 8.528986628886626 -10.547881514687763" fill="#ffa00e" stroke="none" /><path d="M 86.79598089348748 116.32954008644616 l -8.234932626191835 10.184222042079442 a34.097041420118344,34.097041420118344 0 0,0 -0.45321441850495503,-0.372964611749051 l 8.40901717324148 -10.04096231147321" fill="#ff9a0e" stroke="none" /><path d="M 86.51685102203217 116.09983520530335 l -8.877554786999804 10.600429419737116 a34.82678859601937,34.82678859601937 0 0,0 -0.4562881848913043,-0.3888586901251429 l 9.058708448468165 -10.44604633938902" fill="#ffa30f" stroke="none" /><path d="M 85.44109423537348 115.13401014063109 l -9.397895060544283 9.76912973036972 a34.55567509413663,34.55567509413663 0 0,0 -0.42511715744079903,-0.4160666138568367 l 9.564662170360876 -9.605913013590312" fill="#ffa00e" stroke="none" /><path d="M 85.18274418774928 114.88116024355367 l -15.949074169076763 16.01785995016185 a43.604088219472835,43.604088219472835 0 0,0 -0.5273174756781289,-0.5341698188459572 l 16.222432269810426 -15.740949637335227" fill="#ebff1a" stroke="none" /><path d="M 84.43433777217949 114.09645910891817 l -10.05948714389648 9.109997834025975 a34.571490048413125,34.571490048413125 0 0,0 -0.39566436607650646,-0.4445331096961051 l 10.214810359621325 -8.935490554589006" fill="#ffa00e" stroke="none" /><path d="M 83.72743513129214 113.27417163493432 l -10.516331056086935 8.578585154497095 a34.571490048413125,34.571490048413125 0 0,0 -0.37219022159618265,-0.46436452830397756 l 10.662439189737979 -8.396292792614856" fill="#ffa00e" stroke="none" /><path d="M 83.50135304334701 112.99209946851258 l -10.655339180289179 8.390701786926417 a34.5624529316837,34.5624529316837 0 0,0 -0.3640466175576104,-0.4705793271711093 l 10.798192615064856 -8.206044465642055" fill="#ffa00e" stroke="none" /><path d="M 83.28015986056508 112.70617746262583 l -10.799991414434349 8.207411456224369 a34.564712210866055,34.564712210866055 0 0,0 -0.35591569454888583,-0.47680723575977374 l 10.93966837567832 -8.020291340955287" fill="#ffa00e" stroke="none" /><path d="M 83.06392112726016 112.41649034213515 l -10.9360242489709 8.01761969160787 a34.56019365250135,34.56019365250135 0 0,0 -0.34761006089621654,-0.4827999717497514 l 11.072414102242725 -7.82818611440698" fill="#ffa00e" stroke="none" /><path d="M 82.85270091963577 112.12312394758628 l -21.10067852406735 14.918159409627961 a46.84163528778913,46.84163528778913 0 0,0 -0.4598043907270014,-0.6623825186741977 l 21.354343821956487 -14.55273562876675" fill="#c4ff1e" stroke="none" /><path d="M 82.44556493220864 111.52570212397912 l -20.02093234574032 13.14512837184536 a44.95061861215707,44.95061861215707 0 0,0 -0.4191005958311242,-0.6504534317334981 l 20.24423780494849 -12.798553340190413" fill="#daff1b" stroke="none" /><path d="M 82.24976979558568 111.22182372390057 l -11.469379516698485 7.251024560058828 a34.56923076923077,34.56923076923077 0 0,0 -0.3136505162389034,-0.505704500675642 l 11.592494672605344 -7.052523728017921" fill="#ffa00e" stroke="none" /><path d="M 82.05923443525364 110.91462005526583 l -11.592494672605344 7.052523728017921 a34.56923076923077,34.56923076923077 0 0,0 -0.30489917385060294,-0.5110285531413248 l 11.71217472215418 -6.851933080990485" fill="#ffa00e" stroke="none" /><line stroke="#e1ed5e" stroke-width="0.3" x1="26.63291911575756" x2="22.317208475507996" y1="142.92168965132927" y2="145.44649492493687" /><path d="M 25.769776987707644 143.4266507060508 a86.0,86.0 0 0,1 -11.730757126820373,-40.83630448921669" fill="none" id="id33" stroke="none" /><text fill="#e1ed5e" style="font-size:6.75px; font-family:Arial;" text-anchor="middle"><textPath startOffset="21.46611528233685" xlink:href="#id33">September</textPath></text><path d="M 81.51974371655577 109.97397251340807 l -12.082250396394908 6.520907042924245 a34.729639591178056,34.729639591178056 0 0,0 -0.27940407138967743,-0.5285272068957578 l 12.192706976009472 -6.311964820942361" fill="#ffa20f" stroke="none" /><path d="M 81.18737489456691 109.33194174019688 l -42.20949936243217 20.937885421388483 a68.11726734803658,68.11726734803658 0 0,0 -0.5120042294853387,-1.0548803633831807 l 42.563656848532226 -20.20821610204002" fill="#39ff89" stroke="none" /><path d="M 80.87730276802145 108.67885076344099 l -16.464652603283945 7.4724951758814715 a39.081011296395914,39.081011296395914 0 0,0 -0.27274622015258965,-0.6149707235448464 l 16.590839908167816 -7.187976115843929" fill="#ffdb14" stroke="none" /><path d="M 80.58989483394504 108.01547362559985 l -15.776583596508361 6.514997659107785 a38.06885422270038,38.06885422270038 0 0,0 -0.24490488970016308,-0.6078338517319775 l 15.886391100465913 -6.242464439533003" fill="#ffce13" stroke="none" /><path d="M 80.45479744820244 107.68017299344265 l -47.22600366980329 18.557181846124646 a71.74115115653578,71.74115115653578 0 0,0 -0.44174005871841987,-1.1532439008907915 l 47.53843800811522 -17.741514378400694" fill="#3dffb1" stroke="none" /><path d="M 80.32549172779594 107.34259656027581 l -34.0806086810928 12.71900454190434 a57.376654115115656,57.376654115115656 0 0,0 -0.3373630841862637,-0.9282783160013609 l 34.294496026284286 -12.130478428896861" fill="#50ff2b" stroke="none" /><path d="M 79.97269907076064 106.31721596034903 l -17.243516873233197 5.4391263400401595 a39.081011296395914,39.081011296395914 0 0,0 -0.1968440332640083,-0.6432976900263235 l 17.334587679003338 -5.141501677461788" fill="#ffdb14" stroke="none" /><path d="M 79.86692584326677 105.97154293290107 l -17.42339413843594 5.16784199593935 a39.17364174287251,39.17364174287251 0 0,0 -0.18618180409164514,-0.6481232848010554 l 17.509768579413688 -4.867161235633699" fill="#ffdc14" stroke="none" /><path d="M 79.67330655649465 105.27499134158121 l -17.49473346401751 4.540067857197385 a39.074233458848845,39.074233458848845 0 0,0 -0.16334645715620902,-0.6524878986145356 l 17.57029123546878 -4.238252119185457" fill="#ffdb14" stroke="none" /><path d="M 79.35854240842038 103.8639653848113 l -8.587468155636193 1.6075259971022355 a29.73663259817106,29.73663259817106 0 0,0 -0.08985214910506704,-0.5039385694297409 l 8.613866747080449 -1.459468676939281" fill="#ff5e08" stroke="none" /><path d="M 79.29508885075956 103.50808413554451 l -17.82025704076638 3.019330079005495 a39.074233458848845,39.074233458848845 0 0,0 -0.1066507862637414,-0.664114547870454 l 17.869589581391413 -2.7121363014418276" fill="#ffdb14" stroke="none" /><path d="M 79.18660465613746 102.79330883721812 l -16.390968683924026 2.1997870563137885 a37.53792361484669,37.53792361484669 0 0,0 -0.08043570993691429,-0.6411517495981394 l 16.42640590310779 -1.9173175524282404" fill="#ffc712" stroke="none" /><path d="M 79.07016306316243 101.71520430193888 l -34.41770388160971 2.8205376821017523 a55.53308230231307,55.53308230231307 0 0,0 -0.06987500678113363,-0.9533889515771514 l 34.46115544705518 -2.2276755940278403" fill="#63ff29" stroke="none" /><path d="M 79.04373962182676 101.35467743843564 l -16.586896998625118 1.0722282855912868 a37.621516944593864,37.621516944593864 0 0,0 -0.03621276869508588,-0.646603311412834 l 16.602896118207735 -0.7865532578430151" fill="#ffc812" stroke="none" /><path d="M 79.0235259727143 100.99374915477108 l -16.58709888117804 0.7858048722503956 a37.60570199031737,37.60570199031737 0 0,0 -0.02506664859513304,-0.6468588190911267 l 16.598167662624373 -0.5001688061452721" fill="#ffc812" stroke="none" /><path d="M 79.0095281055655 100.63252640178507 l -37.771558139463316 1.1382072723246017 a58.78870360408822,58.78870360408822 0 0,0 -0.021774040545822593,-1.0117541047149068 l 37.78555424269415 -0.4878633518195662" fill="#42ff2d" stroke="none" /><line stroke="#e1ed5e" stroke-width="0.3" x1="15.007084014347285" x2="10.007500721073583" y1="101.09737516637583" y2="101.16192664675087" /><path d="M 14.007167355692545 101.11028546245083 a86.0,86.0 0 0,1 10.666146001902534,-42.60595125391555" fill="none" id="id34" stroke="none" /><text fill="#e1ed5e" style="font-size:6.75px; font-family:Arial;" text-anchor="middle"><textPath startOffset="22.20632615414155" xlink:href="#id34">October</textPath></text><path d="M 79.00175016825051 100.2711162175752 l -8.390263569135838 0.10832981517744043 a29.390962883270575,29.390962883270575 0 0,0 -0.0021773143153152553,-0.5059311670842804 l 8.390885180740657 0.03611083011051539" fill="#ff5908" stroke="none" /><path d="M 79.00486145842228 99.54816195383935 l -16.362429649832052 -0.3521371496920641 a37.36621839698763,37.36621839698763 0 0,0 0.019374038235404657,-0.6429300087937619 l 16.353943917141002 0.6337373059108204" fill="#ffc512" stroke="none" /><path d="M 79.03285615573316 98.82574320788736 l -37.45437938571348 -2.097618050160124 a58.51307154384077,58.51307154384077 0 0,0 0.06497572604375504,-1.00514572295979 l 37.412723068665315 2.7420228373729256" fill="#44ff2d" stroke="none" /><path d="M 79.08570108090925 98.10471618934814 l -62.742896757272284 -5.685851431955563 a84.0,84.0 0 0,0 0.1428914972710853,-1.4388978771822787 l 62.635728134318974 6.7650248398422725" fill="#4dd2ff" stroke="none" /><path d="M 79.12142395522702 97.74499172005258 l -23.863796869248866 -2.5774295821583033 a45.00258203335126,45.00258203335126 0 0,0 0.08981153937832301,-0.7694504224106593 l 23.815894976866954 2.9878237428938244" fill="#daff1c" stroke="none" /><path d="M 79.26566170972629 96.67025291283419 l -16.40901478894604 -2.635139276298193 a37.61925766541151,37.61925766541151 0 0,0 0.10817890197168009,-0.6384780030933995 l 16.36122402545414 2.9172030677074203" fill="#ffc812" stroke="none" /><path d="M 79.32604984820605 96.31383870115002 l -16.394587043450574 -2.9231516873397765 a37.65314685314685,37.65314685314685 0 0,0 0.11926056216441594,-0.6370946918782961 l 16.3418407573763 3.2049244566806454" fill="#ffc912" stroke="none" /><path d="M 79.3925641242962 95.95851677861259 l -16.33075553097732 -3.2027504474168547 a37.64185045723507,37.64185045723507 0 0,0 0.13017036586985212,-0.6347569330458904 l 16.273205869192473 3.483383036626148" fill="#ffc912" stroke="none" /><path d="M 79.46518482838121 95.60439243477599 l -16.452153693711157 -3.521687954623259 a37.82485207100592,37.82485207100592 0 0,0 0.14176324613360805,-0.635496835437825 l 16.38909606057551 3.8043629596110433" fill="#ffcb12" stroke="none" /><path d="M 79.54389044137918 95.25157060432595 l -16.334076938578136 -3.791591498084215 a37.76837009144701,37.76837009144701 0 0,0 0.1524532843507218,-0.632017286966096 l 16.266390853966602 4.072194016709708" fill="#ffca12" stroke="none" /><path d="M 79.62865764111835 94.90015583598534 l -26.33261736868886 -6.592213838691343 a48.145239376008604,48.145239376008604 0 0,0 0.20817925420589029,-0.8021995881176667 l 26.215241782612665 7.044509852357874" fill="#b5ff20" stroke="none" /><path d="M 79.71946130924805 94.55025226153421 l -14.524749442101747 -3.9030630118307417 a36.04002151694459,36.04002151694459 0 0,0 0.16615004151967863,-0.5977301008995188 l 14.455412630015708 4.1525044161492035" fill="#ffb410" stroke="none" /><path d="M 79.81627453868168 94.20196356495316 l -15.947206001928103 -4.5810413748234575 a37.59214631522324,37.59214631522324 0 0,0 0.18401195029137257,-0.6203968191419402 l 15.865988154525024 4.854867580711937" fill="#ffc812" stroke="none" /><path d="M 79.91906864156998 93.8553929516997 l -16.1360383341704 -4.937500811592791 a37.874556213017755,37.874556213017755 0 0,0 0.19612620442278977,-0.6217736643386323 l 16.048656645979406 5.214524642357838" fill="#ffcc13" stroke="none" /><path d="M 80.02781315780177 93.51064311812611 l -15.696269487063802 -5.100027113726603 a37.50403442711135,37.50403442711135 0 0,0 0.204776861042343,-0.6122567500257614 l 15.606155332249687 5.3694569666746865" fill="#ffc712" stroke="none" /><path d="M 80.14247586403 93.16781622104843 l -15.60829169848271 -5.370192005273821 a37.506293706293704,37.506293706293704 0 0,0 0.2152984836445779,-0.6086778056688359 l 15.513540134028323 5.638067437369267" fill="#ffc712" stroke="none" /><path d="M 80.65960295795068 91.81776055985345 l -2.0869734516595444 -0.8829248153272703 a23.266057019903172,23.266057019903172 0 0,0 0.1592165970995238,-0.367493857885659 l 2.0714661447173395 0.9187178177995285" fill="#ff0000" stroke="none" /><path d="M 81.26839172434947 90.50648371742162 l -14.106644209742194 -7.149501234862686 a36.81495427649274,36.81495427649274 0 0,0 0.2913475294949911,-0.562790692928223 l 13.98148724708709 7.3912646500512444" fill="#ffbe11" stroke="none" /><line stroke="#e1ed5e" stroke-width="0.3" x1="26.266209847984243" x2="21.928928074336255" y1="57.711370442889674" y2="55.22380399835377" /><path d="M 25.398753493254645 57.213857153982495 a86.0,86.0 0 0,1 29.58750427330803,-30.492523968695096" fill="none" id="id35" stroke="none" /><text fill="#e1ed5e" style="font-size:6.75px; font-family:Arial;" text-anchor="middle"><textPath startOffset="21.46611528233685" xlink:href="#id35">November</textPath></text><path d="M 81.96595687620814 89.24020034530311 l -9.710638605118696 -5.793738275606019 a32.30769230769231,32.30769230769231 0 0,0 0.2890526180212047,-0.475126502758347 l 9.609470188811274 5.960032551571441" fill="#ff810b" stroke="none" /><path d="M 83.17141714833178 87.43820079747576 l -9.432696789369706 -7.041094550312131 a32.77084454007531,32.77084454007531 0 0,0 0.34132248381380326,-0.4491403793271339 l 9.310098365331793 7.202419705520292" fill="#ff880c" stroke="none" /><path d="M 85.05521093208273 85.24692304244772 l -17.702219218694914 -17.47513472863375 a45.87466379774072,45.87466379774072 0 0,0 0.5595926925877036,-0.55718962372776 l 17.398790725939897 17.777260203011622" fill="#cfff1d" stroke="none" /><path d="M 85.83668400450813 84.49514656593479 l -11.141706999358426 -12.197040162440546 a37.51984938138784,37.51984938138784 0 0,0 0.4805917728879724,-0.43148003887773934 l 10.930104238874483 12.387019210087564" fill="#ffc712" stroke="none" /><path d="M 86.10567301691215 84.25364557470407 l -36.91451370062984 -41.834988976082116 a76.79289940828403,76.79289940828403 0 0,0 0.9986960499188994,-0.8660593731753693 l 36.188923852064164 42.46421334267717" fill="#44ffe6" stroke="none" /><path d="M 86.93701828274178 83.55741782278169 l -10.946483549835861 -13.778512380672773 a38.5975255513717,38.5975255513717 0 0,0 0.5237637254068178,-0.40880589548256907 l 10.707687269269618 13.964896665378562" fill="#ffd513" stroke="none" /><path d="M 87.22198572758235 83.33499621200491 l -10.315892318474676 -13.453920217871458 a37.95363098440022,37.95363098440022 0 0,0 0.5218693774085861,-0.3930611955773161 l 10.082776787307699 13.629498002954628" fill="#ffcd13" stroke="none" /><path d="M 87.51073957382395 83.11751280151077 l -9.91750739167352 -13.406093384835831 a37.67573964497041,37.67573964497041 0 0,0 0.5246879294765289,-0.38120809469577693 l 9.685274145843211 13.574820714348276" fill="#ffc912" stroke="none" /><path d="M 87.80319425747018 82.90503203632743 l -9.900473300418238 -13.876442526725066 a38.04626143087681,38.04626143087681 0 0,0 0.5363958697591351,-0.37577958556806956 l 9.660146291075442 14.044806955057078" fill="#ffce13" stroke="none" /><path d="M 88.09926311788651 82.69761687909137 l -11.827757645719675 -17.196279211506603 a41.8712210866057,41.8712210866057 0 0,0 0.5973533941434753,-0.4033356782537744 l 11.52999955716966 17.397326802059045" fill="#fffe18" stroke="none" /><path d="M 88.39885842347998 82.49532879139004 l -28.421860783272084 -42.885032034692415 a72.44830554061323,72.44830554061323 0 0,0 1.0454393097552732,-0.6799828078511233 l 27.679454447732525 43.367913766703076" fill="#3effb9" stroke="none" /><line stroke="#e1ed5e" stroke-width="0.3" x1="56.762969772571076" x2="54.21961505331055" y1="26.818313649435495" y2="22.513508569990535" /><path d="M 56.25429882871897 25.957352633546506 a86.0,86.0 0 0,1 42.265352541879196,-11.944610805530505" fill="none" id="id36" stroke="none" /><text fill="#e1ed5e" style="font-size:6.75px; font-family:Arial;" text-anchor="middle"><textPath startOffset="22.20632615414155" xlink:href="#id36">December</textPath></text><path d="M 89.3179101791058 81.91981866633112 l -2.308802415296014 -3.907808961736499 a25.538891877353414,25.538891877353414 0 0,0 0.38041184897385916,-0.2203590968115015 l 2.2411938338568347 3.946972215938048" fill="#ff2203" stroke="none" /><path d="M 90.91171255644093 81.06846463323043 l -6.137405086952152 -12.78464201153443 a35.181495427649274,35.181495427649274 0 0,0 0.5481977077614305,-0.25738617432273286 l 5.916429167891113 12.88839316849717" fill="#ffa80f" stroke="none" /><path d="M 91.23893434514133 80.91482961587045 l -5.944705872532937 -12.949991351555145 a35.249273803119955,35.249273803119955 0 0,0 0.5536114672061738,-0.24838932794847934 l 5.720912286859988 13.050401010020153" fill="#ffa90f" stroke="none" /><path d="M 91.56875222667455 80.76684994638697 l -5.909583565703636 -13.480793179052055 a35.71920387305003,35.71920387305003 0 0,0 0.5652415050387549,-0.24200691370719213 l 5.676658302874573 13.580519620722033" fill="#ffaf10" stroke="none" /><path d="M 91.90106846888425 80.62456947434976 l -5.707154548553869 -13.653477132115016 a35.79827864443249,35.79827864443249 0 0,0 0.5705838715838742,-0.23275548772686638 l 5.471286807381614 13.749693506025459" fill="#ffb010" stroke="none" /><path d="M 92.23578459929587 80.48803036053334 l -5.862212338046436 -14.732114355005594 a36.855621301775145,36.855621301775145 0 0,0 0.5914745163378461,-0.22948292323113864 l 5.607754656708914 14.830839982127284" fill="#ffbe11" stroke="none" /><path d="M 93.25333710446033 80.11325718540243 l -11.393476866195392 -33.58388401944467 a56.46390532544379,56.46390532544379 0 0,0 0.9230966010239599,-0.30433043607458066 l 10.813697442929024 33.77502817977848" fill="#59ff2a" stroke="none" /><path d="M 93.59665428221793 80.00007090966166 l -4.559154594973835 -14.23986344484768 a35.95190962883271,35.95190962883271 0 0,0 0.5910059563264308,-0.18362842750020184 l 4.313363265936676 14.316232007230406" fill="#ffb210" stroke="none" /><path d="M 93.94186890950719 79.89281104454417 l -4.553211812607074 -15.112299305305472 a36.783324367939755,36.783324367939755 0 0,0 0.6078177800155974,-0.17743867744751635 l 4.292403814868055 15.188436311671687" fill="#ffbd11" stroke="none" /><path d="M 94.28887869178378 79.79150937346287 l -4.14494075795876 -14.666646343907413 a36.24109736417429,36.24109736417429 0 0,0 0.6017784356064838,-0.1644887787633552 l 3.891864433128553 14.735821663497063" fill="#ffb610" stroke="none" /><path d="M 94.63758080256005 79.69619591428918 l -4.215513402441496 -15.9612583597944 a37.50855298547606,37.50855298547606 0 0,0 0.6256625099571425,-0.15949530474497398 l 3.940142003799354 16.031456660708237" fill="#ffc712" stroke="none" /><path d="M 95.33964822691252 79.52364482259891 l -10.844906815694705 -47.6496570723169 a69.86820871436257,69.86820871436257 0 0,0 1.1749745837065482,-0.2568039345223535 l 10.023089507834635 47.82927450493512" fill="#3bff9c" stroke="none" /><path d="M 95.692805502759 79.44645832069477 l -3.179307309905383 -15.171366268070265 a36.50091447014524,36.50091447014524 0 0,0 0.6160547701612635,-0.12357479135197252 l 2.9176861302769828 15.22384501549945" fill="#ffba11" stroke="none" /><path d="M 96.04723909329186 79.375362276772 l -2.765869492977918 -14.431699166420117 a35.69435180204411,35.69435180204411 0 0,0 0.6044326499941247,-0.11045620335015802 l 2.5170417218809003 14.477170851121011" fill="#ffaf10" stroke="none" /><path d="M 96.75951476605007 79.25152402106235 l -2.25212852192754 -14.420134999885661 a35.59494351802044,35.59494351802044 0 0,0 0.6061836162825862,-0.08933570758944961 l 2.003575925216305 14.456765191636078" fill="#ffae10" stroke="none" /><path d="M 98.55514903715128 79.0497635885617 l -1.0246861266378404 -14.857876108036713 a35.893168370091445,35.893168370091445 0 0,0 0.6167436826342022,-0.0372036631904327 l 0.7687803951640152 14.873313040607453" fill="#ffb210" stroke="none" /><path d="M 98.91598698831166 79.02799685794201 l -0.7706463669969378 -14.909413314977863 a35.92931683700915,35.92931683700915 0 0,0 0.617914388651165,-0.026608693392766836 l 0.5138911459564487 14.920469734894823" fill="#ffb210" stroke="none" /><path d="M 99.27714615592234 79.0124445844662 l -1.2243021051441239 -35.546754696799205 a56.567832167832165,56.567832167832165 0 0,0 0.9734337071533747,-0.025140920746594863 l 0.61224176279587 35.562562409688155" fill="#58ff2a" stroke="none" /></svg>