<?xml version="1.0" encoding="utf-8" ?>
<svg baseProfile="full" height="200mm" version="1.1" viewBox="0,0,200,200" width="200mm" xmlns="http://www.w3.org/2000/svg" xmlns:ev="http://www.w3.org/2001/xml-events" xmlns:xlink="http://www.w3.org/1999/xlink"><defs /><rect fill="#1a1a1a" height="200" width="200" x="0" y="0" /><text alignment-baseline="middle" fill="#e1ed5e" style="dominant-baseline: central; font-size:9.0px; font-family:Arial;" text-anchor="middle" x="100.0" y="100.0">2020</text><line stroke="#e1ed5e" stroke-width="0.3" x1="100.0" x2="100.0" y1="15.0" y2="10.0" /><path d="M 100.0 14.0 a86.0,86.0 0 0,1 42.35913384403234,11.155469271406648" fill="none" id="id13" stroke="none" /><text fill="#e1ed5e" style="font-size:6.75px; font-family:Arial;" text-anchor="middle"><textPath startOffset="22.145653131862478" xlink:href="#id13">January</textPath></text><path d="M 101.08105385017728 79.02784411241856 l 1.152363605874392 -22.35554609755109 a43.38522689632329,43.38522689632329 0 0,0 0.7434485206026922,0.04472401685392318 l -1.5359564786095465 22.332470102872474" fill="#f3ff19" stroke="none" /><path d="M 101.80034050326958 79.07731436759882 l 1.8546923341069441 -21.554336294090106 a42.63398476316661,42.63398476316661 0 0,0 0.7286359879112954,0.06900258561517998 l -2.2244278854032524 21.51932195296974" fill="#fdff18" stroke="none" /><path d="M 102.15924093988457 79.11130261209362 l 2.021510528349794 -19.556280595264642 a40.66048360384234,40.66048360384234 0 0,0 0.6936757856574365,0.07772781865214436 l -2.356922215608027 19.518697016105524" fill="#ffe815" stroke="none" /><path d="M 102.87502721639298 79.19773525538626 l 4.090720360087093 -29.598414735522198 a50.87976151043392,50.87976151043392 0 0,0 0.8641682649257307,0.1270029756755133 l -4.598213730620506 29.5238306865478" fill="#9aff22" stroke="none" /><path d="M 103.23170211078529 79.25015418208739 l 3.2375131494551432 -20.7871568547309 a42.0377608479629,42.0377608479629 0 0,0 0.7120846311854874,0.11717325508159018 l -3.593875283693701 20.72851760115364" fill="#fffa17" stroke="none" /><path d="M 104.29559338865022 79.4440306129975 l 4.346003039924775 -20.797197816850453 a42.246439218284195,42.246439218284195 0 0,0 0.7086087455569077,0.15443797799191217 l -4.702374202100817 20.719528380724825" fill="#fffc17" stroke="none" /><path d="M 104.9986988182912 79.60360301121754 l 5.353974719728446 -21.84604390484507 a43.49254720105995,43.49254720105995 0 0,0 0.7236221798188112,0.18394192840741988 l -5.728202192772651 21.750916744602385" fill="#f2ff19" stroke="none" /><path d="M 105.3480935250658 79.69241777938227 l 6.165504308483327 -23.411424106416963 a45.20967207684664,45.20967207684664 0 0,0 0.7487983240938445,0.20408831299002098 l -6.566484033511865 23.3021352992828" fill="#ddff1b" stroke="none" /><path d="M 107.74402155503746 80.48000691201159 l 8.801207103056349 -22.184791273709628 a44.866843325604506,44.866843325604506 0 0,0 0.7134801032882438,0.29016614669892177 l -9.180741667535033 22.03043787043141" fill="#e1ff1b" stroke="none" /><path d="M 109.06512990194946 81.05736502329252 l 1.3035976800276532 -2.724017777609143 a24.01987413050679,24.01987413050679 0 0,0 0.37040905005618296,0.1811856278166834 l -1.350166979345903 2.7012383996952387" fill="#ff0000" stroke="none" /><line stroke="#e1ed5e" stroke-width="0.3" x1="143.13028292997686" x2="145.6673583964461" y1="26.7553504044142" y2="22.446841604673864" /><path d="M 143.63769802327073 25.89364864446614 a86.0,86.0 0 0,1 29.32050498858742,28.57503671076993" fill="none" id="id14" stroke="none" /><text fill="#e1ed5e" style="font-size:6.75px; font-family:Arial;" text-anchor="middle"><textPath startOffset="20.669276256404974" xlink:href="#id14">February</textPath></text><path d="M 110.65571695917076 81.90426304109057 l 12.124010518301274 -20.589220421945647 a44.893673401788675,44.893673401788675 0 0,0 0.6607220898238886,0.39674463085166134 l -12.475665364682598 20.378061790558064" fill="#e1ff1b" stroke="none" /><path d="M 111.27062007382361 82.28071324371311 l 1.6799533067971595 -2.641165631112655 a24.130175554819477,24.130175554819477 0 0,0 0.3476059429282682,0.2253139725502449 l -1.7250448819824349 2.6119378168585152" fill="#ff0200" stroke="none" /><path d="M 112.7482090630111 83.31218511350987 l 12.823613697131977 -16.786521973075622 a42.12421331566744,42.12421331566744 0 0,0 0.5708634380811117,0.44390686228850873 l -13.109887079848315 16.563914059166326" fill="#fffb17" stroke="none" /><path d="M 113.31354834802062 83.75963576809568 l 13.556723934181411 -16.536998907223268 a42.38357071878106,42.38357071878106 0 0,0 0.5587076278487179,0.46609377427676685 l -13.838605896192023 16.30184294903463" fill="#fffe18" stroke="none" /><path d="M 115.6541949942343 86.00192230759917 l 2.4555745235360216 -2.1957898807698277 a24.2941371315005,24.2941371315005 0 0,0 0.27532075466523387,0.31326447887519004 l -2.4929063421598454 2.15331312408334" fill="#ff0400" stroke="none" /><path d="M 116.7966241395341 87.39550010848427 l 18.140640200668454 -13.613074600101978 a43.68035773434912,43.68035773434912 0 0,0 0.44491144301110924,0.6036078201612672 l -18.37165366326339 13.299660470671835" fill="#f0ff19" stroke="none" /><path d="M 117.21940702142032 87.97951657250589 l 24.710782034666828 -17.250044996243503 a51.136137793971514,51.136137793971514 0 0,0 0.49628903343034,0.7241005315523255 l -25.003260804912493 16.82330972962113" fill="#97ff23" stroke="none" /><path d="M 117.62189284568427 88.57770195909679 l 20.27772631530545 -13.143777209041996 a45.16495528320636,45.16495528320636 0 0,0 0.4161247526575345,0.6542172276619355 l -20.500368759588877 12.793746306701388" fill="#deff1b" stroke="none" /><line stroke="#e1ed5e" stroke-width="0.3" x1="172.87174338648825" x2="177.1583165268699" y1="56.24261187166439" y2="53.66864786411523" /><path d="M 173.72905801456457 55.72781907015455 a86.0,86.0 0 0,1 12.242430191666344,42.057860355516425" fill="none" id="id15" stroke="none" /><text fill="#e1ed5e" style="font-size:6.75px; font-family:Arial;" text-anchor="middle"><textPath startOffset="22.145653131862474" xlink:href="#id15">March</textPath></text><path d="M 118.00360718960297 89.18935116829356 l 19.198849743287404 -11.528357643086002 a43.39417025505134,43.39417025505134 0 0,0 0.3779968841311302,0.6419213472667715 l -19.393920337548302 11.197085127525673" fill="#f3ff19" stroke="none" /><path d="M 118.36410011445183 89.81374322990088 l 18.715166997820905 -10.380987652374237 a42.401457436237166,42.401457436237166 0 0,0 0.3476003847969237,0.6395455569790696 l -18.89061273223317 10.058187261920565" fill="#fffe18" stroke="none" /><path d="M 118.70294669586156 90.45014215332178 l 19.39768067382262 -9.904593966000721 a42.78005962239152,42.78005962239152 0 0,0 0.3283473201306729,0.6569145914112705 l -19.564847907165028 9.570147518425701" fill="#fbff18" stroke="none" /><path d="M 119.0197475246899 91.09779779509293 l 27.280868166772358 -12.768823793836335 a51.12123219609142,51.12123219609142 0 0,0 0.3651894764364681,0.798004912220961 l -27.496042108063875 12.298629899400689" fill="#98ff23" stroke="none" /><path d="M 119.4528033332814 92.08871423366111 l 19.924096349258306 -8.102956533024427 a42.508777740973834,42.508777740973834 0 0,0 0.2691034875455037,0.67831658002357 l -20.060258511769934 7.759738935787293" fill="#feff18" stroke="none" /><path d="M 120.16314734710363 94.1308016681162 l 8.641348863044415 -2.5153707136644856 a30.0,30.0 0 0,0 0.1396878684648828,0.49570296585283835 l -8.683255223583881 2.366659823908634" fill="#ff5808" stroke="none" /><path d="M 120.26092885502905 94.47779374421319 l 8.674626616207018 -2.3643080585983576 a29.991056641271946,29.991056641271946 0 0,0 0.13111878483094855,0.4978793828384312 l -8.713934881842697 2.2150481713871275" fill="#ff5808" stroke="none" /><path d="M 120.35273937422433 94.82641323984039 l 8.763051888802684 -2.227533522485795 a30.04173567406426,30.04173567406426 0 0,0 0.12275979266358228,0.5009018459493718 l -8.799999207982557 2.076775851928328" fill="#ff5808" stroke="none" /><path d="M 120.43855184770803 95.1765574152323 l 8.747773693395125 -2.064450772688397 a29.988075521695926,29.988075521695926 0 0,0 0.11393917663903579,0.5020370354605624 l -8.781923731591826 1.9139794032888087" fill="#ff5808" stroke="none" /><path d="M 120.51834098615036 95.52812308129327 l 8.898433499175134 -1.939372164858146 a30.107320304736668,30.107320304736668 0 0,0 0.10572298667691925,0.5059227634010702 l -8.93041419667642 1.7863329501716714" fill="#ff5908" stroke="none" /><path d="M 120.592083275326 95.88100663000786 l 10.231243760513083 -2.0465352947956954 a31.43391851606492,31.43391851606492 0 0,0 0.10129761019441302,0.5300319008328757 l -10.264867662989653 1.870600828929505" fill="#ff6c0a" stroke="none" /><path d="M 120.65975698304385 96.23510406497455 l 10.264867662989653 -1.870600828929505 a31.43391851606492,31.43391851606492 0 0,0 0.09218398136886158,0.5316927075958402 l -10.295466461850749 1.6941150884130722" fill="#ff6c0a" stroke="none" /><path d="M 120.7213421655516 96.59031103205396 l 12.383975372683327 -2.037778434919724 a33.55051341503809,33.55051341503809 0 0,0 0.08863487725054427,0.5690994943192518 l -12.417131742072138 1.8248907586690308" fill="#ff8a0c" stroke="none" /><path d="M 120.77682067341334 96.94652285012252 l 18.61095042576608 -2.7351688093115407 a39.810864524677044,39.810864524677044 0 0,0 0.09356592690335115,0.6769964372583149 l -18.655160869224645 2.41528406385314" fill="#ffdd14" stroke="none" /><path d="M 120.82617615685814 97.30363454192243 l 15.403072603591188 -1.9942361287915784 a36.53163299105664,36.53163299105664 0 0,0 0.07518195063814816,0.6226144018958297 l -15.435036640488999 1.7295280499723358" fill="#ffb210" stroke="none" /><path d="M 120.86939407059847 97.66154086499901 l 14.872146628647753 -1.6664550500693145 a35.96522027161312,35.96522027161312 0 0,0 0.06348307949231345,0.6141412068808908 l -14.898562100621733 1.4109093209054921" fill="#ffab0f" stroke="none" /><path d="M 120.9064616781168 98.02013634271609 l 10.417122106211611 -0.9865122940992584 a31.46372971182511,31.46372971182511 0 0,0 0.04630618580047476,0.5381480706451718 l -10.432521914709826 0.8075431760784247" fill="#ff6d0a" stroke="none" /><path d="M 120.93736805541906 98.37931529534042 l 15.66364401439338 -1.2124651105223068 a36.71050016561775,36.71050016561775 0 0,0 0.0432415408450747,0.6287225136737061 l -15.682149516403522 0.9433991726942664" fill="#ffb510" stroke="none" /><path d="M 120.96210409425399 98.7389718711861 l 18.509102465280815 -1.113461642155282 a39.54256376283537,39.54256376283537 0 0,0 0.034945101535731014,0.6779256341342808 l -18.525489156273117 0.7955642146442707" fill="#ffda14" stroke="none" /><path d="M 120.98066250479742 99.09900007780936 l 21.593214852569155 -0.9273055556544958 a42.61311692613448,42.61311692613448 0 0,0 0.02511193619051538,0.7311066226610914 l -21.605951475756516 0.5564926684292845" fill="#fdff18" stroke="none" /><path d="M 120.99303781780057 99.45929381324524 l 21.754958037658287 -0.5603305489012107 a42.76217290493541,42.76217290493541 0 0,0 0.012601744381517286,0.7339884334975236 l -21.761371213638473 0.18679519943462058" fill="#fbff18" stroke="none" /><line stroke="#e1ed5e" stroke-width="0.3" x1="184.99686870605535" x2="189.99668451229388" y1="99.2704041080226" y2="99.22748670261217" /><path d="M 185.99683186730306 99.26182062694052 a86.0,86.0 0 0,1 -10.086455211305974,41.156179273409016" fill="none" id="id16" stroke="none" /><text fill="#e1ed5e" style="font-size:6.75px; font-family:Arial;" text-anchor="middle"><textPath startOffset="21.40746469413373" xlink:href="#id16">April</textPath></text><path d="M 120.99922638620191 99.81974689727618 l 18.83998165345139 -0.16171858362010988 a39.84067572043723,39.84067572043723 0 0,0 0.0,0.6839433726878712 l -18.83998165345139 -0.16171858362010758" fill="#ffde14" stroke="none" /><path d="M 120.99922638620191 100.18025310272382 l 18.661121068133806 0.16018328061105588 a39.66180854587611,39.66180854587611 0 0,0 -0.011688086433651148,0.6807724385050142 l -18.655621550101486 -0.4805026350851412" fill="#ffdb14" stroke="none" /><path d="M 120.99303781780057 100.54070618675476 l 19.162243860567504 0.4935514286896898 a40.16859887379927,40.16859887379927 0 0,0 -0.02367138018863872,0.6891664064508093 l -19.15094779338202 -0.8224240997046098" fill="#ffe215" stroke="none" /><path d="M 120.98066250479742 100.90099992219065 l 18.373592058689535 0.7890410997010482 a39.390526664458434,39.390526664458434 0 0,0 -0.034810741207659084,0.6753190796643354 l -18.357339728025305 -1.1043319727421141" fill="#ffd814" stroke="none" /><path d="M 120.96210409425399 101.26102812881392 l 20.996821060292834 1.263116615280978 a42.03477972838688,42.03477972838688 0 0,0 -0.04951304494187004,0.7199088068351448 l -20.9720440541859 -1.6233688462704665" fill="#fffa17" stroke="none" /><path d="M 120.93736805541906 101.62068470465957 l 21.183072275252677 1.6397037652167819 a42.246439218284195,42.246439218284195 0 0,0 -0.062175447150345314,0.7225729424062509 l -21.15180320540459 -2.00309775499869" fill="#fffc17" stroke="none" /><path d="M 120.9064616781168 101.97986365728391 l 25.760860365218452 2.439580260051724 a46.87611791984101,46.87611791984101 0 0,0 -0.08274216862075269,0.800455423761287 l -25.715185804116032 -2.881440206095942" fill="#c9ff1d" stroke="none" /><path d="M 120.86939407059847 102.33845913500097 l 20.3232920064788 2.2772672596564703 a41.450480291487246,41.450480291487246 0 0,0 -0.08530491817776226,0.7064470948040438 l -20.28120500204137 -2.6258080313839227" fill="#fff216" stroke="none" /><path d="M 120.82617615685814 102.69636545807757 l 19.51252959380074 2.526287610369372 a40.675389201722425,40.675389201722425 0 0,0 -0.09559778563599965,0.6916979548784327 l -19.46628729160953 -2.8608738734478893" fill="#ffe815" stroke="none" /><path d="M 120.77682067341334 103.0534771498775 l 20.696202715943038 3.041629086361188 a41.91851606492216,41.91851606492216 0 0,0 -0.11074174871714014,0.7110414675343628 l -20.64093947508763 -3.396458735827001" fill="#fff817" stroke="none" /><path d="M 120.7213421655516 103.40968896794604 l 35.366398077380445 5.819527345140093 a56.842000662471015,56.842000662471015 0 0,0 -0.16669642785261024,0.9614606980020122 l -35.2612868320356 -6.425781076062694" fill="#59ff2a" stroke="none" /><path d="M 120.65975698304385 103.76489593502545 l 32.2844752097686 5.883306835673138 a53.81616429281219,53.81616429281219 0 0,0 -0.17342568442128908,0.9074364636109774 l -32.178723233065156 -6.43664586431743" fill="#7aff26" stroke="none" /><path d="M 120.592083275326 104.11899336999214 l 29.264280367570425 5.853675667485627 a50.84398807552169,50.84398807552169 0 0,0 -0.17854057483369928,0.854381282994878 l -29.159482081912362 -6.3551734017659145" fill="#9bff22" stroke="none" /><path d="M 120.51834098615036 104.47187691870673 l 18.379415836266805 4.005708137562973 a39.810864524677044,39.810864524677044 0 0,0 -0.15126069433659697,0.6664825287181736 l -18.307944280372546 -4.320625000220163" fill="#ffdd14" stroke="none" /><path d="M 120.16314734710363 105.8691983318838 l 29.20999176792589 8.50260289266183 a51.422325273269294,51.422325273269294 0 0,0 -0.2539863243482786,0.8454378691802982 l -29.05972912357398 -9.002778365432851" fill="#94ff23" stroke="none" /><path d="M 120.05942366710727 106.21446072829308 l 20.11827400862814 6.232692714530435 a42.06160980457105,42.06160980457105 0 0,0 -0.2195922164662072,0.6878694904609435 l -20.008317076384678 -6.577131238682762" fill="#fffa17" stroke="none" /><path d="M 119.58574465831526 107.57618678355244 l 23.55516425664794 9.111643557032558 a46.25604504802915,46.25604504802915 0 0,0 -0.29282571045293493,0.7381120782532439 l -23.395279871228883 -9.514656652499367" fill="#d0ff1d" stroke="none" /><path d="M 119.4528033332814 107.91128576633889 l 25.209573883905623 10.252514232845456 a48.214640609473335,48.214640609473335 0 0,0 -0.31838688416645633,0.7640126173240525 l -25.02986115520268 -10.683759359610788" fill="#b9ff1f" stroke="none" /><path d="M 119.31412917781788 108.2440532568976 l 27.448125755803925 11.715972718705617 a50.84398807552169,50.84398807552169 0 0,0 -0.3495309133923217,0.7997951326290224 l -27.242960960394637 -12.185429921110485" fill="#9bff22" stroke="none" /><path d="M 118.70294669586154 109.54985784667822 l 19.230413512249825 9.819186161475946 a42.59224908910235,42.59224908910235 0 0,0 -0.33808496416011574,0.6483224969504944 l -19.05902047911476 -10.147854901530943" fill="#fdff18" stroke="none" /><path d="M 118.5362547648365 109.86951160357373 l 11.680656068865167 6.21929144110118 a34.23318979794634,34.23318979794634 0 0,0 -0.2806382295817713,0.5163427334879059 l -11.572172489668057 -6.4188890080636885" fill="#ff930d" stroke="none" /><line stroke="#e1ed5e" stroke-width="0.3" x1="174.33088141563837" x2="178.70328620479359" y1="141.23008692659167" y2="143.65538615756765" /><path d="M 175.20536237346943 141.71514677278685 a86.0,86.0 0 0,1 -30.301960400862466,31.631185727798858" fill="none" id="id17" stroke="none" /><text fill="#e1ed5e" style="font-size:6.75px; font-family:Arial;" text-anchor="middle"><textPath startOffset="22.145653131862474" xlink:href="#id17">May</textPath></text><path d="M 118.36410011445183 110.18625677009912 l 18.47011536140982 10.245061640489128 a42.12123219609142,42.12123219609142 0 0,0 -0.3561583553434825,0.6292976874574545 l -18.291523641044957 -10.560616098045704" fill="#fffb17" stroke="none" /><path d="M 118.18653347947321 110.5 l 26.098660901527666 15.06806889698575 a51.136137793971514,51.136137793971514 0 0,0 -0.4454354269021092,0.7564467363655867 l -25.83615176449579 -15.513866801644886" fill="#97ff23" stroke="none" /><path d="M 117.81537515405839 111.11811171558189 l 53.44612546217515 33.35433514674567 a84.0,84.0 0 0,0 -0.7739292334964403,1.2167453012853122 l -52.865678537052815 -34.26689412270965" fill="#4dd2ff" stroke="none" /><path d="M 117.21940702142032 112.02048342749411 l 19.56280429552266 13.656356722221458 a44.857899966876445,44.857899966876445 0 0,0 -0.44619704832066037,0.6276320272502517 l -19.32549214867204 -13.990165976181215" fill="#e1ff1b" stroke="none" /><path d="M 116.57777611688842 112.89097897827486 l 23.53349186138515 18.299785612466078 a50.81119576018549,50.81119576018549 0 0,0 -0.5413414376569833,0.68396722225006 l -23.215883993086607 -18.70107277863082" fill="#9bff22" stroke="none" /><path d="M 115.89218393027572 113.72728997021213 l 23.5010003314743 20.299604356177493 a52.054322623385225,52.054322623385225 0 0,0 -0.5899215646426658,0.6712224501553598 l -23.14906770287305 -20.700039084144144" fill="#8dff24" stroke="none" /><path d="M 115.16444852881244 114.52719865689866 l 21.748888963222278 20.83494364699482 a51.118251076515406,51.118251076515406 0 0,0 -0.6124774606161065,0.6284558309114399 l -21.38802470145536 -21.205222169973997" fill="#98ff23" stroke="none" /><path d="M 114.65682725009322 115.03919595460226 l 20.806549827416667 21.349353079925603 a50.81119576018549,50.81119576018549 0 0,0 -0.6298834420219087,0.6034140889170856 l -20.436993899529444 -21.70337929914827" fill="#9bff22" stroke="none" /><path d="M 113.59037401385872 116.0094264158162 l 21.43797416959232 25.253879666760454 a54.12620072871812,54.12620072871812 0 0,0 -0.7135010264768722,0.5952279328303762 l -21.001298808953553 -25.6181697835027" fill="#76ff27" stroke="none" /><path d="M 112.7482090630111 116.68781488649013 l 14.85229997351992 19.442137430571783 a45.466048360384235,45.466048360384235 0 0,0 -0.6242856738454927,0.4684756081276801 l -14.51636131076366 -19.694232065963476" fill="#daff1c" stroke="none" /><path d="M 111.27062007382361 117.71928675628689 l 11.247687377889555 17.683232749259012 a41.9572706194104,41.9572706194104 0 0,0 -0.6110494482615751,0.3813400487370147 l -10.942473800838265 -17.873708594837574" fill="#fff917" stroke="none" /><line stroke="#e1ed5e" stroke-width="0.3" x1="143.1302829299769" x2="145.66735839644613" y1="173.24464959558577" y2="177.55315839532614" /><path d="M 143.63769802327073 174.10635135553383 a86.0,86.0 0 0,1 -40.68552437913181,11.842963189579606" fill="none" id="id18" stroke="none" /><text fill="#e1ed5e" style="font-size:6.75px; font-family:Arial;" text-anchor="middle"><textPath startOffset="21.407464694133747" xlink:href="#id18">June</textPath></text><path d="M 110.34350942703117 118.27599006163325 l 8.225666939416346 14.5339653137656 a37.70023186485591,37.70023186485591 0 0,0 -0.5659627239646965,0.31392998255723087 l -7.974960027295555 -14.673028211755975" fill="#ffc212" stroke="none" /><path d="M 109.3889696526874 118.78422872680471 l 13.471014472111596 26.951052819071855 a51.13017555481947,51.13017555481947 0 0,0 -0.7884753955647319,0.38568282697664613 l -13.006378827284795 -27.178329396145724" fill="#97ff23" stroke="none" /><path d="M 107.74402155503746 119.51999308798841 l 10.029154684134786 25.280021332757048 a48.19675389201723,48.19675389201723 0 0,0 -0.7716707388699587,0.2984988191704328 l -9.593711682771298 -25.448460040065523" fill="#b9ff1f" stroke="none" /><path d="M 105.69591212413111 120.21278271476187 l 8.733480365221235 30.992040803786917 a53.19907254057635,53.19907254057635 0 0,0 -0.8811250896493713,0.24015456137317046 l -8.20017387463717 -31.13739585930423" fill="#80ff25" stroke="none" /><path d="M 105.3480935250658 120.30758222061773 l 4.621281212380006 17.547757485009246 a39.14607485922491,39.14607485922491 0 0,0 -0.6513062546102635,0.1655595030086298 l -4.319369664544345 -17.624502219853145" fill="#ffd513" stroke="none" /><path d="M 103.94208987418118 120.62667999033965 l 4.536210739617557 23.735371409884053 a45.16495528320636,45.16495528320636 0 0,0 -0.7627828999844273,0.139004454012473 l -4.128093106082073 -23.80974403782789" fill="#deff1b" stroke="none" /><path d="M 103.58742460773223 120.69131181640829 l 3.4685963663366643 20.005942097414973 a41.30440543226234,41.30440543226234 0 0,0 -0.6996622016796479,0.11512914903368911 l -3.124656661603944 -20.062537244944334" fill="#fff016" stroke="none" /><path d="M 102.51750503828377 120.84855314841334 l 5.72058436773883 47.37464490322987 a68.71878105332891,68.71878105332891 0 0,0 -1.172355816055379,0.13136491448923188 l -4.906492650082653 -47.46586557822608" fill="#39ff8d" stroke="none" /><path d="M 102.15924093988457 120.88869738790638 l 3.322695091328541 32.144060902603286 a53.315336204041074,53.315336204041074 0 0,0 -0.9111855924716687,0.08629022296315615 l -2.770409935471857 -32.19636288107162" fill="#7fff26" stroke="none" /><path d="M 101.44090949804482 120.95050786540614 l 0.8186040521235065 11.902323258981971 a32.93044054322623,32.93044054322623 0 0,0 -0.5642954769640959,0.03394661462487769 l -0.6141642230269455 -11.91462185143154" fill="#ff810b" stroke="none" /><path d="M 101.08105385017728 120.97215588758144 l 0.21270155250258543 4.126353294873594 a25.13183173236171,25.13183173236171 0 0,0 -0.43103992280530073,0.018510708935896947 l -0.14183586909645515 -4.129396572235322" fill="#ff1101" stroke="none" /><line stroke="#e1ed5e" stroke-width="0.3" x1="101.45913802915013" x2="101.54496967792366" y1="184.9874750549273" y2="189.98673829345242" /><path d="M 101.47630435890484 185.9873277026323 a86.0,86.0 0 0,1 -42.54439059252881,-10.42667462771756" fill="none" id="id19" stroke="none" /><text fill="#e1ed5e" style="font-size:6.75px; font-family:Arial;" text-anchor="middle"><textPath startOffset="22.145653131862474" xlink:href="#id19">July</textPath></text><path d="M 100.36049292484886 120.99690560180557 l 0.36385340874585115 21.192636941584855 a42.195760185491885,42.195760185491885 0 0,0 -0.7243463335947008,0.006217642101466409 l -2.5957319866657545e-15 -21.195760185491885" fill="#fffc17" stroke="none" /><path d="M 99.63950707515114 120.99690560180557 l -0.3633928348107246 21.165810818873986 a42.168930109307716,42.168930109307716 0 0,0 -0.723672427203611,-0.01863923468193759 l 0.7266785760850795 -21.156453866842" fill="#fffb17" stroke="none" /><path d="M 98.91894614982273 120.97215588758144 l -1.0059586411648112 19.515328894586144 a40.54123882080159,40.54123882080159 0 0,0 -0.6947139886291797,-0.04179226842891337 l 1.340816981926437 -19.49518464833254" fill="#ffe715" stroke="none" /><path d="M 98.19965949673042 120.92268563240118 l -1.8679821234653 21.708783791305585 a42.78900298111958,42.78900298111958 0 0,0 -0.7312853262973191,-0.06925348071484361 l 2.2403670131476345 -21.673518555085558" fill="#fbff18" stroke="none" /><path d="M 96.05791012581884 120.62667999033965 l -5.600032182500967 29.30173472720328 a50.832063597217626,50.832063597217626 0 0,0 -0.8556815775871561,-0.17116028027766925 l 6.102210245619081 -29.201285050262747" fill="#9bff22" stroke="none" /><path d="M 95.35216902796893 120.47920084513623 l -2.7968800677291057 12.323569637420029 a33.63696588274263,33.63696588274263 0 0,0 -0.5620061797144179,-0.13263192814911276 l 3.0080184011834112 -12.27374156562469" fill="#ff8b0c" stroke="none" /><path d="M 95.00130118170881 120.39639698878247 l -7.60271506258058 31.02167188820546 a52.93971513746274,52.93971513746274 0 0,0 -0.8808026784374179,-0.2238965965067129 l 8.134123034243377 -30.886590059863487" fill="#83ff25" stroke="none" /><path d="M 93.61358852112213 120.00534299687104 l -9.086878661731832 28.464517984806474 a50.87976151043392,50.87976151043392 0 0,0 -0.8297695919632914,-0.2727617461966447 l 9.574170991342868 -28.30433531720781" fill="#9aff22" stroke="none" /><path d="M 93.27111125876986 119.89276391827306 l -9.754707588904852 28.838059688648716 a51.44319311030142,51.44319311030142 0 0,0 -0.834100491506235,-0.29014344884098997 l 10.248313852456109 -28.666357807239134" fill="#94ff23" stroke="none" /><path d="M 90.93487009805054 118.94263497670748 l -19.860239877459815 41.50026294357544 a67.00761841669427,67.00761841669427 0 0,0 -1.0333204974097447,-0.5054488356335676 l 20.569720624131627 -41.15322035784465" fill="#37ff79" stroke="none" /><path d="M 90.6110303473126 118.78422872680471 l -13.810888687050602 27.631028921660487 a51.89036104670421,51.89036104670421 0 0,0 -0.7933610660738393,-0.4050958132587027 l 14.283176974838023 -27.389875156728948" fill="#8fff24" stroke="none" /><path d="M 90.28995756902619 118.62028667847754 l -16.725735322590676 32.073802851934865 a57.17290493540908,57.17290493540908 0 0,0 -0.866336084972326,-0.4612751686737214 l 17.273860223349562 -31.781957215538572" fill="#55ff2b" stroke="none" /><line stroke="#e1ed5e" stroke-width="0.3" x1="58.13341422392154" x2="55.67067388415222" y1="173.97424548756322" y2="178.32567169271397" /><path d="M 57.64086615596768 174.84453072859336 a86.0,86.0 0 0,1 -31.369924170532247,-30.572349798747897" fill="none" id="id20" stroke="none" /><text fill="#e1ed5e" style="font-size:6.75px; font-family:Arial;" text-anchor="middle"><textPath startOffset="22.145653131862474" xlink:href="#id20">August</textPath></text><path d="M 89.03521579738668 117.91015095944536 l -15.619875475307529 25.513892709700578 a50.91553494534614,50.91553494534614 0 0,0 -0.741514142292751,-0.4627596669395154 l 16.055553746389993 -25.241997245919514" fill="#9aff23" stroke="none" /><path d="M 88.72937992617639 117.7192867562869 l -20.007443906189025 31.45502496863214 a58.27890029811196,58.27890029811196 0 0,0 -0.8395335560209576,-0.54417550805612 l 20.54446309446699 -31.10693561887213" fill="#4aff2c" stroke="none" /><path d="M 88.1277618465304 117.32195027204791 l -24.53715732877923 35.8004458445198 a64.40211990725406,64.40211990725406 0 0,0 -0.9065515611142888,-0.6328433960000752 l 25.148103981067283 -35.37395763271459" fill="#34ff5a" stroke="none" /><path d="M 87.54013794807813 116.9041958592261 l -9.827330747240515 13.332661552149757 a37.56310036435906,37.56310036435906 0 0,0 -0.5157717960622781,-0.3870447712294976 l 10.054755532213559 -13.161997753656244" fill="#ffc011" stroke="none" /><path d="M 86.96720088162412 116.46651593811092 l -18.54366330811737 23.429312816119683 a50.87976151043392,50.87976151043392 0 0,0 -0.6802120880267772,-0.5479307084270947 l 18.943126166499408 -23.10753381389918" fill="#9aff22" stroke="none" /><path d="M 86.13680546590413 115.77377054828092 l -9.950169625380493 11.321466506237872 a36.07254057634978,36.07254057634978 0 0,0 -0.46161682019991535,-0.4127806070933298 l 10.14305147240378 -11.14899036926116" fill="#ffac0f" stroke="none" /><path d="M 84.58840730492382 114.26474011684316 l -23.07691474201442 21.35964776687572 a52.44484928784365,52.44484928784365 0 0,0 -0.60586861982057,-0.6659557457432751 l 23.440181062676867 -20.960354445574772" fill="#89ff24" stroke="none" /><path d="M 84.3458050057657 113.99807769240083 l -11.79564667052416 10.547739988349537 a36.82378270950646,36.82378270950646 0 0,0 -0.4173168032407343,-0.47482991629899446 l 11.974974537723487 -10.343697794239242" fill="#ffb610" stroke="none" /><path d="M 83.4222238831116 112.89097897827486 l -26.395164471729576 20.525039542941954 a54.436237164624046,54.436237164624046 0 0,0 -0.5672982316071717,-0.7426115956916616 l 26.743614680691042 -20.068907034009424" fill="#73ff27" stroke="none" /><path d="M 83.20337586046588 112.60449989151573 l -12.284513448191893 9.218527910058539 a36.35872805564757,36.35872805564757 0 0,0 -0.37033611912398756,-0.502432070702738 l 12.440951586899711 -9.00628953008692" fill="#ffb010" stroke="none" /><path d="M 82.98947788004972 112.3143062007846 l -24.200934938646913 17.519610572696255 a50.8767803908579,50.8767803908579 0 0,0 -0.5060662504312944,-0.7118455576444473 l 24.49811628760817 -17.101587788342304" fill="#9aff22" stroke="none" /><path d="M 81.99639281039703 110.81064883170644 l -14.151228837670708 8.49740631919159 a37.50645909241471,37.50645909241471 0 0,0 -0.3267103527592845,-0.5548256046906694 l 14.295012900559762 -8.253229546207361" fill="#ffbf11" stroke="none" /><line stroke="#e1ed5e" stroke-width="0.3" x1="26.387840678322732" x2="22.057713659400548" y1="142.50000000000003" y2="145.00000000000006" /><path d="M 25.521815274538298 143.00000000000003 a86.0,86.0 0 0,1 -11.493303480769221,-40.785679425670985" fill="none" id="id21" stroke="none" /><text fill="#e1ed5e" style="font-size:6.75px; font-family:Arial;" text-anchor="middle"><textPath startOffset="21.40746469413373" xlink:href="#id21">September</textPath></text><path d="M 81.81346652052679 110.50000000000001 l -26.00571879128381 15.014408744617437 a51.02881748923485,51.02881748923485 0 0,0 -0.43147692421436523,-0.7623783817664274 l 26.259629080519556 -14.565773592751887" fill="#99ff23" stroke="none" /><path d="M 81.4637452351635 109.86951160357371 l -17.569664467630716 9.354856713726644 a40.904935409075854,40.904935409075854 0 0,0 -0.3246915557997061,-0.6226388704323212 l 17.72766409240537 -9.05187160018982" fill="#ffeb16" stroke="none" /><path d="M 81.29705330413844 109.54985784667822 l -28.533653736869926 14.56948690837801 a53.03809208347135,53.03809208347135 0 0,0 -0.4070802040522761,-0.814433100322522 l 28.77955385413394 -14.077521951891736" fill="#82ff25" stroke="none" /><path d="M 81.1358732173502 109.22738970284198 l -27.448630036742617 13.426500419362641 a51.55647565419013,51.55647565419013 0 0,0 -0.38205985706080003,-0.7983581581108302 l 27.675069151763328 -12.953329759186706" fill="#93ff23" stroke="none" /><path d="M 80.68587082218212 108.24405325689762 l -28.901277953444122 12.336236982107287 a52.423981450811524,52.423981450811524 0 0,0 -0.34618339779648744,-0.8307141310706365 l 29.108787195777094 -11.83829034159537" fill="#89ff24" stroke="none" /><path d="M 80.5471966667186 107.91128576633889 l -27.623109602443627 11.2340781981765 a50.820139118913545,50.820139118913545 0 0,0 -0.3217188872797267,-0.8109417582768108 l 27.81188716468948 -10.758235422686123" fill="#9bff22" stroke="none" /><path d="M 79.83685265289637 105.86919833188381 l -8.595551717695388 2.5020398321081347 a29.952302086783703,29.952302086783703 0 0,0 -0.13946577447064584,-0.4949148326179863 l 8.63723598424061 -2.3541170755871526" fill="#ff5708" stroke="none" /><path d="M 79.73907114497094 105.5222062557868 l -15.57463631523906 4.24493638504976 a37.14276250414044,37.14276250414044 0 0,0 -0.162385538564364,-0.6166043395425819 l 15.645211334608156 -3.976951541134376" fill="#ffba11" stroke="none" /><path d="M 79.64726062577567 105.17358676015961 l -26.21114630241278 6.662770892183021 a48.044716793640276,48.044716793640276 0 0,0 -0.19632552313744966,-0.8010751306498364 l 26.321659352066522 -6.211839936925085" fill="#bbff1f" stroke="none" /><path d="M 79.34024301695615 103.76489593502545 l -29.41324508346378 5.360073060952578 a50.89764822789003,50.89764822789003 0 0,0 -0.1492638550157459,-0.8609142504049233 l 29.500923755971762 -4.854365777627063" fill="#9aff23" stroke="none" /><path d="M 79.2786578344484 103.40968896794605 l -28.553740841481492 4.69850718949306 a49.937727724412056,49.937727724412056 0 0,0 -0.13192717238837381,-0.847067084901193 l 28.630189506008133 -4.207651922660417" fill="#a5ff21" stroke="none" /><path d="M 79.13060592940153 102.33845913500099 l -29.845020943624984 3.344196847489692 a51.03179860881086,51.03179860881086 0 0,0 -0.09007746103743146,-0.8714177238517984 l 29.89803079714408 -2.831374601354962" fill="#99ff23" stroke="none" /><path d="M 79.0935383218832 101.97986365728391 l -17.902017249193285 1.695339646155761 a38.98211328254389,38.98211328254389 0 0,0 -0.0573712333880815,-0.6667406961860671 l 17.92848210527911 -1.3877779025940318" fill="#ffd313" stroke="none" /><path d="M 79.06263194458094 101.62068470465958 l -29.73417357115586 2.301613086463974 a50.823120238489565,50.823120238489565 0 0,0 -0.059864889330085415,-0.8704223523222501 l 29.769302421651012 -1.7908473099873807" fill="#9bff22" stroke="none" /><path d="M 79.03789590574601 101.26102812881392 l -30.85842324195532 1.8563661140113092 a51.914210003312355,51.914210003312355 0 0,0 -0.045878343918055835,-0.8900276155122062 l 30.88574317532995 -1.3263667051223724" fill="#8fff24" stroke="none" /><path d="M 79.00696218219943 100.54070618675478 l -16.182112622532127 0.41679381925118014 a37.187479297780726,37.187479297780726 0 0,0 -0.010958917109881287,-0.6383019809629562 l 16.186882971240674 -0.1389449223191715" fill="#ffbb11" stroke="none" /><line stroke="#e1ed5e" stroke-width="0.3" x1="15.003131293944662" x2="10.003315487706104" y1="100.72959589197737" y2="100.7725132973878" /><path d="M 14.003168132696942 100.73817937305945 a86.0,86.0 0 0,1 10.791469493833604,-42.45332614584628" fill="none" id="id22" stroke="none" /><text fill="#e1ed5e" style="font-size:6.75px; font-family:Arial;" text-anchor="middle"><textPath startOffset="22.145653131862435" xlink:href="#id22">October</textPath></text><path d="M 79.00077361379809 99.81974689727619 l -17.945678726863502 -0.1540420685748391 a38.94633984763166,38.94633984763166 0 0,0 0.011477242291841307,-0.6684918242760104 l 17.940390052972994 0.46208080881990193" fill="#ffd213" stroke="none" /><path d="M 79.0935383218832 98.0201363427161 l -9.399152624037653 -0.8901095257585 a30.441205697250744,30.441205697250744 0 0,0 0.05373250786526821,-0.51981327139475 l 9.382487723690721 1.0513273194361628" fill="#ff5e08" stroke="none" /><path d="M 79.13060592940154 97.66154086499901 l -20.892107176339433 -2.3410041858742727 a42.02285525008281,42.02285525008281 0 0,0 0.0864828634914535,-0.7162021717969435 l 20.84884222658831 2.6993000345946525" fill="#fffa17" stroke="none" /><path d="M 79.22317932658666 96.9465228501225 l -39.699428325009734 -5.834448838880093 a61.12586949320967,61.12586949320967 0 0,0 0.16148438243972696,-1.0368455763427207 l 39.59342245043174 6.515082597154263" fill="#30ff32" stroke="none" /><path d="M 79.407916724674 95.88100663000787 l -22.099486522708265 -4.420516236758697 a43.53726399470023,43.53726399470023 0 0,0 0.1528827386387175,-0.7315992485606574 l 22.02034607324518 4.799231936604764" fill="#f2ff19" stroke="none" /><path d="M 79.64726062577567 94.8264132398404 l -7.1508583662336465 -1.8177202334824685 a28.37827095064591,28.37827095064591 0 0,0 0.12406779951633208,-0.47110564312317316 l 7.118601085912588 1.9402063809784262" fill="#ff4106" stroke="none" /><path d="M 79.73907114497095 94.47779374421319 l -12.425194622683792 -3.386542046798708 a33.87843656840013,33.87843656840013 0 0,0 0.1577468863720851,-0.5597880495137734 l 12.365229244237124 3.599338020215494" fill="#ff8e0d" stroke="none" /><path d="M 79.94057633289273 93.78553927170692 l -9.801429460396049 -3.036507901403223 a31.26101358065585,31.26101358065585 0 0,0 0.16320524328601083,-0.5112381000852936 l 9.74785950133278 3.2043150351799086" fill="#ff6a09" stroke="none" /><path d="M 80.05021161711548 93.44210830539832 l -9.507136649033741 -3.12518465226582 a31.00761841669427,31.00761841669427 0 0,0 0.17056342711663858,-0.5042404651354877 l 9.452087800344739 3.287926791875469" fill="#ff6609" stroke="none" /><path d="M 80.16572619554312 93.10060997987247 l -9.376065646454565 -3.2614823404662823 a30.92712818814177,30.92712818814177 0 0,0 0.1787290960924788,-0.499937091400018 l 9.318696380318142 3.421954388247222" fill="#ff6509" stroke="none" /><path d="M 80.28708602549916 92.7611449362534 l -7.897105461038378 -2.8999265116017 a29.412719443524345,29.412719443524345 0 0,0 0.17811406756146833,-0.4724687254310086 l 7.846160709662473 3.0350635172268534" fill="#ff4f07" stroke="none" /><path d="M 80.41425534168474 92.42381321644754 l -9.658951915438498 -3.7362900988115135 a31.356409407088442,31.356409407088442 0 0,0 0.19850298166108565,-0.5003571855309419 l 9.593390258811281 3.9015483015560384" fill="#ff6b09" stroke="none" /><path d="M 80.83023694016515 91.42560881287825 l -9.502788899580274 -4.250476604187165 a31.410069559456772,31.410069559456772 0 0,0 0.22438087590010064,-0.4903127081425473 l 9.428423558825125 4.412978294544384" fill="#ff6c09" stroke="none" /><path d="M 81.1358732173502 90.77261029715801 l -8.558616741212623 -4.1864483258812735 a30.527658164955284,30.527658164955284 0 0,0 0.23430717106998594,-0.4687712982914311 l 8.485489656930893 4.332751480336475" fill="#ff5f08" stroke="none" /><path d="M 81.29705330413844 90.45014215332179 l -13.27517155339626 -6.778397184506373 a35.90559788009274,35.90559788009274 0 0,0 0.28500825929723633,-0.5465409169500585 l 13.156855225124085 7.005284344560917" fill="#ffaa0f" stroke="none" /><line stroke="#e1ed5e" stroke-width="0.3" x1="26.387840678322718" x2="22.05771365940052" y1="57.49999999999999" y2="54.99999999999999" /><path d="M 25.521815274538284 56.99999999999999 a86.0,86.0 0 0,1 29.574782752854787,-30.34633250058573" fill="none" id="id23" stroke="none" /><text fill="#e1ed5e" style="font-size:6.75px; font-family:Arial;" text-anchor="middle"><textPath startOffset="21.40746469413373" xlink:href="#id23">November</textPath></text><path d="M 81.99639281039701 89.18935116829357 l -9.456302456092043 -5.678237923245225 a32.03014243126863,32.03014243126863 0 0,0 0.2870999480295896,-0.4689561887075949 l 9.35743454360706 5.839731228077363" fill="#ff750a" stroke="none" /><path d="M 82.576782715395 88.27688183743585 l -8.085434718692154 -5.440241320222717 a30.74527989400464,30.74527989400464 0 0,0 0.2983906469944734,-0.43536087147745833 l 7.990854334882367 5.57823692677021" fill="#ff6209" stroke="none" /><path d="M 83.2033758604659 87.39550010848427 l -14.511558393962698 -10.889743955864963 a39.14309373964889,39.14309373964889 0 0,0 0.40792326976938925,-0.5339846546410035 l 14.322483146839003 11.137249523746853" fill="#ffd513" stroke="none" /><path d="M 83.64595745247003 86.82634096563983 l -7.0645934990962544 -5.6907364465373576 a30.071546869824445,30.071546869824445 0 0,0 0.3272832232149047,-0.3992323168144707 l 6.96586345664272 5.811171045050321" fill="#ff5908" stroke="none" /><path d="M 84.58840730492382 85.73525988315684 l -11.647847372628435 -10.78107363584058 a36.87148062272276,36.87148062272276 0 0,0 0.433931968448192,-0.46082071304400296 l 11.461059570443972 10.979435808829093" fill="#ffb710" stroke="none" /><path d="M 85.08716467003674 85.21462403516908 l -3.5311516581240765 -3.500971056074098 a25.97250745279894,25.97250745279894 0 0,0 0.31662722678099675,-0.3139210274288157 l 3.4705325112131034 3.561072093731587" fill="#ff1d03" stroke="none" /><path d="M 85.34317274990677 84.96080404539775 l -13.53049935276907 -13.883484307875607 a40.386220602848624,40.386220602848624 0 0,0 0.50064973403977,-0.4796111200549418 l 13.290177132864 14.113707558236117" fill="#ffe515" stroke="none" /><path d="M 85.86807049272753 84.46653392183569 l -7.264238406165758 -7.984670515643728 a31.794633984763166,31.794633984763166 0 0,0 0.4068728624312096,-0.36382822248855834 l 7.126100516911157 8.108194268015687" fill="#ff710a" stroke="none" /><path d="M 86.96720088162412 83.53348406188908 l -9.343060930459211 -11.804652271915034 a36.05465385889367,36.05465385889367 0 0,0 0.48860933037426857,-0.37994557062614576 l 9.139041655449699 11.963298894161985" fill="#ffac0f" stroke="none" /><path d="M 87.25179093698888 83.31218511350988 l -9.56432379189142 -12.520006862504179 a36.755216959258036,36.755216959258036 0 0,0 0.5046789024828038,-0.3787204570841402 l 9.347991900497863 12.68234634685232" fill="#ffb510" stroke="none" /><path d="M 88.4268655584334 82.4767994020092 l -11.528228511305466 -17.455207296091622 a41.91851606492216,41.91851606492216 0 0,0 0.6038549230525536,-0.39141146555446055 l 11.226887955995887 17.65053260334999" fill="#fff817" stroke="none" /><line stroke="#e1ed5e" stroke-width="0.3" x1="56.869717070023135" x2="54.33264160355391" y1="26.7553504044142" y2="22.446841604673864" /><path d="M 56.362301976729285 25.89364864446614 a86.0,86.0 0 0,1 42.16139366436587,-11.88097634709845" fill="none" id="id24" stroke="none" /><text fill="#e1ed5e" style="font-size:6.75px; font-family:Arial;" text-anchor="middle"><textPath startOffset="22.145653131862474" xlink:href="#id24">December</textPath></text><path d="M 89.34428304082924 81.90426304109057 l -4.775483618999018 -8.10981520549999 a30.411394501490562,30.411394501490562 0 0,0 0.452126972677818,-0.2610356293834274 l 4.6355641784608 8.19059773215959" fill="#ff5e08" stroke="none" /><path d="M 89.65649057296885 81.72400993836675 l -1.7664186590713788 -3.121092515612286 a24.586286849950316,24.586286849950316 0 0,0 0.36909380100514405,-0.20473010960834245 l 1.7125806699101322 3.150955540653775" fill="#ff0901" stroke="none" /><path d="M 89.97174638481275 81.54914285379989 l -5.866620898337202 -10.793921681657695 a33.285193772772445,33.285193772772445 0 0,0 0.5043676632003655,-0.2685473720325847 l 5.680464419350275 10.893039521412854" fill="#ff860c" stroke="none" /><path d="M 90.61103034731259 81.2157712731953 l -8.037025553263383 -16.079434896507692 a38.97615104339185,38.97615104339185 0 0,0 0.6010489066007898,-0.2940031391632503 l 7.759816397400542 16.215031785768158" fill="#ffd213" stroke="none" /><path d="M 91.26138138417902 80.90454125486306 l -3.877857633992765 -8.473818772152285 a30.318979794633982,30.318979794633982 0 0,0 0.4751223756907308,-0.21251619533382388 l 3.7318218554464155 8.539138718395954" fill="#ff5c08" stroke="none" /><path d="M 92.592206182469 80.34994680014964 l -3.29990872087431 -8.75339993485976 a30.354753229546205,30.354753229546205 0 0,0 0.4891608472257314,-0.1796266386850221 l 3.1491587219944517 8.808757422553503" fill="#ff5d08" stroke="none" /><path d="M 92.93061703081487 80.22567764915836 l -6.027357324505634 -16.859591166302216 a38.90460417356741,38.90460417356741 0 0,0 0.6307996743796922,-0.21942487136266964 l 5.737051878080938 16.96057447023347" fill="#ffd213" stroke="none" /><path d="M 93.61358852112211 79.99465700312896 l -3.0906085361512416 -9.681287220413573 a31.162636634647235,31.162636634647235 0 0,0 0.51100694426471,-0.15831125757742423 l 2.923960959014915 9.732915065797638" fill="#ff6809" stroke="none" /><path d="M 94.30408787586887 79.78721728523814 l -2.6998510267080644 -9.580818835648964 a30.953958264325934,30.953958264325934 0 0,0 0.512683923763062,-0.1397342832257629 l 2.5349857020103244 9.625753613018867" fill="#ff6509" stroke="none" /><path d="M 95.70440661134978 79.44403061299748 l -3.12397552596248 -14.949353783601083 a36.27227558794303,36.27227558794303 0 0,0 0.6105893761012771,-0.1221349757730592 l 2.866889664330226 15.000778156037008" fill="#ffaf10" stroke="none" /><path d="M 96.05791012581881 79.37332000966035 l -1.839442968310258 -9.624742884812344 a30.79894004637297,30.79894004637297 0 0,0 0.5201578227567838,-0.094790082675029 l 1.6739504120024356 9.654901141418733" fill="#ff6309" stroke="none" /><path d="M 96.76829788921471 79.25015418208739 l -1.5882486217108844 -10.19769548406949 a31.32063597217622,31.32063597217622 0 0,0 0.531965929889338,-0.07818067244084852 l 1.4129575862138615 10.223457229809224" fill="#ff6b09" stroke="none" /><path d="M 97.48249496171623 79.15144685158666 l -1.2540470135812865 -10.385308237985484 a31.46074859224909,31.46074859224909 0 0,0 0.5367265109221926,-0.06014132505320128 l 1.0755846010582946 10.405305323545656" fill="#ff6d0a" stroke="none" /><path d="M 97.84075906011542 79.11130261209362 l -1.84372794966248 -17.836395417819073 a38.931434249751575,38.931434249751575 0 0,0 0.6653575595373048,-0.06301005265782961 l 1.5372708267401598 17.86541722598209" fill="#ffd213" stroke="none" /><path d="M 98.5590905019552 79.04949213459386 l -1.0033115631348777 -14.587929931360962 a35.62239152037098,35.62239152037098 0 0,0 0.6104247037692103,-0.036721634360496226 l 0.7527425072331836 14.603003543546153" fill="#ffa60f" stroke="none" /><path d="M 99.27912038922189 79.0123766808444 l -0.5684691578865877 -16.550359277609815 a37.56011924478304,37.56011924478304 0 0,0 0.6445793760826206,-0.0166020782474327 l 0.28427646773322324 16.557679073207293" fill="#ffc011" stroke="none" /></svg>