<?xml version="1.0" encoding="utf-8" ?>
<svg baseProfile="full" height="200mm" version="1.1" viewBox="0,0,200,200" width="200mm" xmlns="http://www.w3.org/2000/svg" xmlns:ev="http://www.w3.org/2001/xml-events" xmlns:xlink="http://www.w3.org/1999/xlink"><defs /><rect fill="#1a1a1a" height="200" width="200" x="0" y="0" /><text alignment-baseline="middle" fill="#e1ed5e" style="dominant-baseline: central; font-size:9.0px; font-family:Arial;" text-anchor="middle" x="100.0" y="100.0">2019</text><line stroke="#e1ed5e" stroke-width="0.3" x1="100.0" x2="100.0" y1="15.0" y2="10.0" /><path d="M 100.0 14.0 a86.0,86.0 0 0,1 42.46469731375804,11.215312516191453" fill="none" id="id1" stroke="none" /><text fill="#e1ed5e" style="font-size:6.75px; font-family:Arial;" text-anchor="middle"><textPath startOffset="22.20632615414155" xlink:href="#id1">January</textPath></text><line stroke="#e1ed5e" stroke-width="0.3" x1="143.23703022742887" x2="145.7803849466894" y1="26.81831364943548" y2="22.513508569990506" /><path d="M 143.74570117128098 25.957352633546492 a86.0,86.0 0 0,1 28.547481713284135,27.462654790039103" fill="none" id="id2" stroke="none" /><text fill="#e1ed5e" style="font-size:6.75px; font-family:Arial;" text-anchor="middle"><textPath startOffset="19.985693538727396" xlink:href="#id2">February</textPath></text><line stroke="#e1ed5e" stroke-width="0.3" x1="172.23445277983987" x2="176.4835382374775" y1="55.19839476539836" y2="52.563006222186495" /><path d="M 173.08426987136738 54.67131705675599 a86.0,86.0 0 0,1 12.851231095245387,41.99856678651699" fill="none" id="id3" stroke="none" /><text fill="#e1ed5e" style="font-size:6.75px; font-family:Arial;" text-anchor="middle"><textPath startOffset="22.20632615414155" xlink:href="#id3">March</textPath></text><path d="M 119.04729006885535 91.15688171328212 l 8.27311923302582 -3.840975367797536 a30.12127149140344,30.12127149140344 0 0,0 0.21428800813969828,0.47215522098395374 l -8.338009558128865 3.697998137971519" fill="#ff5c08" stroke="none" /><path d="M 119.196687751892 91.48605970444005 l 7.373186027376037 -3.270088383812429 a29.06581367453019,29.06581367453019 0 0,0 0.19890606909579223,0.45910263138705154 l -7.428382806314509 3.1426866078387747" fill="#ff4d07" stroke="none" /><path d="M 119.61058180528143 92.48833698450437 l 7.863835462821571 -3.0121738657499293 a29.420991603358658,29.420991603358658 0 0,0 0.17707992097127362,0.4744861496053256 l -7.91451997229447 2.8763645791152705" fill="#ff5207" stroke="none" /><path d="M 119.7369772167798 92.82701384747503 l 9.536250807179815 -3.465748287369521 a31.146501399440226,31.146501399440226 0 0,0 0.1787911803454988,0.505466743116 l -9.594495068335124 3.3010839178269067" fill="#ff6b09" stroke="none" /><path d="M 119.85752413597 93.16781622104841 l 12.895877929485192 -4.4369583741596 a34.63782487005198,34.63782487005198 0 0,0 0.18912698749807844,0.5654656200819154 l -12.97034221075504 4.214319651155371" fill="#ff9b0e" stroke="none" /><path d="M 119.97218684219823 93.5106431181261 l 14.812638693959812 -4.812918064849217 a36.574930027988806,36.574930027988806 0 0,0 0.18939633676692152,0.6004381447673575 l -14.89329051449494 4.557229753655441" fill="#ffb510" stroke="none" /><path d="M 120.08093135843002 93.85539295169968 l 14.312782182941767 -4.379598770211973 a35.96785285885646,35.96785285885646 0 0,0 0.1760611032116402,0.5935905153668791 l -14.386049183265108 4.132578868098564" fill="#ffad10" stroke="none" /><path d="M 120.28053869075195 94.5502522615342 l 14.64723592047391 -3.9359773450582844 a36.16685325869652,36.16685325869652 0 0,0 0.15638490193324478,0.6026148205651486 l -14.712817154277458 3.6832660989442854" fill="#ffaf10" stroke="none" /><path d="M 120.37134235888165 94.90015583598534 l 14.798342582013666 -3.704676880120676 a36.25501799280288,36.25501799280288 0 0,0 0.14634458817826224,0.6066927975773755 l -14.859919970452747 3.4493988508838944" fill="#ffb010" stroke="none" /><path d="M 120.45610955862082 95.25157060432595 l 15.274603998690287 -3.545658495170451 a36.680727708916436,36.680727708916436 0 0,0 0.13747519807341016,0.6162743567856789 l -15.333373583765734 3.2822059688348078" fill="#ffb610" stroke="none" /><path d="M 120.67395015179393 96.31383870115 l 27.586208095388535 -4.918615548389522 a49.02127149140344,49.02127149140344 0 0,0 0.140966825298934,0.8319941825887547 l -27.666786782207694 4.443035577484929" fill="#aeff20" stroke="none" /><path d="M 120.78858239683441 97.02765380044208 l 27.53219571092948 -3.936546308194991 a48.81219512195122,48.81219512195122 0 0,0 0.11176598267776124,0.8327863902740851 l -27.595877692665077 3.462041575856242" fill="#b1ff20" stroke="none" /><path d="M 120.83666639777658 97.38593545837742 l 15.04139044963848 -1.8870180421612959 a36.15929628148741,36.15929628148741 0 0,0 0.07216301632360844,0.618248654649282 l -15.071643818965677 1.627825649187161" fill="#ffaf10" stroke="none" /><path d="M 120.87857604477298 97.74499172005257 l 15.099192519864417 -1.630801069948387 a36.18700519792083,36.18700519792083 0 0,0 0.06155732564866017,0.6198738685818059 l -15.125026971195306 1.370651670662146" fill="#ffb010" stroke="none" /><path d="M 120.94382443527127 98.46500227214037 l 27.92119129631406 -2.0463772188043143 a48.996081567373054,48.996081567373054 0 0,0 0.05440760310717098,0.8416615386927985 l -27.952279490425646 1.5654566158584804" fill="#afff20" stroke="none" /><path d="M 120.98425023603335 99.18683210126433 l 12.630823792612798 -0.4894613973437325 a33.64030387844862,33.64030387844862 0 0,0 0.017442186058737954,0.5788212400465749 l -12.637377673127181 0.2719700098721586" fill="#ff8d0d" stroke="none" /><line stroke="#e1ed5e" stroke-width="0.3" x1="184.98032266829074" x2="189.97916517819016" y1="98.17113171792111" y2="98.06355123074" /><path d="M 185.9800911702706 98.14961562048488 a86.0,86.0 0 0,1 -9.607161424134198,41.387399972396054" fill="none" id="id4" stroke="none" /><text fill="#e1ed5e" style="font-size:6.75px; font-family:Arial;" text-anchor="middle"><textPath startOffset="21.466115282336823" xlink:href="#id4">April</textPath></text><path d="M 120.99824983174949 100.27111621757518 l 14.435142317363816 0.18637749415314508 a35.43634546181527,35.43634546181527 0 0,0 -0.013124841603543796,0.6098598162418946 l -14.429795413075263 -0.43482712618515446" fill="#ffa60f" stroke="none" /><path d="M 120.92983693683757 101.71520430193887 l 8.091587098851758 0.663107172948698 a29.118712514994,29.118712514994 0 0,0 -0.04523855960445039,0.4992037355667382 l -8.078973942970233 -0.8022922970640067" fill="#ff4e07" stroke="none" /><path d="M 120.5718875245553 104.21870165774334 l 24.725747260621034 5.0705386578074645 a46.24030387844862,46.24030387844862 0 0,0 -0.1666103353636513,0.7783480193823099 l -24.634802886532942 -5.495400496605944" fill="#cfff1d" stroke="none" /><path d="M 120.41448212921028 104.9243191809786 l 17.280887691223946 4.168443077988723 a38.7765293882447,38.7765293882447 0 0,0 -0.16210193100918807,0.6475166352974353 l -17.206574445919696 -4.465287552683554" fill="#ffd213" stroke="none" /><path d="M 120.23288151984713 105.62410040840565 l 12.253796736550358 3.406167488449441 a33.718392642942824,33.718392642942824 0 0,0 -0.16025446943482233,0.5578668315138945 l -12.193349630229436 -3.616591795467917" fill="#ff8e0d" stroke="none" /><path d="M 120.02730092923936 106.31721596034902 l 4.374615952676313 1.3798860772245776 a25.587085165933626,25.587085165933626 0 0,0 -0.1361083660448583,0.4188984774480866 l -4.350215335615208 -1.4549834546504594" fill="#ff1a02" stroke="none" /><path d="M 119.12269723197855 108.67885076344098 l 2.819087752671128 1.279445132539261 a24.095841663334667,24.095841663334667 0 0,0 -0.17466660617942262,0.37621633063972004 l -2.796646529651874 -1.3277815304578118" fill="#ff0400" stroke="none" /><line stroke="#e1ed5e" stroke-width="0.3" x1="174.80103733775053" x2="179.2010983576182" y1="140.37084112569926" y2="142.7455964860345" /><path d="M 175.68104954172406 140.8457921977663 a86.0,86.0 0 0,1 -30.038265399797805,32.042727171017184" fill="none" id="id5" stroke="none" /><text fill="#e1ed5e" style="font-size:6.75px; font-family:Arial;" text-anchor="middle"><textPath startOffset="22.206326154141568" xlink:href="#id5">May</textPath></text><path d="M 118.30583269289576 110.29060199501025 l 7.167161684479619 4.029011384851671 a29.22199120351859,29.22199120351859 0 0,0 -0.25026270411454965,0.43635411932982476 l -7.09674698421269 -4.151785350039811" fill="#ff4f07" stroke="none" /><path d="M 117.94076556474637 110.91462005526583 l 22.93204292578216 13.951162492072685 a47.842383046781286,47.842383046781286 0 0,0 -0.4340793187124674,0.6998740756285264 l -22.68849896740173 -14.343832899066486" fill="#bcff1f" stroke="none" /><path d="M 116.93607887273984 112.41649034213515 l 4.209302929746135 3.086001757965295 a26.21935225909636,26.21935225909636 0 0,0 -0.26998283431343684,0.3616861265270744 l -4.155558828737607 -3.1580007640016845" fill="#ff2403" stroke="none" /><path d="M 116.71984013943494 112.70617746262583 l 4.141519778640519 3.1473318425016776 a26.201719312275088,26.201719312275088 0 0,0 -0.2759829375733776,0.3567451496879628 l -4.086730023849072 -3.2181549863028933" fill="#ff2303" stroke="none" /><path d="M 112.34349029814194 116.9893568818739 l 2.108412257243598 2.9019805117699042 a24.58704518192723,24.58704518192723 0 0,0 -0.34453788028504445,0.24581862953528874 l -2.0581470491096687 -2.937843403149412" fill="#ff0b01" stroke="none" /><line stroke="#e1ed5e" stroke-width="0.3" x1="143.8653032363475" x2="146.44561519142675" y1="172.8068346515853" y2="177.08958963109032" /><path d="M 144.38136562736335 173.6633856474863 a86.0,86.0 0 0,1 -40.68145358897372,12.25698825130547" fill="none" id="id6" stroke="none" /><text fill="#e1ed5e" style="font-size:6.75px; font-family:Arial;" text-anchor="middle"><textPath startOffset="21.466115282336833" xlink:href="#id6">June</textPath></text><path d="M 110.8373102113329 117.98757091392108 l 3.90767147084367 6.48588222717874 a28.572091163534587,28.572091163534587 0 0,0 -0.4234548934284772,0.25018461503351824 l -3.7954487063868108 -6.552185414506007" fill="#ff4606" stroke="none" /><path d="M 108.92500713936063 119.00905698771935 l 5.406391769744644 11.514882581525317 a33.720911635345864,33.720911635345864 0 0,0 -0.5275427944814248,0.24216902260630044 l -5.2073809794958 -11.606238674465692" fill="#ff8e0d" stroke="none" /><path d="M 107.59598834532513 119.57807347666477 l 3.735731973110719 9.628560726228578 a31.327868852459016,31.327868852459016 0 0,0 -0.504423113292049,0.19072965967699326 l -3.569438639058395 -9.691438636012203" fill="#ff6d0a" stroke="none" /><path d="M 106.57524785965236 119.94407469862006 l 2.6358830484156184 7.99517364767552 a29.418472610955618,29.418472610955618 0 0,0 -0.482292960951372,0.15441497578690605 l -2.497868742373306 -8.039361470122133" fill="#ff5207" stroke="none" /><path d="M 106.2309692047433 120.05430185196036 l 2.4193899219217214 7.7867783000554605 a29.153978408636547,29.153978408636547 0 0,0 -0.48052007246942124,0.14477675606877657 l -2.2849948750120546 -7.827270425229963" fill="#ff4e07" stroke="none" /><path d="M 105.53697534728816 120.25689768951611 l 2.2375933560592327 8.186184124267868 a29.486485405837666,29.486485405837666 0 0,0 -0.49075278367807457,0.12961227055202088 l -2.096350129569661 -8.223487744123473" fill="#ff5307" stroke="none" /><path d="M 104.48393922423573 120.51570834832081 l 1.6329355639479814 7.471294347721152 a28.64766093562575,28.64766093562575 0 0,0 -0.4826565261476402,0.10114536783574042 l -1.5040875763709634 -7.498295696283433" fill="#ff4706" stroke="none" /><path d="M 103.7750983002368 120.6578951692458 l 2.334794902361575 12.776342362170897 a33.987924830067975,33.987924830067975 0 0,0 -0.5764206850361601,0.10021812469519041 l -2.1145252458533648 -12.814639065387095" fill="#ff920d" stroke="none" /><path d="M 103.06178313531738 120.77559828337769 l 1.8984034817819495 12.881535489017905 a34.02067173130747,34.02067173130747 0 0,0 -0.5800871359809352,0.08039479128093648 l -1.6763877546141839 -12.912304845791443" fill="#ff920d" stroke="none" /><path d="M 101.98527174616119 120.90594882070398 l 1.2364091450702397 13.020034339515597 a34.078608556577365,34.078608556577365 0 0,0 -0.5844573578625265,0.05042944010468479 l -1.0121074694661716 -13.039388031898945" fill="#ff930d" stroke="none" /><path d="M 101.62511606390274 120.93702456842531 l 1.0008011841755249 12.893724606272956 a33.932506997201116,33.932506997201116 0 0,0 -0.582729792539059,0.040188458273006156 l -0.7787086308575356 -12.909041409062247" fill="#ff910d" stroke="none" /><line stroke="#e1ed5e" stroke-width="0.3" x1="102.19456741930631" x2="102.32365962044197" y1="184.97166512339345" y2="189.96999836594603" /><path d="M 102.22038585953345 185.97133177190398 a86.0,86.0 0 0,1 -42.740103519485714,-10.115201625700543" fill="none" id="id7" stroke="none" /><text fill="#e1ed5e" style="font-size:6.75px; font-family:Arial;" text-anchor="middle"><textPath startOffset="22.20632615414155" xlink:href="#id7">July</textPath></text><path d="M 100.54218724476979 120.99299961872073 l 0.34801006958374714 13.474635061148502 a34.47912834866054,34.47912834866054 0 0,0 -0.5934355639319223,0.010216531406871928 l -0.11601481575915687 -13.478629069834533" fill="#ff990e" stroke="none" /><path d="M 100.18074693466247 120.99922214144158 l 0.0679047660171331 7.889191972850262 a28.889484206317473,28.889484206317473 0 0,0 -0.49730340135917167,0.0 l 0.06790476601712768 -7.889191972850262" fill="#ff4a06" stroke="none" /><path d="M 99.45781275523022 120.99299961872073 l -0.40810375381012043 15.801408149636858 a36.80667732906837,36.80667732906837 0 0,0 -0.6332144495938433,-0.021809185965301035 l 0.6800385550786068 -15.792042165245464" fill="#ffb811" stroke="none" /><path d="M 98.01472825383883 120.90594882070398 l -2.461387697119783 25.919698561870817 a47.03630547780888,47.03630547780888 0 0,0 -0.8053677250438974,-0.08347965765074751 l 2.907188018769274 -25.873489535764307" fill="#c6ff1e" stroke="none" /><path d="M 94.81253420990036 120.34920634021253 l -2.143640901266685 8.408998301723171 a29.677928828468612,29.677928828468612 0 0,0 -0.49393903633858105,-0.13045378883906064 l 2.2880703804167553 -8.370853163580529" fill="#ff5607" stroke="none" /><path d="M 94.46302465271185 120.25689768951611 l -3.528078334041742 12.907393905642893 a34.38088764494202,34.38088764494202 0 0,0 -0.5695256773605949,-0.160953645260332 l 3.749735179506951 -12.84475146704404" fill="#ff970e" stroke="none" /><path d="M 93.42475214034765 119.94407469862007 l -4.085539853618455 12.392279920693959 a34.048380647740906,34.048380647740906 0 0,0 -0.5550376781045779,-0.18829891568497045 l 4.298247264660259 -12.320118018110865" fill="#ff930d" stroke="none" /><path d="M 93.08242187328487 119.8279376855182 l -4.25012017173549 12.182170750726607 a33.90227908836465,33.90227908836465 0 0,0 -0.5493467820877311,-0.19697621123433282 l 4.459186514452947 -12.107206998452316" fill="#ff910d" stroke="none" /><path d="M 92.06813273071674 119.44442032107085 l -5.739107161333459 14.069021596565294 a36.194562175129946,36.194562175129946 0 0,0 -0.5748533093523547,-0.2402887299312689 l 5.980431930183276 -13.968147823614052" fill="#ffb010" stroke="none" /><path d="M 91.40352486487194 119.15986991738527 l -12.73488219738082 28.383573788049755 a52.10955617752899,52.10955617752899 0 0,0 -0.8152217586035165,-0.37422832527258476 l 13.221571951751756 -28.160158392443094" fill="#8bff24" stroke="none" /><path d="M 90.7491055286396 118.85261126421891 l -6.94538366608293 14.154157605287425 a36.76637345061975,36.76637345061975 0 0,0 -0.5657576147259084,-0.283682612958992 l 7.187995188491598 -14.03250715141913" fill="#ffb711" stroke="none" /><path d="M 90.42595943632237 118.69057910512821 l -3.573900148040558 6.977019053397721 a28.839104358256698,28.839104358256698 0 0,0 -0.43987749947321,-0.23012311782985836 l 3.6934685500402638 -6.914466516623146" fill="#ff4a06" stroke="none" /><line stroke="#e1ed5e" stroke-width="0.3" x1="58.666819895761336" x2="56.23545636021788" y1="174.27360380694188" y2="178.64263932499728" /><path d="M 58.180547188652646 175.14741091055294 a86.0,86.0 0 0,1 -31.652253787137756,-30.449443065178592" fill="none" id="id8" stroke="none" /><text fill="#e1ed5e" style="font-size:6.75px; font-family:Arial;" text-anchor="middle"><textPath startOffset="22.20632615414155" xlink:href="#id8">August</textPath></text><path d="M 89.7882731507175 118.34994917583269 l -7.933789060712041 14.25661185268313 a37.31551379448221,37.31551379448221 0 0,0 -0.5585798940125801,-0.31717624186008436 l 8.178017721645828 -14.117932445028414" fill="#ffbf11" stroke="none" /><path d="M 89.4739219176387 118.17145234162733 l -8.224734821491571 14.198581433829714 a37.40871651339464,37.40871651339464 0 0,0 -0.5544187848837873,-0.3275603905305426 l 8.46792147740374 -14.054902471005422" fill="#ffc011" stroke="none" /><path d="M 89.1626897886671 117.98757091392108 l -16.908543852715766 28.064494387529564 a53.76453418632547,53.76453418632547 0 0,0 -0.7885997540637482,-0.4844223782691771 l 17.38912280671182 -27.769283542432007" fill="#79ff26" stroke="none" /><path d="M 88.54995079064634 117.60387380957326 l -9.794118462043306 15.05796371084369 a38.96293482606957,38.96293482606957 0 0,0 -0.5590722892590785,-0.37052262804076574 l 10.051865450042348 -14.887143061711607" fill="#ffd413" stroke="none" /><path d="M 88.24862548938628 117.40417183066458 l -10.07864787095818 14.926808707227318 a39.01079568172731,39.01079568172731 0 0,0 -0.5532903294850267,-0.3805581337903799 l 10.334095085066098 -14.751109784071836" fill="#ffd513" stroke="none" /><path d="M 87.65650970185807 116.9893568818739 l -10.525774393781408 14.487485574559162 a38.90751699320272,38.90751699320272 0 0,0 -0.5384337715199915,-0.3983204320370024 l 10.773593135719965 -14.304155193782393" fill="#ffd313" stroke="none" /><path d="M 87.07902340077011 116.55440617244103 l -23.442195649342498 30.03423350957664 a59.099760095961614,59.099760095961614 0 0,0 -0.7965592513030288,-0.6328348445721262 l 23.955712393362887 -29.626264750999386" fill="#41ff2d" stroke="none" /><path d="M 86.51685102203217 116.09983520530335 l -8.233831840883758 9.831778612179049 a33.824190323870454,33.824190323870454 0 0,0 -0.44315249928214434,-0.3776641738764033 l 8.401849816742958 -9.688590048079694" fill="#ff900d" stroke="none" /><path d="M 86.24171649860922 115.8653595955263 l -8.601540217023038 9.918862960241867 a34.12898840463814,34.12898840463814 0 0,0 -0.4405201568875984,-0.38870782005292076 l 8.771002726817224 -9.769331998416659" fill="#ff940d" stroke="none" /><path d="M 85.70375840098266 115.38237550388516 l -12.278419414110054 13.211252531925362 a39.0359856057577,39.0359856057577 0 0,0 -0.48825498037468695,-0.46167555928355375 l 12.50401022887556 -12.997942335895878" fill="#ffd513" stroke="none" /><path d="M 85.44109423537348 115.13401014063109 l -12.526713040743624 13.021541951868869 a39.0687325069972,39.0687325069972 0 0,0 -0.48063851922857537,-0.4704059520638047 l 12.749001512347995 -12.803985896882494" fill="#ffd513" stroke="none" /><path d="M 84.9287848128048 114.62390073753433 l -9.402485828300943 9.123419560485727 a34.10127948820472,34.10127948820472 0 0,0 -0.40514503913820066,-0.42479295378788173 l 9.5581374188181 -8.960219490115346" fill="#ff930d" stroke="none" /><path d="M 84.67929136418377 114.36230785411682 l -14.714863740141615 13.794362133696133 a41.16957217113155,41.16957217113155 0 0,0 -0.48022069450465465,-0.5211847191457536 l 14.950130842641999 -13.539026159749035" fill="#fff016" stroke="none" /><path d="M 84.19399662182784 113.82643327865904 l -13.580775953360325 11.879897030192083 a39.043542582966815,39.043542582966815 0 0,0 -0.438138250598495,-0.5096537691358658 l 13.7832567135296 -11.644366161894688" fill="#ffd513" stroke="none" /><path d="M 83.72743513129214 113.27417163493432 l -14.008980175455767 11.42767650826753 a39.07880847660935,39.07880847660935 0 0,0 -0.4207151721333353,-0.5249068651513082 l 14.203613259643962 -11.18484180953796" fill="#ffd614" stroke="none" /><path d="M 83.50135304334701 112.99209946851258 l -30.19034698005694 23.773827755956752 a59.427229108356656,59.427229108356656 0 0,0 -0.6259475214470694,-0.8091215500453635 l 30.59510131872208 -23.250628211798137" fill="#3dff2e" stroke="none" /><path d="M 82.44556493220864 111.52570212397912 l -14.981983867333335 9.836709789537556 a38.92263094762095,38.92263094762095 0 0,0 -0.3628981830530607,-0.5632260390100465 l 15.149086913763442 -9.57736215060606" fill="#ffd413" stroke="none" /><path d="M 82.24976979558568 111.22182372390057 l -15.261933239333288 9.648704412585277 a39.05613754498201,39.05613754498201 0 0,0 -0.3543607257290963,-0.5713423207867294 l 15.42575860473034 -9.384565760433283" fill="#ffd513" stroke="none" /><path d="M 82.05923443525364 110.91462005526583 l -15.412846418398257 9.376710376147205 a39.041023590563775,39.041023590563775 0 0,0 -0.3443402000613759,-0.5771339817141694 l 15.571967494157864 -9.110014300546926" fill="#ffd513" stroke="none" /><line stroke="#e1ed5e" stroke-width="0.3" x1="26.63291911575756" x2="22.317208475507996" y1="142.92168965132927" y2="145.44649492493687" /><path d="M 25.769776987707644 143.4266507060508 a86.0,86.0 0 0,1 -11.730757126820373,-40.83630448921669" fill="none" id="id9" stroke="none" /><text fill="#e1ed5e" style="font-size:6.75px; font-family:Arial;" text-anchor="middle"><textPath startOffset="21.46611528233685" xlink:href="#id9">September</textPath></text><path d="M 81.87401531095188 110.60418214915194 l -29.565430603959598 17.296561639044555 a55.25325869652139,55.25325869652139 0 0,0 -0.4731994420307465,-0.8250631132802867 l 29.85878204214272 -16.785078679905958" fill="#69ff28" stroke="none" /><path d="M 81.51974371655577 109.97397251340807 l -15.818685586404413 8.537497143824071 a38.97552978808477,38.97552978808477 0 0,0 -0.31356276182396,-0.5931425761588244 l 15.963300856453259 -8.26393955257912" fill="#ffd413" stroke="none" /><path d="M 81.02952815118164 109.00673069616217 l -16.220094762700192 7.700916801548648 a38.95537784886045,38.95537784886045 0 0,0 -0.2823808247234338,-0.608223174676773 l 16.350250204263453 -7.420573559593048" fill="#ffd413" stroke="none" /><path d="M 80.87730276802145 108.67885076344099 l -10.560683493326172 4.7929742800738495 a32.59744102359056,32.59744102359056 0 0,0 -0.22749740937873858,-0.5129466005869876 l 10.64162198743619 -4.610479342994166" fill="#ff7f0b" stroke="none" /><path d="M 80.73074385275274 108.34839909993369 l -23.160089555627856 10.034101437185393 a46.24030387844862,46.24030387844862 0 0,0 -0.3101381633642413,-0.7330750048606411 l 23.329378700184403 -9.633951906658593" fill="#cfff1d" stroke="none" /><path d="M 80.20201598880116 107.00284435728193 l -17.958299291405705 6.352120235477721 a40.04862055177929,40.04862055177929 0 0,0 -0.2242897611887955,-0.651891033724626 l 18.064979883537728 -6.042056498663798" fill="#ffe215" stroke="none" /><path d="M 79.76711848015287 105.62410040840567 l -3.9996547874499875 1.111777385811981 a25.151299480207918,25.151299480207918 0 0,0 -0.11235675174963913,-0.4181212709979971 l 4.018199615541401 -1.0427651816384451" fill="#ff1402" stroke="none" /><path d="M 79.67330655649465 105.27499134158121 l -24.423729095193092 6.338215306111835 a46.23274690123951,46.23274690123951 0 0,0 -0.1932720041423344,-0.7720255831643426 l 24.529212413630486 -5.916861883550101" fill="#cfff1d" stroke="none" /><path d="M 79.58551787078972 104.9243191809786 l -17.51841725138389 4.225739234792593 a39.02087165133946,39.02087165133946 0 0,0 -0.15188304598461577,-0.654308186953101 l 17.58856086329906 -3.9235623904909183" fill="#ffd513" stroke="none" /><path d="M 79.35854240842038 103.8639653848113 l -52.768182030197316 9.877908470343662 a74.68476609356257,74.68476609356257 0 0,0 -0.22566733865247984,-1.2656622789797511 l 52.93039581118898 -8.968127440630697" fill="#41ffcf" stroke="none" /><path d="M 79.23777060512086 103.15116336523772 l -7.765289634534168 1.1785678575943088 a28.85421831267493,28.85421831267493 0 0,0 -0.07030254581629715,-0.4916958416979414 l 7.784426231367064 -1.0447265439159668" fill="#ff4a06" stroke="none" /><path d="M 79.0095281055655 100.63252640178507 l -21.799540863096436 0.6569068676515616 a42.8094362255098,42.8094362255098 0 0,0 -0.015855671973913632,-0.7367507729610585 l 21.807618597755358 -0.2815662789003742" fill="#f9ff18" stroke="none" /><line stroke="#e1ed5e" stroke-width="0.3" x1="15.007084014347285" x2="10.007500721073583" y1="101.09737516637583" y2="101.16192664675087" /><path d="M 14.007167355692545 101.11028546245083 a86.0,86.0 0 0,1 10.666146001902534,-42.60595125391555" fill="none" id="id10" stroke="none" /><text fill="#e1ed5e" style="font-size:6.75px; font-family:Arial;" text-anchor="middle"><textPath startOffset="22.20632615414155" xlink:href="#id10">October</textPath></text><path d="M 79.00019446554 99.90962569577889 l -2.8313212419911666 -0.012184812228453313 a23.831347461015593,23.831347461015593 0 0,0 0.005296225189324159,-0.41019847755808414 l 2.830692009684127 0.06091954784700941" fill="#ff0000" stroke="none" /><path d="M 79.03285615573316 98.82574320788736 l -30.547812370947444 -1.7108184322671152 a51.59568172730908,51.59568172730908 0 0,0 0.05729432402882123,-0.8863178336577742 l 30.51383745591421 2.2363953301779014" fill="#91ff24" stroke="none" /><path d="M 79.05617556472873 98.46500227214037 l -29.034119831878847 -2.1279450708765024 a50.11199520191923,50.11199520191923 0 0,0 0.0704563107224548,-0.8597454501048611 l 28.993189037336894 2.627404438189142" fill="#a2ff22" stroke="none" /><path d="M 79.16333360222342 97.38593545837743 l -12.544489642196 -1.5737692844146711 a33.64282287085166,33.64282287085166 0 0,0 0.07703245364853141,-0.5739812550377965 l 12.515541189489635 1.7894688815171271" fill="#ff8d0d" stroke="none" /><path d="M 79.26566170972629 96.67025291283419 l -17.581491888118137 -2.823428487705931 a38.80675729708116,38.80675729708116 0 0,0 0.11159370636224919,-0.6586323719075321 l 17.530286320235664 3.1256466479292913" fill="#ffd213" stroke="none" /><path d="M 79.32604984820605 96.31383870115002 l -25.158403553372594 -4.485738469832037 a46.55517792882847,46.55517792882847 0 0,0 0.14745637896112446,-0.7877178726544446 l 25.07746145050161 4.918134419949054" fill="#cbff1d" stroke="none" /><path d="M 79.46518482838121 95.60439243477599 l -10.746909067625685 -2.3004441192010012 a31.990363854458217,31.990363854458217 0 0,0 0.11989624748538065,-0.53747136818537 l 10.705718433138268 2.48509365693633" fill="#ff760a" stroke="none" /><path d="M 79.54389044137918 95.25157060432595 l -15.46354287546123 -3.589516439608698 a36.874690123950415,36.874690123950415 0 0,0 0.14884591538368885,-0.6170624136923601 l 15.399464159816727 3.855164084960455" fill="#ffb911" stroke="none" /><path d="M 79.62865764111835 94.90015583598534 l -17.359218246800708 -4.34577684220233 a38.89492203118753,38.89492203118753 0 0,0 0.1681810281928678,-0.6480701069862267 l 17.281840886737534 4.643943374737421" fill="#ffd313" stroke="none" /><path d="M 79.81627453868168 94.20196356495316 l -15.2818482741113 -4.389908753860339 a36.89988004798081,36.89988004798081 0 0,0 0.18062333648656242,-0.6089720979622786 l 15.204019040513032 4.652310238569156" fill="#ffb911" stroke="none" /><path d="M 80.02781315780177 93.51064311812611 l -31.45799105456676 -10.22132089754731 a54.07688924430228,54.07688924430228 0 0,0 0.2952667840550397,-0.8828101020589239 l 31.27738697673995 10.761304102528555" fill="#76ff27" stroke="none" /><path d="M 80.2630227832202 92.82701384747504 l -16.813915896869677 -6.110661454046252 a38.88988404638145,38.88988404638145 0 0,0 0.23407156653173197,-0.6271954252438633 l 16.706239741836317 6.399180016319456" fill="#ffd313" stroke="none" /><path d="M 80.38941819471856 92.48833698450439 l -16.816799199435064 -6.441528856190903 a39.00827668932427,39.00827668932427 0 0,0 0.24557837077754002,-0.6249701671154546 l 16.70342727877583 6.730048028202122" fill="#ffd513" stroke="none" /><path d="M 80.52162464483688 92.15188598940014 l -12.656660451689559 -5.099548212165462 a34.64538184726109,34.64538184726109 0 0,0 0.22763387354612205,-0.5512334805488174 l 12.567004891257238 5.31665626316759" fill="#ff9b0e" stroke="none" /><path d="M 80.65960295795068 91.81776055985345 l -23.229355727553767 -9.827520613457096 a46.22267093162735,46.22267093162735 0 0,0 0.31631558232188195,-0.7300999755958535 l 23.056749435389204 10.225919733639548" fill="#cfff1d" stroke="none" /><path d="M 80.95270993114464 91.15688171328213 l -50.27616369034333 -23.341801427336282 a76.43042782886846,76.43042782886846 0 0,0 0.5642815036207345,-1.1885207563502822 l 49.86692399288084 24.203764599327098" fill="#43ffe2" stroke="none" /><path d="M 81.26839172434947 90.50648371742162 l -11.346815888688743 -5.750770559018891 a33.720911635345864,33.720911635345864 0 0,0 0.2668617818588493,-0.5154920221521362 l 11.24614467366978 5.945235303431363" fill="#ff8e0d" stroke="none" /><path d="M 81.43458229118936 90.18545643968196 l -15.84926963217976 -8.378661317726928 a38.927668932427025,38.927668932427025 0 0,0 0.31826502247630656,-0.5896967505687017 l 15.702696510484984 8.650239051628104" fill="#ffd413" stroke="none" /><line stroke="#e1ed5e" stroke-width="0.3" x1="26.266209847984243" x2="21.928928074336255" y1="57.711370442889674" y2="55.22380399835377" /><path d="M 25.398753493254645 57.213857153982495 a86.0,86.0 0 0,1 29.58750427330803,-30.492523968695096" fill="none" id="id11" stroke="none" /><text fill="#e1ed5e" style="font-size:6.75px; font-family:Arial;" text-anchor="middle"><textPath startOffset="21.46611528233685" xlink:href="#id11">November</textPath></text><path d="M 81.78341655067845 89.55222093294921 l -12.765447482319441 -7.321382484171612 a35.715953618552575,35.715953618552575 0 0,0 0.31045722857777913,-0.5306720398286627 l 12.637530579271337 7.540033936354167" fill="#ffa90f" stroke="none" /><path d="M 81.96595687620814 89.24020034530311 l -15.391309495295376 -9.183043727689133 a38.92263094762095,38.92263094762095 0 0,0 0.3482355925806643,-0.5724077518187151 l 15.230958104428495 9.446619252714923" fill="#ffd413" stroke="none" /><path d="M 82.15384107792192 88.93136811851018 l -49.239985708793284 -30.539864518755955 a78.94186325469812,78.94186325469812 0 0,0 0.7261614038920261,-1.148612952918845 l 48.706996708655296 31.382925119389018" fill="#47fffb" stroke="none" /><path d="M 82.54541684631803 88.32363383020206 l -14.913514090804878 -9.97650014723759 a38.942782886845265,38.942782886845265 0 0,0 0.37751418259694086,-0.5539554801575924 l 14.739575442539195 10.2317336506656" fill="#ffd413" stroke="none" /><path d="M 82.7489923806493 88.02491185347247 l -15.012722144548903 -10.421343203085625 a39.27528988404638,39.27528988404638 0 0,0 0.3902979691592801,-0.5520487983598841 l 14.831111555585744 10.678218501777295" fill="#ffd814" stroke="none" /><path d="M 83.17141714833178 87.43820079747576 l -14.178804392257202 -10.58385576951582 a38.69340263894442,38.69340263894442 0 0,0 0.4030084815111002,-0.5303119215454032 l 13.994519970521992 10.826352466942248" fill="#ffd113" stroke="none" /><path d="M 83.39014120810768 87.1503855733568 l -42.125019324707644 -32.588492341765374 a74.25905637744901,74.25905637744901 0 0,0 0.7908445208456535,-1.0042922299554744 l 41.55782072326802 33.30877696567389" fill="#41ffcb" stroke="none" /><path d="M 84.31358615837235 86.03803664274999 l -11.29158370215205 -10.050268945244788 a36.11647341063575,36.11647341063575 0 0,0 0.4173281881720135,-0.4608242087634781 l 11.116911873363991 10.243145941277822" fill="#ffaf10" stroke="none" /><path d="M 85.05521093208273 85.24692304244772 l -17.949880800126632 -17.71961930139597 a46.22267093162735,46.22267093162735 0 0,0 0.5638377863490434,-0.5614164877074023 l 17.642207213610273 18.025971639753482" fill="#cfff1d" stroke="none" /><path d="M 85.31137513191541 84.99185889309783 l -9.701187747741756 -9.912214106509808 a34.86957217113155,34.86957217113155 0 0,0 0.43257656374502634,-0.4161383115927486 l 9.529127940384303 10.077735504864869" fill="#ff9e0e" stroke="none" /><path d="M 86.10567301691215 84.25364557470407 l -11.761567235463922 -13.329311057094772 a38.7765293882447,38.7765293882447 0 0,0 0.5042909829945362,-0.4373161710869944 l 11.530382453822611 13.529792221601447" fill="#ffd213" stroke="none" /><path d="M 86.65592168130627 83.78471172551755 l -11.388618621052284 -13.839077497754012 a38.92263094762095,38.92263094762095 0 0,0 0.5210009180144974,-0.42127984251583583 l 11.148714304473287 14.033063437533983" fill="#ffd413" stroke="none" /><path d="M 86.93701828274178 83.55741782278169 l -11.205123821684959 -14.104066991118133 a39.01331467413035,39.01331467413035 0 0,0 0.5294059332118195,-0.41320972816959006 l 10.960685333313712 14.294855108510944" fill="#ffd513" stroke="none" /><path d="M 87.22198572758235 83.33499621200491 l -32.693527920512025 -42.638688220464054 a74.73010795681728,74.73010795681728 0 0,0 1.0275526715515113,-0.7739313688116339 l 31.954729095202126 43.19513617878154" fill="#41ffd0" stroke="none" /><path d="M 88.09926311788651 82.69761687909137 l -10.079700494754498 -14.654793348668829 a38.78660535785686,38.78660535785686 0 0,0 0.5533468992914322,-0.3736222964889143 l 9.825948901056526 14.82612755745641" fill="#ffd213" stroke="none" /><path d="M 88.39885842347998 82.49532879139004 l -13.995123650747127 -21.116890645140785 a46.33350659736105,46.33350659736105 0 0,0 0.6685990623829368,-0.4348754284667212 l 13.629557562579903 21.354664997767042" fill="#ceff1d" stroke="none" /><path d="M 88.70189139769569 82.29822771554957 l -10.111378042598057 -15.842413796195675 a39.79420231907237,39.79420231907237 0 0,0 0.5805800684375179,-0.36355918559305744 l 9.837178821788298 16.014117323111662" fill="#ffdf14" stroke="none" /><path d="M 89.00827224532344 82.1063720568725 l -13.404985535601345 -21.822212950553048 a46.61059576169532,46.61059576169532 0 0,0 0.6872575506674161,-0.41406498449990353 l 13.02736591871628 22.04972454451157" fill="#cbff1d" stroke="none" /><line stroke="#e1ed5e" stroke-width="0.3" x1="56.762969772571076" x2="54.21961505331055" y1="26.818313649435495" y2="22.513508569990535" /><path d="M 56.25429882871897 25.957352633546506 a86.0,86.0 0 0,1 42.265352541879196,-11.944610805530505" fill="none" id="id12" stroke="none" /><text fill="#e1ed5e" style="font-size:6.75px; font-family:Arial;" text-anchor="middle"><textPath startOffset="22.20632615414155" xlink:href="#id12">December</textPath></text><path d="M 89.63071344664047 81.73862282372117 l -8.834831154159861 -15.559043832440047 a38.89240303878449,38.89240303878449 0 0,0 0.5850082494311044,-0.32555645743341904 l 8.565698815656711 15.70881568743365" fill="#ffd313" stroke="none" /><path d="M 89.94658935756843 81.56283822128135 l -8.724881167292171 -16.00074355885998 a39.2249100359856,39.2249100359856 0 0,0 0.5955741364026476,-0.3181350776277798 l 8.448161984361217 16.148557362989507" fill="#ffd814" stroke="none" /><path d="M 90.58718382345135 81.22770947309562 l -8.019900036228506 -15.99435181278711 a38.89240303878449,38.89240303878449 0 0,0 0.6010334419569804,-0.29492449970870954 l 7.7433953272611005 16.13003147263065" fill="#ffd313" stroke="none" /><path d="M 91.90106846888425 80.62456947434976 l -6.346699683260206 -15.183489119241067 a37.45657736905238,37.45657736905238 0 0,0 0.5970152683539359,-0.24353751812222374 l 6.084400545317889 15.290487523546867" fill="#ffc011" stroke="none" /><path d="M 92.91201910852362 80.23233633223022 l -8.535334686469183 -23.804187392331976 a46.28816473410636,46.28816473410636 0 0,0 0.7523325534587474,-0.26247405546483765 l 8.124320128947149 23.947582300969025" fill="#cfff1d" stroke="none" /><path d="M 93.59665428221793 80.00007090966166 l -8.073438645294772 -25.21622407059732 a47.477129148340666,47.477129148340666 0 0,0 0.78046664017662,-0.2424947842198071 l 7.6381866324074235 25.351458989699655" fill="#c0ff1e" stroke="none" /><path d="M 94.28887869178378 79.79150937346287 l -5.506516562428072 -19.48450791556641 a41.247660935625746,41.247660935625746 0 0,0 0.6849117348969954,-0.18721224983802626 l 5.1703069383073545 19.576406706230735" fill="#fff116" stroke="none" /><path d="M 94.63758080256005 79.69619591428918 l -7.285900309804357 -27.586707982268674 a49.532626949220315,49.532626949220315 0 0,0 0.8262304257330348,-0.2106245323071808 l 6.809960995386323 27.70803551074472" fill="#a8ff21" stroke="none" /><path d="M 96.04723909329186 79.375362276772 l -3.329896823008149 -17.374669819699754 a38.69088364654138,38.69088364654138 0 0,0 0.655174618740495,-0.11972897380405544 l 3.0303270831647606 17.429414274854544" fill="#ffd113" stroke="none" /><path d="M 96.40284397218896 79.31037775812273 l -4.402884459150395 -25.323899083100645 a46.70379848060776,46.70379848060776 0 0,0 0.7932324228765655,-0.13089014645230176 l 3.9663228301349442 25.395935492492573" fill="#caff1d" stroke="none" /><path d="M 97.11714578562143 79.19881850522333 l -3.5967093183228496 -25.951989851320135 a47.200039984006395,47.200039984006395 0 0,0 0.8057390070526905,-0.10460804797978343 l 3.149455582762301 26.010056222464055" fill="#c4ff1e" stroke="none" /><path d="M 97.47563105711357 79.15227682838746 l -2.2731432612053255 -18.772953760411273 a39.91007596961215,39.91007596961215 0 0,0 0.6827156263686363,-0.07671105540139876 l 1.9496609313269715 18.809300769283272" fill="#ffe015" stroke="none" /><path d="M 97.83486435360386 79.11191278185805 l -1.9223911301028698 -18.546216104200717 a39.64558176729308,39.64558176729308 0 0,0 0.6794023190446782,-0.06451743663219653 l 1.6028636839679553 18.576559085348094" fill="#ffdd14" stroke="none" /><path d="M 98.91598698831166 79.02799685794201 l -3.2520390350650135 -62.91600942617398 a84.0,84.0 0 0,0 1.4446366704427036,-0.06220909390323026 l 2.1685615322329856 62.9626662466014" fill="#4dd2ff" stroke="none" /><path d="M 99.63851952072746 79.00311137660856 l -0.46061660911381874 -26.755291624904512 a47.75925629748101,47.75925629748101 0 0,0 0.8220970883863479,-0.0070760491850547745 l 6.554127514454755e-15 26.75925629748101" fill="#bdff1f" stroke="none" /></svg>