<?xml version="1.0" encoding="utf-8" ?>
<svg baseProfile="full" height="200mm" version="1.1" viewBox="0,0,200,200" width="200mm" xmlns="http://www.w3.org/2000/svg" xmlns:ev="http://www.w3.org/2001/xml-events" xmlns:xlink="http://www.w3.org/1999/xlink"><defs /><rect fill="#1a1a1a" height="200" width="200" x="0" y="0" /><text alignment-baseline="middle" fill="#e1ed5e" style="dominant-baseline: central; font-size:9.0px; font-family:Arial;" text-anchor="middle" x="100.0" y="100.0">2023</text><line stroke="#e1ed5e" stroke-width="0.3" x1="100.0" x2="100.0" y1="15.0" y2="10.0" /><path d="M 100.0 14.0 a86.0,86.0 0 0,1 42.46469731375804,11.215312516191453" fill="none" id="id49" stroke="none" /><text fill="#e1ed5e" style="font-size:6.75px; font-family:Arial;" text-anchor="middle"><textPath startOffset="22.20632615414155" xlink:href="#id49">January</textPath></text><path d="M 100.36148047927253 79.00311137660856 l 0.20029421730260846 -11.634253061398562 a32.63597705696203,32.63597705696203 0 0,0 0.5616082306084507,0.014504683690943258 l -0.4005290831059269 11.62908158556526" fill="#ff4906" stroke="none" /><path d="M 101.08401301168833 79.027996857942 l 0.6096501184208395 -11.794677795577913 a32.810423259493675,32.810423259493675 0 0,0 0.5637736145552781,0.03400836402893353 l -0.8125857818157295 11.782436162168676" fill="#ff4b07" stroke="none" /><path d="M 102.16513564639614 79.11191278185805 l 1.3020361813424524 -12.561358620799165 a33.62865901898734,33.62865901898734 0 0,0 0.5752635255208681,0.06463755987446211 l -1.5180664103730457 12.537085107454102" fill="#ff5808" stroke="none" /><path d="M 102.88285421437855 79.19881850522331 l 3.7261574942570985 -26.886020780926735 a48.142998417721515,48.142998417721515 0 0,0 0.8198776004453027,0.12082864598303181 l -4.188404075131057 26.817897650782736" fill="#d9ff1c" stroke="none" /><path d="M 103.2404852339499 79.25152402106235 l 2.604693827288847 -16.677572464082793 a37.879746835443036,37.879746835443036 0 0,0 0.6433618750026618,0.10616022191270234 l -2.891384908430384 16.630265979230465" fill="#ff980e" stroke="none" /><path d="M 103.59715602781102 79.31037775812273 l 4.625219805537876 -26.60269663655936 a48.001780063291136,48.001780063291136 0 0,0 0.8128412945834206,0.14854155103431857 l -5.082456221224197 26.519139604174306" fill="#dbff1b" stroke="none" /><path d="M 104.66035177308747 79.52364482259891 l 3.2302616275286895 -14.19291667705738 a35.55587420886076,35.55587420886076 0 0,0 0.5956054445722542,0.14096056549012934 l -3.474090759063467 14.135210199426382" fill="#ff750a" stroke="none" /><path d="M 105.36241919743992 79.69619591428918 l 1.7998467915457983 -6.814785508989572 a28.048457278481013,28.048457278481013 0 0,0 0.46574077414404286,0.1273045470332356 l -1.9168854549135521 6.782794421130043" fill="#ff0000" stroke="none" /><path d="M 105.71112130821622 79.79150937346287 l 2.473200178864597 -8.751283668275915 a30.09404667721519,30.09404667721519 0 0,0 0.4972823135848316,0.14517034371430654 l -2.623472710172856 8.707414995642905" fill="#ff2103" stroke="none" /><path d="M 106.40334571778207 80.00007090966166 l 2.6387204910994737 -8.241663817191442 a29.653777689873415,29.653777689873415 0 0,0 0.48479291744467173,0.15982860277911057 l -2.780196230786563 8.195021490153096" fill="#ff1a02" stroke="none" /><path d="M 108.43124777332544 80.76684994638697 l 2.9849552045594385 -6.809204627366953 a28.434731012658226,28.434731012658226 0 0,0 0.44658489259818485,0.200369623671643 l -3.1017222156244038 6.756814673178779" fill="#ff0601" stroke="none" /><path d="M 110.05341064243156 81.56283822128135 l 5.036647380790966 -9.236813842067708 a31.52076740506329,31.52076740506329 0 0,0 0.47412624367727957,0.26385074128081376 l -5.194897713540281 9.148747703226714" fill="#ff3705" stroke="none" /><path d="M 110.36928655335952 81.73862282372117 l 5.233864573610265 -9.21737234055846 a31.599683544303797,31.599683544303797 0 0,0 0.4706897269390392,0.27265387076275777 l -5.391751033014632 9.125914312405653" fill="#ff3905" stroke="none" /><line stroke="#e1ed5e" stroke-width="0.3" x1="143.23703022742887" x2="145.7803849466894" y1="26.81831364943548" y2="22.513508569990506" /><path d="M 143.74570117128098 25.957352633546492 a86.0,86.0 0 0,1 28.547481713284135,27.462654790039103" fill="none" id="id50" stroke="none" /><text fill="#e1ed5e" style="font-size:6.75px; font-family:Arial;" text-anchor="middle"><textPath startOffset="19.985693538727396" xlink:href="#id50">February</textPath></text><path d="M 110.68208982089419 81.91981866633111 l 8.472147978992428 -14.339700780856846 a37.655458860759495,37.655458860759495 0 0,0 0.5552170703463011,0.3345120725174447 l -8.717727115556366 14.191742098880788" fill="#ff940d" stroke="none" /><path d="M 111.60114157652 82.49532879139004 l 5.831546937643513 -8.799074738267844 a31.556071993670884,31.556071993670884 0 0,0 0.450192906298714,0.30397225995072263 l -5.982144538348769 8.697390566018452" fill="#ff3805" stroke="none" /><path d="M 111.90073688211348 82.69761687909136 l 5.713813050104914 -8.307265630143535 a31.082575158227847,31.082575158227847 0 0,0 0.43821821932866856,0.3069998673212199 l -5.855962409017233 8.20768092005838" fill="#ff3004" stroke="none" /><path d="M 112.19680574252982 82.90503203632743 l 9.675907403735582 -13.561692346180912 a37.65961234177215,37.65961234177215 0 0,0 0.5244633339834253,0.38104491651843536 l -9.907916054072796 13.393128194845803" fill="#ff940d" stroke="none" /><path d="M 112.77801427241765 83.33499621200491 l 5.091240061666406 -6.639962446779296 a29.3671875,29.3671875 0 0,0 0.3985091611442342,0.3110427213206476 l -5.204781777970071 6.551341336235424" fill="#ff1502" stroke="none" /><path d="M 113.6212207817346 84.01681056812373 l 6.802528179169283 -7.9821110196771325 a31.487539556962027,31.487539556962027 0 0,0 0.4094972532553166,0.35511198277006967 l -6.938919231071363 7.863834043487392" fill="#ff3705" stroke="none" /><path d="M 114.16331599549186 84.49514656593476 l 6.587230530735579 -7.211167494106882 a30.76691060126582,30.76691060126582 0 0,0 0.38794454129542566,0.3605521714106211 l -6.710382955825851 7.09671073662162" fill="#ff2b04" stroke="none" /><path d="M 114.68862486808459 84.99185889309783 l 18.13272391498219 -18.527158370001967 a46.923951740506325,46.923951740506325 0 0,0 0.5723922166949512,0.5699341826108156 l -18.448951931844462 18.212288336741032" fill="#e9ff1a" stroke="none" /><path d="M 114.94478906791727 85.2469230424477 l 6.08757774631638 -6.0094861538922 a29.55409414556962,29.55409414556962 0 0,0 0.3542772214439335,0.36511381854492914 l -6.190119231463422 5.903808139797157" fill="#ff1802" stroke="none" /><path d="M 115.9244219780498 86.31012108654704 l 7.93543931441782 -6.82192443086328 a31.464695411392405,31.464695411392405 0 0,0 0.3495418804446882,0.4137473352620062 l -8.051691808349625 6.684318145972167" fill="#ff3605" stroke="none" /><path d="M 116.38621287248628 86.86637796730983 l 8.21903398825657 -6.5875920638651655 a31.533227848101266,31.533227848101266 0 0,0 0.3358227492346964,0.42646078819393446 l -8.33121081808523 6.445138881718193" fill="#ff3705" stroke="none" /><path d="M 116.60985879189232 87.15038557335679 l 8.224442540645258 -6.3625414788570565 a31.398239715189874,31.398239715189874 0 0,0 0.32702621239632396,0.4303281619318289 l -8.332744693265695 6.2200285410441944" fill="#ff3505" stroke="none" /><path d="M 116.82858285166822 87.43820079747576 l 8.760448984491836 -6.53929104055455 a31.931962025316455,31.931962025316455 0 0,0 0.3250025781240586,0.4433031513159724 l -8.87171417512952 6.387525445567085" fill="#ff3e05" stroke="none" /><path d="M 117.45458315368197 88.32363383020206 l 8.682412308447416 -5.808160782642763 a31.446004746835442,31.446004746835442 0 0,0 0.2970949117296579,0.45249593307457087 l -8.781103855535 5.657846785590518" fill="#ff3605" stroke="none" /><path d="M 117.65298651832404 88.62581576622439 l 9.042965799537038 -5.826569850767174 a31.75751582278481,31.75751582278481 0 0,0 0.2921274127973542,0.46207541249548645 l -9.141920808580348 5.670046790557482" fill="#ff3b05" stroke="none" /><line stroke="#e1ed5e" stroke-width="0.3" x1="172.23445277983987" x2="176.4835382374775" y1="55.19839476539836" y2="52.563006222186495" /><path d="M 173.08426987136738 54.67131705675599 a86.0,86.0 0 0,1 12.851231095245387,41.99856678651699" fill="none" id="id51" stroke="none" /><text fill="#e1ed5e" style="font-size:6.75px; font-family:Arial;" text-anchor="middle"><textPath startOffset="22.20632615414155" xlink:href="#id51">March</textPath></text><path d="M 117.84615892207809 88.93136811851018 l 14.494709575457604 -8.989979592827913 a38.05626977848101,38.05626977848101 0 0,0 0.3404843746444765,0.559666787577159 l -14.647309748388304 8.739145032043671" fill="#ff9a0e" stroke="none" /><path d="M 118.03404312379186 89.2402003453031 l 19.689066068696814 -11.747249623007692 a43.92721518987342,43.92721518987342 0 0,0 0.3818327695414989,0.6526759760572001 l -19.88835851270864 11.406594234596596" fill="#ffed16" stroke="none" /><path d="M 118.21658344932153 89.55222093294921 l 7.270780340334427 -4.170019414024625 a29.381724683544306,29.381724683544306 0 0,0 0.24784514349235148,0.44088885496860525 l -7.341483125119211 4.044247049121227" fill="#ff1502" stroke="none" /><path d="M 118.3937258080291 89.86733742301442 l 9.438789875184238 -5.199603056959872 a31.776206487341774,31.776206487341774 0 0,0 0.2597960614970599,0.48136264577037674 l -9.526894035899764 5.036359427857037" fill="#ff3b05" stroke="none" /><path d="M 118.73160827565052 90.50648371742162 l 8.698935172315549 -4.408776944520186 a30.752373417721518,30.752373417721518 0 0,0 0.2352409936892734,0.4742314886775663 l -8.77353617895823 4.25838586734367" fill="#ff2b04" stroke="none" /><path d="M 119.04729006885535 91.15688171328212 l 10.028458497486737 -4.655929762508504 a32.0565664556962,32.0565664556962 0 0,0 0.22805603593292878,0.5024912452050948 l -10.107116850383012 4.482616508461346" fill="#ff4006" stroke="none" /><path d="M 119.196687751892 91.48605970444005 l 21.451994817679957 -9.514193566043057 a44.46716772151899,44.46716772151899 0 0,0 0.30430214802695016,0.7023713129066121 l -21.612587675549587 9.143523108549841" fill="#fff417" stroke="none" /><path d="M 119.7369772167798 92.82701384747503 l 24.51312271217737 -8.908775028635391 a47.08178401898734,47.08178401898734 0 0,0 0.27026495302223175,0.7640754164638273 l -24.66284074600941 8.48550198574495" fill="#e7ff1a" stroke="none" /><path d="M 119.85752413597 93.16781622104841 l 26.15922458616063 -9.000348113074963 a48.664260284810126,48.664260284810126 0 0,0 0.2657131324214905,0.7944484453343963 l -26.31027501235389 8.548726564818253" fill="#d2ff1c" stroke="none" /><path d="M 119.97218684219823 93.5106431181261 l 17.821305565383167 -5.790493190778102 a39.738429588607595,39.738429588607595 0 0,0 0.2057779191154445,0.6523722374832347 l -17.918338968266816 5.482870786868448" fill="#ffb210" stroke="none" /><path d="M 120.08093135843002 93.85539295169968 l 22.1005424335411 -6.762592151951562 a44.112045094936704,44.112045094936704 0 0,0 0.21592657629057865,0.7279970724008067 l -22.213674906943382 6.381165692804226" fill="#fff016" stroke="none" /><path d="M 120.18372546131832 94.20196356495316 l 19.98611976307163 -5.741271640043916 a41.79440268987342,41.79440268987342 0 0,0 0.1926786236503108,0.6931675255828317 l -20.081985157288305 5.396392811042133" fill="#ffd013" stroke="none" /><path d="M 120.28053869075195 94.5502522615342 l 45.76759225899521 -12.298580240485512 a68.39121835443038,68.39121835443038 0 0,0 0.29572254735435044,1.139539607775441 l -45.972511138219865 11.508944207161221" fill="#38ff7c" stroke="none" /><path d="M 120.45610955862082 95.25157060432595 l 41.476623247666424 -9.627872616644098 a63.57941060126582,63.57941060126582 0 0,0 0.23828840406770366,1.0682001917749067 l -41.63620603873616 8.912494255319228" fill="#31ff3e" stroke="none" /><path d="M 120.6074358757038 95.95851677861258 l 21.48985475764404 -4.214541195562742 a42.899228639240505,42.899228639240505 0 0,0 0.13587672084592925,0.7258588759746678 l -21.559217202399825 3.844004242125511" fill="#ffdf14" stroke="none" /><path d="M 120.67395015179393 96.31383870115 l 8.505106075105102 -1.516458762185124 a29.639240506329116,29.639240506329116 0 0,0 0.0852313600062675,0.5030403114276466 l -8.529949296631594 1.3698326624416395" fill="#ff1a02" stroke="none" /><path d="M 120.78858239683441 97.02765380044208 l 53.272798224799274 -7.616931078831507 a74.81457674050634,74.81457674050634 0 0,0 0.17130400849895683,1.2764138377294767 l -53.39601823235607 6.698798899037366" fill="#40ffc9" stroke="none" /><path d="M 120.87857604477298 97.74499172005257 l 22.75954744279397 -2.4581641880795604 a43.89191060126582,43.89191060126582 0 0,0 0.07466405742742256,0.7518568689242253 l -22.798488625903623 2.0660317884509" fill="#ffed16" stroke="none" /><path d="M 120.91429891909075 98.10471618934814 l 35.8078774907257 -3.244961294878929 a56.95460838607595,56.95460838607595 0 0,0 0.08007686721225836,0.9771406072564222 l -35.85842884175746 2.6281067704147376" fill="#6dff28" stroke="none" /><path d="M 120.94382443527127 98.46500227214037 l 22.787179236239563 -1.6700993870561396 a43.84829905063291,43.84829905063291 0 0,0 0.0486912580629718,0.7532322109732411 l -22.81255108530695 1.2776081118298634" fill="#ffec16" stroke="none" /><path d="M 120.96714384426684 98.82574320788733 l 25.149375760197053 -1.4084810751121988 a46.18878560126582,46.18878560126582 0 0,0 0.037624926748299536,0.794202737104219 l -25.16989429517885 0.9753672313849802" fill="#f2ff19" stroke="none" /><line stroke="#e1ed5e" stroke-width="0.3" x1="184.98032266829074" x2="189.97916517819016" y1="98.17113171792111" y2="98.06355123074" /><path d="M 185.9800911702706 98.14961562048488 a86.0,86.0 0 0,1 -9.607161424134198,41.387399972396054" fill="none" id="id52" stroke="none" /><text fill="#e1ed5e" style="font-size:6.75px; font-family:Arial;" text-anchor="middle"><textPath startOffset="21.466115282336823" xlink:href="#id52">April</textPath></text><path d="M 120.99824983174949 100.27111621757518 l 22.092600866295776 0.2852457910188287 a43.09444224683544,43.09444224683544 0 0,0 -0.015961231924783454,0.7416557290881455 l -22.084417571685982 -0.665491335897089" fill="#ffe215" stroke="none" /><path d="M 120.9764740272857 100.99374915477107 l 9.639801701423721 0.45668041161205847 a30.650613132911392,30.650613132911392 0 0,0 -0.029502892330988434,0.5267939614918401 l -9.630512458205203 -0.6225460894393219" fill="#ff2a04" stroke="none" /><path d="M 120.95626037817324 101.35467743843564 l 21.5116675954745 1.3905806775081042 a42.5565664556962,42.5565664556962 0 0,0 -0.053547187485204935,0.7306088297970909 l -21.484543849324957 -1.7606626438019655" fill="#ffda14" stroke="none" /><path d="M 120.89721153311464 102.0752229133903 l 25.288684486820014 2.5113234564039857 a46.41307357594937,46.41307357594937 0 0,0 -0.08579279507050944,0.7943347312299047 l -25.241709390248452 -2.946254509518682" fill="#efff19" stroke="none" /><path d="M 120.8583938346157 102.4346265915055 l 15.266314553994345 1.7819097511602326 a36.369956487341774,36.369956487341774 0 0,0 -0.07793300717562786,0.6212027461594989 l -15.23338003757187 -2.0444302516071264" fill="#ff810b" stroke="none" /><path d="M 120.81339534386255 102.79330883721812 l 8.34017780195125 1.119312441496024 a29.414952531645568,29.414952531645568 0 0,0 -0.07166876002777478,0.5012511407109852 l -8.319674990906872 -1.2627090541874184" fill="#ff1602" stroke="none" /><path d="M 120.76222939487914 103.15116336523771 l 21.388463568676432 3.24620933303809 a42.63340585443038,42.63340585443038 0 0,0 -0.11636533472281545,0.7246070503983579 l -21.32941647959233 -3.6138956131296527" fill="#ffdb14" stroke="none" /><path d="M 120.64145759157962 103.86396538481128 l 23.638061601116696 4.42491289122969 a45.048655063291136,45.048655063291136 0 0,0 -0.14923990248139773,0.7609710475120786 l -23.558391765659636 -4.831147665809714" fill="#fffc17" stroke="none" /><path d="M 120.49622156327973 104.57218783832717 l 18.976031079452625 4.233071849527191 a40.44244462025317,40.44244462025317 0 0,0 -0.1574163112211644,0.6781453487731456 l -18.900354202300907 -4.559085855648901" fill="#ffbd11" stroke="none" /><path d="M 120.41448212921028 104.9243191809786 l 15.763081137744651 3.802322405565756 a37.21518987341772,37.21518987341772 0 0,0 -0.15557488605938583,0.6214443352451211 l -15.695294937390205 -4.073094580208273" fill="#ff8e0d" stroke="none" /><path d="M 120.32669344350535 105.2749913415812 l 16.089285435306255 4.175339269977847 a37.62223101265823,37.62223101265823 0 0,0 -0.1680673268386436,0.6254410457468126 l -16.015030032125836 -4.451671248900208" fill="#ff940d" stroke="none" /><path d="M 120.23288151984713 105.62410040840565 l 21.15328554468194 5.879943583629807 a42.95530063291139,42.95530063291139 0 0,0 -0.20415501371122624,0.7106903853503981 l -21.048937894084613 -6.243191444484787" fill="#ffe015" stroke="none" /><path d="M 120.02730092923936 106.31721596034902 l 7.409229902718002 2.337095026470103 a28.769086234177216,28.769086234177216 0 0,0 -0.15303475540663872,0.47099254733065693 l -7.367902896295117 -2.464286473778555" fill="#ff0c01" stroke="none" /><path d="M 119.79798401119884 107.00284435728193 l 19.580660412974638 6.925973735875842 a41.76948180379747,41.76948180379747 0 0,0 -0.24559607776917272,0.6757749267025005 l -19.45854007420024 -7.2619964595844735" fill="#ffcf13" stroke="none" /><path d="M 119.54520255179757 107.68017299344265 l 14.461748960892942 5.682659645662372 a36.53817246835443,36.53817246835443 0 0,0 -0.23505769429939055,0.5833939203098832 l -14.361788652336159 -5.930752933815068" fill="#ff840c" stroke="none" /><path d="M 119.41010516605496 108.01547362559984 l 29.55856501701744 12.206317084712408 a52.97972705696203,52.97972705696203 0 0,0 -0.3553401225082088,0.8399190838341083 l -29.344073913316922 -12.713310694212678" fill="#9cff22" stroke="none" /><path d="M 118.97047184881838 109.00673069616215 l 9.421450714474474 4.473081641230848 a31.42939082278481,31.42939082278481 0 0,0 -0.23623938037904607,0.48672309537396374 l -9.343058077480714 -4.634593692570087" fill="#ff3605" stroke="none" /><path d="M 118.81262510543309 109.33194174019688 l 18.613559551014443 9.23319591679883 a41.777788765822784,41.777788765822784 0 0,0 -0.32511341969042973,0.6414796205673357 l -18.451867461537745 -9.552229749068859" fill="#ffcf13" stroke="none" /><path d="M 118.64920377521936 109.65438752849418 l 16.952480330480256 8.776021574556818 a40.089398734177216,40.089398734177216 0 0,0 -0.322523969662447,0.6100938042699033 l -16.798903852592915 -9.066530393912855" fill="#ffb711" stroke="none" /><line stroke="#e1ed5e" stroke-width="0.3" x1="174.80103733775053" x2="179.2010983576182" y1="140.37084112569926" y2="142.7455964860345" /><path d="M 175.68104954172406 140.8457921977663 a86.0,86.0 0 0,1 -30.038265399797805,32.042727171017184" fill="none" id="id53" stroke="none" /><text fill="#e1ed5e" style="font-size:6.75px; font-family:Arial;" text-anchor="middle"><textPath startOffset="22.206326154141568" xlink:href="#id53">May</textPath></text><path d="M 118.48025628344425 109.97397251340804 l 13.079825377829362 7.05930787959468 a35.86323180379747,35.86323180379747 0 0,0 -0.2978758885662462,0.5407312616483687 l -12.956373079811605 -7.283409659640854" fill="#ff7a0b" stroke="none" /><path d="M 118.12598468904814 110.60418214915192 l 19.705196764903697 11.528063129512178 a43.82960838607595,43.82960838607595 0 0,0 -0.38657531827422015,0.6479224691983556 l -19.50384057093125 -11.865547692596637" fill="#ffec16" stroke="none" /><path d="M 117.35343817320211 111.8261652097733 l 17.16981298683614 11.701026792304368 a41.777788765822784,41.777788765822784 0 0,0 -0.41009692747421933,0.5907752105007642 l -16.965855152199783 -11.994843264992152" fill="#ffcf13" stroke="none" /><path d="M 117.14729908036423 112.12312394758627 l 15.119196855273687 10.689257626253875 a39.51621835443038,39.51621835443038 0 0,0 -0.39745827835018094,0.5520347859450035 l -14.932958784547905 -10.94792601765001" fill="#ffaf10" stroke="none" /><path d="M 116.71984013943494 112.70617746262583 l 7.276900361318547 5.530052117584678 a30.139734968354432,30.139734968354432 0 0,0 -0.31746209075496173,0.4103625466212781 l -7.180631453345518 -5.654492658319209" fill="#ff2203" stroke="none" /><path d="M 116.498646956653 112.99209946851258 l 16.320803550969142 12.852054092516937 a41.773635284810126,41.773635284810126 0 0,0 -0.4497271755356619,0.5611038001951637 l -16.097158463378626 -13.131085726290351" fill="#ffcf13" stroke="none" /><path d="M 116.0416608686014 113.55231037782055 l 9.880089387821352 8.346893693934572 a33.93393987341772,33.93393987341772 0 0,0 -0.3807993862355098,0.4429557159514075 l -9.734947492015063 -8.515726509047507" fill="#ff5d08" stroke="none" /><path d="M 115.80600337817218 113.82643327865902 l 28.141938767861145 24.617395643688397 a58.38963607594937,58.38963607594937 0 0,0 -0.6682586811004075,0.7507957123779468 l -27.714021237112398 -25.09816552580721" fill="#5cff2a" stroke="none" /><path d="M 115.56566222782051 114.09645910891815 l 5.6908873868920535 5.15373905514937 a28.677709651898734,28.677709651898734 0 0,0 -0.33450990427087374,0.363044434577568 l -5.601331074625458 -5.250934744528273" fill="#ff0a01" stroke="none" /><path d="M 115.32070863581623 114.36230785411682 l 21.868978288110323 20.500944577365726 a50.97567246835443,50.97567246835443 0 0,0 -0.6056236342812439,0.634993959292502 l -21.512848102450114 -20.874345653240738" fill="#b5ff20" stroke="none" /><path d="M 114.81725581225074 114.88116024355365 l 15.284690998574709 15.350611402344557 a42.66248022151899,42.66248022151899 0 0,0 -0.5248501808093413,0.5136763682418516 l -15.018190865389574 -15.61143787350898" fill="#ffdc14" stroke="none" /><path d="M 114.0293411484842 115.62618273729858 l 15.538827221422375 17.307480879919304 a44.25949367088607,44.25949367088607 0 0,0 -0.571279724570293,0.504087935378657 l -15.238605143945493 -17.572391957070252" fill="#fff216" stroke="none" /><path d="M 113.75828350139079 115.86535959552629 l 14.155575706929369 16.323496957264187 a42.6064082278481,42.6064082278481 0 0,0 -0.5582139915491791,0.4757220737921304 l -13.872496238803143 -16.564743421279264" fill="#ffdb14" stroke="none" /><path d="M 113.48314897796784 116.09983520530334 l 8.338964963232877 9.957315009292632 a33.98793512658228,33.98793512658228 0 0,0 -0.45176418871020424,0.37177117135911975 l -8.166330645977983 -10.099381299508929" fill="#ff5d08" stroke="none" /><path d="M 113.20401910651253 116.32954008644616 l 14.379218591862733 17.782920829899634 a43.8690664556962,43.8690664556962 0 0,0 -0.5912766934175905,0.46974596524482976 l -14.07098440572779 -18.027800709149588" fill="#ffec16" stroke="none" /><path d="M 112.34349029814194 116.9893568818739 l 18.45664292997489 25.40338964140954 a52.4003164556962,52.4003164556962 0 0,0 -0.734284816427704,0.5238927200501047 l -18.0166307856983 -25.71732662330386" fill="#a3ff22" stroke="none" /><path d="M 111.7513745106137 117.40417183066458 l 4.6229200754767925 6.84669655284649 a29.261273734177216,29.261273734177216 0 0,0 -0.4198648630096821,0.2782635366716103 l -4.504380513727146 -6.925258110609419" fill="#ff1402" stroke="none" /><path d="M 111.1453310114006 117.79835938074945 l 17.77499537389809 28.385496611288218 a54.49159414556962,54.49159414556962 0 0,0 -0.7992640202705846,0.4909732415832858 l -17.283752153695197 -28.68725831969988" fill="#8aff24" stroke="none" /><line stroke="#e1ed5e" stroke-width="0.3" x1="143.8653032363475" x2="146.44561519142675" y1="172.8068346515853" y2="177.08958963109032" /><path d="M 144.38136562736335 173.6633856474863 a86.0,86.0 0 0,1 -40.68145358897372,12.25698825130547" fill="none" id="id54" stroke="none" /><text fill="#e1ed5e" style="font-size:6.75px; font-family:Arial;" text-anchor="middle"><textPath startOffset="21.466115282336833" xlink:href="#id54">June</textPath></text><path d="M 109.57404056367764 118.69057910512821 l 6.193018129649468 12.090098687365868 a34.58395965189874,34.58395965189874 0 0,0 -0.5321748294461026,0.2668435072525111 l -5.983989392520606 -12.19491003552768" fill="#ff6609" stroke="none" /><path d="M 108.92500713936063 119.00905698771935 l 9.629334245492924 20.509178375792928 a43.65723892405063,43.65723892405063 0 0,0 -0.682990485856142,0.31352743348863615 l -9.274875763869362 -20.671892879615637" fill="#ffe915" stroke="none" /><path d="M 108.59647513512805 119.15986991738527 l 8.519963786021883 18.989341011870568 a41.81309335443038,41.81309335443038 0 0,0 -0.659211939917008,0.28897914200647273 l -8.191831171447122 -19.133184707171498" fill="#ffd013" stroke="none" /><path d="M 108.2653958097858 119.30500536409082 l 8.742748574116783 20.419930515656187 a43.2128164556962,43.2128164556962 0 0,0 -0.6863194096891642,0.2868815689122229 l -8.389957704930158 -20.567397127588382" fill="#ffe315" stroke="none" /><path d="M 107.59598834532513 119.57807347666477 l 15.873301990216108 40.91221030808973 a64.8836036392405,64.8836036392405 0 0,0 -1.044718027372106,0.39502296498403194 l -15.166713742083727 -41.179381523180396" fill="#33ff50" stroke="none" /><path d="M 107.2578585660854 119.70592522655815 l 7.723676426982301 20.97067458099211 a43.347804588607595,43.347804588607595 0 0,0 -0.7024004757689424,0.25185582039882437 l -7.361556390583623 -21.100517942430894" fill="#ffe515" stroke="none" /><path d="M 106.91757812671514 119.82793768551818 l 3.9718610169806268 11.384593176633565 a33.05755537974684,33.05755537974684 0 0,0 -0.5388857981710069,0.18281932105969914 l -3.775305485872393 -11.451275484591386" fill="#ff4f07" stroke="none" /><path d="M 106.57524785965236 119.94407469862006 l 8.754859294141559 26.555283004570857 a48.96123417721519,48.96123417721519 0 0,0 -0.8026813259628154,0.2569932127324721 l -8.296456623087803 -26.702049063963038" fill="#ceff1d" stroke="none" /><path d="M 106.2309692047433 120.05430185196036 l 3.718123831232309 11.96673826886163 a33.531052215189874,33.531052215189874 0 0,0 -0.5526636335727642,0.16651301922655803 l -3.511585223219299 -12.028966657193912" fill="#ff5608" stroke="none" /><path d="M 105.18746579009965 120.34920634021253 l 7.710404551542504 30.24610080037522 a52.21340981012658,52.21340981012658 0 0,0 -0.872826000295311,0.21451939512150503 l -7.188625266503982 -30.374341453810757" fill="#a5ff21" stroke="none" /><path d="M 104.83641907484287 120.43548508189849 l 5.167392373872857 21.83395775562019 a43.43710443037975,43.43710443037975 0 0,0 -0.7290811466869954,0.16593649530153806 l -4.790791077792999 -21.919670984499415" fill="#ffe615" stroke="none" /><path d="M 104.48393922423573 120.51570834832081 l 4.450238731648514 20.361515920069987 a41.84216772151899,41.84216772151899 0 0,0 -0.7049579148655946,0.14773078523750477 l -4.0990893553535415 -20.435102686034032" fill="#ffd013" stroke="none" /><path d="M 103.41894727170886 120.7198165907248 l 1.8125965509920092 10.98486320637615 a32.13340585443038,32.13340585443038 0 0,0 -0.5465190548245069,0.08535503663154989 l -1.6232416325589851 -11.014436550354805" fill="#ff4106" stroke="none" /><path d="M 102.34483914955558 120.86867818915974 l 1.8608914334635671 16.561624057358273 a37.665842563291136,37.665842563291136 0 0,0 -0.6449242479592745,0.06684903523713506 l -1.57553458889869 -16.591202461051168" fill="#ff940d" stroke="none" /><path d="M 101.62511606390274 120.93702456842531 l 1.612741267925625 20.777595089413374 a41.84009098101266,41.84009098101266 0 0,0 -0.7185283285786086,0.04955392039462053 l -1.2548501785680861 -20.802277354324282" fill="#ffd013" stroke="none" /><path d="M 100.90346689309514 120.98055641714683 l 0.8967659420486496 20.8249450908725 a41.844244462025316,41.844244462025316 0 0,0 -0.7198797106514468,0.02479411278803761 l -0.5381658797225504 -20.83729600208663" fill="#ffd013" stroke="none" /><line stroke="#e1ed5e" stroke-width="0.3" x1="102.19456741930631" x2="102.32365962044197" y1="184.97166512339345" y2="189.96999836594603" /><path d="M 102.22038585953345 185.97133177190398 a86.0,86.0 0 0,1 -42.740103519485714,-10.115201625700543" fill="none" id="id55" stroke="none" /><text fill="#e1ed5e" style="font-size:6.75px; font-family:Arial;" text-anchor="middle"><textPath startOffset="22.20632615414155" xlink:href="#id55">July</textPath></text><path d="M 100.18074693466247 120.99922214144158 l 0.375793468586196 43.65977514850352 a64.66139240506328,64.66139240506328 0 0,0 -1.1130808064972728,0.0 l 0.3757934685861659 -43.65977514850352" fill="#32ff4d" stroke="none" /><path d="M 99.81925306533755 120.99922214144158 l -0.07537676260596757 8.757290325401417 a29.757614715189874,29.757614715189874 0 0,0 -0.5121714995577493,-0.00881749684206104 l 0.22610795205638481 -8.754695351280196" fill="#ff1b02" stroke="none" /><path d="M 99.45781275523022 120.99299961872073 l -0.5439030271899378 21.059433161817953 a42.06645569620253,42.06645569620253 0 0,0 -0.72370258667706,-0.02492578036798302 l 0.9063259655416408 -21.046950583023875" fill="#ffd313" stroke="none" /><path d="M 99.09653310690486 120.98055641714683 l -0.9218721719695042 21.407968859980322 a42.4278085443038,42.4278085443038 0 0,0 -0.7293783388362759,-0.03770052886157193 l 1.290238579219269 -21.388928524356547" fill="#ffd814" stroke="none" /><path d="M 98.01472825383883 120.90594882070398 l -4.149791228106091 43.69946995878363 a64.89606408227849,64.89606408227849 0 0,0 -1.1111671072658045,-0.11517701395628291 l 4.901390931977489 -43.621563576371585" fill="#33ff50" stroke="none" /><path d="M 97.2962882734958 120.8252237178851 l -0.9735180375990676 7.498480968831055 a28.561412183544306,28.561412183544306 0 0,0 -0.4870011951550151,-0.06749392808348544 l 1.102447823940914 -7.480612475254965" fill="#ff0801" stroke="none" /><path d="M 96.58105272829116 120.7198165907248 l -3.5673766479232634 21.619341856085583 a42.911689082278485,42.911689082278485 0 0,0 -0.7277639144059566,-0.12653108504949065 l 3.9389895338012697 -21.554732192515086" fill="#ffdf14" stroke="none" /><path d="M 95.16358092515715 120.4354850818985 l -4.834984219500235 20.429422339093346 a41.99376977848101,41.99376977848101 0 0,0 -0.7019892829516949,-0.1725318864351266 l 5.18592678719514 -20.343169194344192" fill="#ffd213" stroke="none" /><path d="M 94.46302465271185 120.25689768951611 l -5.534785088052674 20.248884676189565 a41.991693037974684,41.991693037974684 0 0,0 -0.6956000574490414,-0.19658352439627155 l 5.882516313606329 -20.150612358454772" fill="#ffd213" stroke="none" /><path d="M 94.11515582081647 120.15858648285463 l -5.887172044760746 20.1665606072545 a42.008306962025316,42.008306962025316 0 0,0 -0.6923869676644291,-0.20861051362038993 l 6.233433986865421 -20.062234724528384" fill="#ffd313" stroke="none" /><path d="M 92.40401165467489 119.57807347666478 l -5.301867656379021 13.665154529104035 a35.657634493670884,35.657634493670884 0 0,0 -0.5703165668869953,-0.22694073195686676 l 5.536305299307874 -13.571866952741102" fill="#ff770a" stroke="none" /><path d="M 91.7346041902142 119.30500536409082 l -8.203274559633135 19.159912364914508 a41.84216772151899,41.84216772151899 0 0,0 -0.6596703171475266,-0.28918008111386245 l 8.531865551438404 -19.015867730506194" fill="#ffd013" stroke="none" /><path d="M 91.07499286063937 119.00905698771935 l -8.873815444929964 18.900025608636305 a41.87954905063291,41.87954905063291 0 0,0 -0.6499054526411312,-0.3119941119570634 l 9.197833565571337 -18.74447722017968" fill="#ffd113" stroke="none" /><path d="M 90.7491055286396 118.85261126421891 l -12.026528750049811 24.50914039551244 a48.30083069620253,48.30083069620253 0 0,0 -0.7432487950073533,-0.3726803754085692 l 12.446631452739926 -24.298492179194568" fill="#d7ff1c" stroke="none" /><line stroke="#e1ed5e" stroke-width="0.3" x1="58.666819895761336" x2="56.23545636021788" y1="174.27360380694188" y2="178.64263932499728" /><path d="M 58.180547188652646 175.14741091055294 a86.0,86.0 0 0,1 -31.652253787137756,-30.449443065178592" fill="none" id="id56" stroke="none" /><text fill="#e1ed5e" style="font-size:6.75px; font-family:Arial;" text-anchor="middle"><textPath startOffset="22.20632615414155" xlink:href="#id56">August</textPath></text><path d="M 89.4739219176387 118.17145234162733 l -10.521914285651492 18.164264267125102 a41.991693037974684,41.991693037974684 0 0,0 -0.6223411439681679,-0.36769011750597164 l 10.833023300648042 -17.980455577325383" fill="#ffd213" stroke="none" /><path d="M 89.1626897886671 117.98757091392108 l -10.835166755990473 17.98401324562323 a41.99584651898734,41.99584651898734 0 0,0 -0.6159806782999261,-0.37838564317608164 l 11.143126634222709 -17.79483913561877" fill="#ffd213" stroke="none" /><path d="M 87.65650970185807 116.9893568818739 l -15.938385366182677 21.93730545951617 a48.11600079113924,48.11600079113924 0 0,0 -0.6658682377741578,-0.4925934036440215 l 16.3136385743754 -21.659702107132382" fill="#d9ff1c" stroke="none" /><path d="M 87.07902340077011 116.55440617244103 l -15.692495412889851 20.105287005908654 a46.50445015822785,46.50445015822785 0 0,0 -0.6267969605993078,-0.49796541373448466 l 16.036249866206518 -19.83218767816904" fill="#eeff19" stroke="none" /><path d="M 86.79598089348748 116.32954008644616 l -14.516325198486918 17.952481916635875 a44.08712420886076,44.08712420886076 0 0,0 -0.5860015863454116,-0.4822394107773843 l 14.82319691337702 -17.69994738700131" fill="#ffef16" stroke="none" /><path d="M 86.24171649860922 115.8653595955263 l -10.895602677921023 12.564260249305242 a37.63053797468355,37.63053797468355 0 0,0 -0.48571643248938207,-0.42858827839063757 l 11.110261463316993 -12.374848829142316" fill="#ff940d" stroke="none" /><path d="M 85.70375840098266 115.38237550388516 l -17.45606161224951 18.78225774787085 a46.64151503164557,46.64151503164557 0 0,0 -0.5833835537397787,-0.5516255630264182 l 17.776781000380105 -18.478997548098505" fill="#ecff1a" stroke="none" /><path d="M 85.44109423537348 115.13401014063109 l -16.00299026639871 16.635138717673513 a44.0829707278481,44.0829707278481 0 0,0 -0.5423255993788584,-0.5307797434001793 l 16.286965818153362 -16.357208871350764" fill="#ffef16" stroke="none" /><path d="M 84.9287848128048 114.62390073753433 l -15.738927252450674 15.271795074007365 a42.93037974683544,42.93037974683544 0 0,0 -0.510040404459473,-0.5347753249610915 l 15.999474208289104 -14.998612632463772" fill="#ffdf14" stroke="none" /><path d="M 84.43433777217949 114.09645910891817 l -15.708819524812924 14.226104154124796 a42.19313686708861,42.19313686708861 0 0,0 -0.48289271674196116,-0.5425350863701408 l 15.951371091203224 -13.953594898013792" fill="#ffd513" stroke="none" /><path d="M 83.95833913139862 113.55231037782056 l -17.616954504135524 14.883149401275451 a44.06220332278481,44.06220332278481 0 0,0 -0.484482809558825,-0.5835907543332012 l 17.870533313587885 -14.577697389828488" fill="#ffef16" stroke="none" /><path d="M 83.28015986056508 112.70617746262583 l -21.55291892974033 16.37905688541612 a48.0703125,48.0703125 0 0,0 -0.4949839754557819,-0.6631119242482246 l 21.831664171891198 -16.005632081658586" fill="#daff1c" stroke="none" /><path d="M 83.06392112726016 112.41649034213515 l -37.777906947539535 27.69643553769782 a67.8429588607595,67.8429588607595 0 0,0 -0.6823716122106067,-0.947754487452751 l 38.24905835212575 -27.04204744479393" fill="#37ff76" stroke="none" /><path d="M 82.85270091963577 112.12312394758628 l -17.318568582650308 12.24421132087606 a42.20975079113924,42.20975079113924 0 0,0 -0.4143371303332308,-0.5968835389684504 l 17.526766620145672 -11.944286519720597" fill="#ffd513" stroke="none" /><path d="M 82.44556493220864 111.52570212397912 l -23.444684097164004 15.393058463641019 a49.046380537974684,49.046380537974684 0 0,0 -0.45728775134734106,-0.7097207451201697 l 23.70617671188839 -14.9872161185994" fill="#cdff1d" stroke="none" /><path d="M 82.24976979558568 111.22182372390057 l -27.308181496249368 17.2644295562422 a53.30785205696203,53.30785205696203 0 0,0 -0.4836681333428837,-0.7798270342350706 l 27.601314269260207 -16.791806190641864" fill="#98ff23" stroke="none" /><path d="M 82.05923443525364 110.91462005526583 l -13.39347698262167 8.14818698548277 a36.677314082278485,36.677314082278485 0 0,0 -0.3234923807647871,-0.5421918374087611 l 13.53175023908469 -7.916433054187897" fill="#ff860c" stroke="none" /><line stroke="#e1ed5e" stroke-width="0.3" x1="26.63291911575756" x2="22.317208475507996" y1="142.92168965132927" y2="145.44649492493687" /><path d="M 25.769776987707644 143.4266507060508 a86.0,86.0 0 0,1 -11.730757126820373,-40.83630448921669" fill="none" id="id57" stroke="none" /><text fill="#e1ed5e" style="font-size:6.75px; font-family:Arial;" text-anchor="middle"><textPath startOffset="21.46611528233685" xlink:href="#id57">September</textPath></text><path d="M 81.87401531095188 110.60418214915194 l -23.38703740486659 13.682037628558678 a48.09523338607595,48.09523338607595 0 0,0 -0.41189674852720487,-0.7181766999374475 l 23.619086149546174 -13.277441082762923" fill="#d9ff1c" stroke="none" /><path d="M 81.18737489456691 109.33194174019688 l -20.76235128329047 10.299097094600196 a44.17642405063291,44.17642405063291 0 0,0 -0.33205260337141,-0.6841267136774587 l 20.9365571432766 -9.940181424957453" fill="#fff016" stroke="none" /><path d="M 81.02952815118164 109.00673069616217 l -24.5254132198974 11.644085283912974 a48.149228639240505,48.149228639240505 0 0,0 -0.349025465641675,-0.7517698022290736 l 24.7222133023789 -11.220195414405072" fill="#d9ff1c" stroke="none" /><path d="M 80.73074385275274 108.34839909993369 l -22.92797566887649 9.933538169541352 a45.9873417721519,45.9873417721519 0 0,0 -0.3084415221991261,-0.7290646463260066 l 23.09556817226792 -9.537398997549186" fill="#f5ff19" stroke="none" /><path d="M 80.45479744820244 107.68017299344265 l -58.6356076553927 23.04051898032796 a84.0,84.0 0 0,0 -0.5172228816259636,-1.3503057326673686 l 59.02352481661217 -22.027789680827432" fill="#4dd2ff" stroke="none" /><path d="M 80.0844068197444 106.66101706037122 l -26.609926766063435 8.900019927084218 a49.05884098101266,49.05884098101266 0 0,0 -0.2609644139876525,-0.8031658807183891 l 26.75918343106734 -8.440655146388027" fill="#cdff1d" stroke="none" /><path d="M 79.86692584326677 105.97154293290107 l -20.51733872479587 6.085517199717719 a42.400810917721515,42.400810917721515 0 0,0 -0.20151967293279402,-0.7015164183764501 l 20.619051034614767 -5.731443305836673" fill="#ffd814" stroke="none" /><path d="M 79.67330655649465 105.27499134158121 l -43.23241652387949 11.219268075888756 a65.66445806962025,65.66445806962025 0 0,0 -0.27450459387900955,-1.0965093993368142 l 43.419132432053566 -10.47343083715455" fill="#34ff5a" stroke="none" /><path d="M 79.4281124754447 104.21870165774334 l -27.476652779533598 5.634670153231958 a49.04845727848101,49.04845727848101 0 0,0 -0.1624906885859088,-0.8285365203826188 l 27.569573401095173 -5.160869905781384" fill="#cdff1d" stroke="none" /><path d="M 79.23777060512086 103.15116336523772 l -20.57333252934029 3.1224937618356394 a41.80893987341772,41.80893987341772 0 0,0 -0.10186638498158906,-0.7124532593048433 l 20.62403296533848 -2.7678950305503953" fill="#ffd013" stroke="none" /><path d="M 79.10278846688536 102.07522291339032 l -27.239531766019006 2.7050547093945547 a48.37351661392405,48.37351661392405 0 0,0 -0.07515264328699409,-0.8293031563032287 l 27.282059005583076 -2.23577016454276" fill="#d6ff1c" stroke="none" /><path d="M 79.07016306316243 101.71520430193888 l -29.28148765283239 2.399623740064215 a50.37964794303797,50.37964794303797 0 0,0 -0.06339065104449058,-0.8649150693952812 l 29.318454862541213 -1.8952355341721732" fill="#bcff1f" stroke="none" /><line stroke="#e1ed5e" stroke-width="0.3" x1="15.007084014347285" x2="10.007500721073583" y1="101.09737516637583" y2="101.16192664675087" /><path d="M 14.007167355692545 101.11028546245083 a86.0,86.0 0 0,1 10.666146001902534,-42.60595125391555" fill="none" id="id58" stroke="none" /><text fill="#e1ed5e" style="font-size:6.75px; font-family:Arial;" text-anchor="middle"><textPath startOffset="22.20632615414155" xlink:href="#id58">October</textPath></text><path d="M 79.01574976396665 99.18683210126434 l -16.34621628849236 -0.6334378499150263 a37.35848496835443,37.35848496835443 0 0,0 0.030431851412934138,-0.6423682854982882 l 16.332890828845926 0.9147172420363235" fill="#ff900d" stroke="none" /><path d="M 79.03285615573316 98.82574320788736 l -31.83845863614691 -1.7831005778174112 a52.88835047468355,52.88835047468355 0 0,0 0.05872976551528972,-0.9085234781120005 l 31.80304827962721 2.3308831201824236" fill="#9dff22" stroke="none" /><path d="M 79.08570108090925 98.10471618934814 l -26.986725899554617 -2.4455758664344738 a48.09731012658228,48.09731012658228 0 0,0 0.08181781736546517,-0.8238942552299638 l 26.940630956506922 2.909745652368868" fill="#d9ff1c" stroke="none" /><path d="M 79.16333360222342 97.38593545837743 l -23.297008533748222 -2.9227268302595624 a44.479628164556964,44.479628164556964 0 0,0 0.1018456420272265,-0.7588683296735685 l 23.243246892663162 3.32331350199779" fill="#fff517" stroke="none" /><path d="M 79.26566170972629 96.67025291283419 l -26.943157153302675 -4.326827207808422 a48.28837025316456,48.28837025316456 0 0,0 0.1388592757052783,-0.8195553055854795 l 26.864686016077172 4.789968301709729" fill="#d7ff1c" stroke="none" /><path d="M 79.46518482838121 95.60439243477599 l -32.5202264792626 -6.961160952284144 a54.25692246835443,54.25692246835443 0 0,0 0.2033487782026074,-0.9115726999938455 l 32.39558331405795 7.519911821827949" fill="#8cff24" stroke="none" /><path d="M 79.71946130924805 94.55025226153421 l -27.169744624566526 -7.301002038468753 a49.133603639240505,49.133603639240505 0 0,0 0.22651346866796584,-0.8148894652305417 l 27.0400443853322 7.767602807118237" fill="#ccff1d" stroke="none" /><path d="M 79.91906864156998 93.8553929516997 l -30.80254413574051 -9.425336226877576 a53.212321993670884,53.212321993670884 0 0,0 0.2755499148939194,-0.8735685310181943 l 30.635738737078388 9.954154924322184" fill="#99ff23" stroke="none" /><path d="M 80.02781315780177 93.51064311812611 l -26.09498937491327 -8.478776020897731 a48.43789556962025,48.43789556962025 0 0,0 0.26447715190537785,-0.7907530209097862 l 25.945174929236117 8.92670214472984" fill="#d5ff1c" stroke="none" /><path d="M 80.38941819471856 92.48833698450439 l -26.194632955294338 -10.033626616920422 a49.05053401898734,49.05053401898734 0 0,0 0.308799856145603,-0.7858619514801191 l 26.018039549267044 10.483037573296304" fill="#cdff1d" stroke="none" /><path d="M 80.65960295795068 91.81776055985345 l -28.8002075414536 -12.184351413145436 a52.2715585443038,52.2715585443038 0 0,0 0.3577099320866026,-0.8256438420446298 l 28.586206899524317 12.678294399776664" fill="#a5ff21" stroke="none" /><path d="M 80.95270993114464 91.15688171328213 l -29.20760282908141 -13.560264255720663 a53.20193829113924,53.20193829113924 0 0,0 0.3927868858941861,-0.8273093548379001 l 28.969857749345472 14.061016026199095" fill="#99ff23" stroke="none" /><path d="M 81.6062741919709 89.86733742301443 l -29.122186529523937 -16.042714384645866 a54.248615506329116,54.248615506329116 0 0,0 0.45760608130529334,-0.8140301575834215 l 28.841722806926214 16.54162805216407" fill="#8cff24" stroke="none" /><line stroke="#e1ed5e" stroke-width="0.3" x1="26.266209847984243" x2="21.928928074336255" y1="57.711370442889674" y2="55.22380399835377" /><path d="M 25.398753493254645 57.213857153982495 a86.0,86.0 0 0,1 29.58750427330803,-30.492523968695096" fill="none" id="id59" stroke="none" /><text fill="#e1ed5e" style="font-size:6.75px; font-family:Arial;" text-anchor="middle"><textPath startOffset="21.46611528233685" xlink:href="#id59">November</textPath></text><path d="M 82.15384107792192 88.93136811851018 l -28.530558260909245 -17.69536224250044 a54.57258702531646,54.57258702531646 0 0,0 0.501996086416989,-0.7940372540907679 l 28.221734578246295 18.18384714430542" fill="#89ff25" stroke="none" /><path d="M 82.34701348167596 88.62581576622439 l -28.815288317984244 -18.56628609203917 a55.27867879746835,55.27867879746835 0 0,0 0.5222607555422151,-0.795438960941699 l 28.491430927084107 19.059543116958537" fill="#80ff25" stroke="none" /><path d="M 82.95767976084542 87.72973835380427 l -25.47415648880751 -18.34108037799135 a52.38993275316456,52.38993275316456 0 0,0 0.5332232074879916,-0.7273158557653335 l 25.154670668805885 18.776858677428184" fill="#a3ff21" stroke="none" /><path d="M 83.39014120810768 87.1503855733568 l -25.06426377625445 -19.3900580039704 a52.68898338607595,52.68898338607595 0 0,0 0.5611274348546638,-0.7125748588822416 l 24.726782260805813 19.81862525680569" fill="#9fff22" stroke="none" /><path d="M 84.07557802195018 86.31012108654704 l -33.63939654599704 -28.919056909638915 a65.3612539556962,65.3612539556962 0 0,0 0.7407862022957407,-0.846846687067323 l 33.13661848012345 29.49381915290918" fill="#33ff56" stroke="none" /><path d="M 84.80347519578584 85.50635884689758 l -19.774117224470917 -18.859506555826897 a48.325751582278485,48.325751582278485 0 0,0 0.5793008884126222,-0.5970204874949192 l 19.44655207235518 19.197091238871938" fill="#d6ff1c" stroke="none" /><path d="M 85.31137513191541 84.99185889309783 l -23.72811384693055 -24.244262755265733 a54.92355617088607,54.92355617088607 0 0,0 0.6813574620433275,-0.6554653386468644 l 23.3072731412748 24.64911118067491" fill="#84ff25" stroke="none" /><path d="M 85.57189188830299 84.74124197986013 l -30.875181114419675 -32.652716059909665 a65.9385878164557,65.9385878164557 0 0,0 0.8314294384522867,-0.7727230505878033 l 30.308543792172532 33.17934369657212" fill="#34ff5d" stroke="none" /><path d="M 86.10567301691215 84.25364557470407 l -17.872182661098062 -20.254433545275344 a48.012163765822784,48.012163765822784 0 0,0 0.6244009364206135,-0.541474339114953 l 17.520887926030674 20.559072877809978" fill="#daff1b" stroke="none" /><path d="M 86.93701828274178 83.55741782278169 l -19.377445189762007 -24.39069745433887 a52.151107594936704,52.151107594936704 0 0,0 0.7076841846159516,-0.5523587311932807 l 18.95472844998663 24.720634574755373" fill="#a6ff21" stroke="none" /><path d="M 87.51073957382395 83.11751280151077 l -34.6517692362337 -46.84088813694759 a79.26503164556962,79.26503164556962 0 0,0 1.1038776073386927,-0.8020140274443652 l 33.84034631254122 47.430421399208626" fill="#46fffb" stroke="none" /><path d="M 88.39885842347998 82.49532879139004 l -18.366562054836738 -27.712844281906335 a54.246538765822784,54.246538765822784 0 0,0 0.7827852372912021,-0.5091452929221505 l 17.886809791761248 28.02488849898802" fill="#8cff24" stroke="none" /><path d="M 89.00827224532344 82.1063720568725 l -16.586508485819774 -27.001470409828165 a52.68898338607595,52.68898338607595 0 0,0 0.7768813308931984,-0.4680623092786166 l 16.119265088708925 27.282979328565403" fill="#9fff22" stroke="none" /><line stroke="#e1ed5e" stroke-width="0.3" x1="56.762969772571076" x2="54.21961505331055" y1="26.818313649435495" y2="22.513508569990535" /><path d="M 56.25429882871897 25.957352633546506 a86.0,86.0 0 0,1 42.265352541879196,-11.944610805530505" fill="none" id="id60" stroke="none" /><text fill="#e1ed5e" style="font-size:6.75px; font-family:Arial;" text-anchor="middle"><textPath startOffset="22.20632615414155" xlink:href="#id60">December</textPath></text><path d="M 89.63071344664047 81.73862282372117 l -22.79356225356759 -40.14180101605278 a67.16178797468353,67.16178797468353 0 0,0 1.0102281407644427,-0.5621908665846153 l 22.0992100237311 40.52820728019758" fill="#36ff6d" stroke="none" /><path d="M 90.26544431104013 81.39251694778311 l -12.521495831319333 -23.934684736964513 a48.012163765822784,48.012163765822784 0 0,0 0.7355909599916308,-0.3767982602156044 l 12.107644383738938 24.14667552249262" fill="#daff1b" stroke="none" /><path d="M 92.57280143429618 80.3572730644239 l -9.864982588604422 -26.089939227820675 a48.892701740506325,48.892701740506325 0 0,0 0.789774693862381,-0.2908806849323331 l 9.41442556896947 26.255883180559334" fill="#cfff1d" stroke="none" /><path d="M 92.91201910852362 80.23233633223022 l -11.934331750225168 -33.283647310863174 a56.358583860759495,56.358583860759495 0 0,0 0.9160094712945573,-0.31957771821722414 l 11.359640274867326 33.484145882252605" fill="#73ff27" stroke="none" /><path d="M 94.63758080256005 79.69619591428918 l -13.264457217718103 -50.22340304547912 a72.94551028481013,72.94551028481013 0 0,0 1.2167697077669497,-0.31018169101747234 l 12.397978621266155 50.44428773266545" fill="#3effb4" stroke="none" /><path d="M 95.33964822691252 79.52364482259891 l -6.142059738917809 -26.98658875091221 a48.6767207278481,48.6767207278481 0 0,0 0.818597051875556,-0.17891360938794945 l 5.676619962888732 27.08831585839603" fill="#d2ff1c" stroke="none" /><path d="M 96.04723909329186 79.375362276772 l -6.022565989878593 -31.42442577153619 a52.99634098101266,52.99634098101266 0 0,0 0.8974170198353705,-0.16399722422968382 l 5.480753848940329 31.52343847711661" fill="#9cff22" stroke="none" /><path d="M 96.75951476605007 79.25152402106235 l -7.123171062128046 -45.60889280654924 a67.16178797468353,67.16178797468353 0 0,0 1.1437685099819517,-0.16856174666082513 l 6.337033571717446 45.72474903737103" fill="#36ff6d" stroke="none" /><path d="M 97.11714578562143 79.19881850522333 l -4.4386033686372555 -32.02666086750179 a53.33277294303797,53.33277294303797 0 0,0 0.9104292184720831,-0.11819984205120702 l 3.886659421657315 32.09831903271713" fill="#98ff23" stroke="none" /><path d="M 97.83486435360386 79.11191278185805 l -3.4361250843913496 -33.1499232275259 a54.32753164556962,54.32753164556962 0 0,0 0.9310054069738348,-0.08841018151531616 l 2.8649945503272782 33.204158953556394" fill="#8cff24" stroke="none" /><path d="M 98.19473922651362 79.07773832637324 l -2.6791483809048766 -31.050275013460915 a52.16564477848101,52.16564477848101 0 0,0 0.8952861979240039,-0.06949143978322965 l 2.1442719936185384 31.09179171543261" fill="#a6ff21" stroke="none" /><path d="M 98.91598698831166 79.02799685794201 l -1.4093669961102233 -27.26650764523699 a48.302907436708864,48.302907436708864 0 0,0 0.8307160877627285,-0.03577238219677692 l 0.9398100759581707 27.286727753957962" fill="#d7ff1c" stroke="none" /></svg>