<?xml version="1.0" encoding="utf-8" ?>
<svg baseProfile="full" height="200mm" version="1.1" viewBox="0,0,200,200" width="200mm" xmlns="http://www.w3.org/2000/svg" xmlns:ev="http://www.w3.org/2001/xml-events" xmlns:xlink="http://www.w3.org/1999/xlink"><defs /><rect fill="#1a1a1a" height="200" width="200" x="0" y="0" /><text alignment-baseline="middle" fill="#e1ed5e" style="dominant-baseline: central; font-size:9.0px; font-family:Arial;" text-anchor="middle" x="100.0" y="100.0">2024</text><line stroke="#e1ed5e" stroke-width="0.3" x1="100.0" x2="100.0" y1="15.0" y2="10.0" /><path d="M 100.0 14.0 a86.0,86.0 0 0,1 42.35913384403234,11.155469271406648" fill="none" id="id61" stroke="none" /><text fill="#e1ed5e" style="font-size:6.75px; font-family:Arial;" text-anchor="middle"><textPath startOffset="22.145653131862478" xlink:href="#id61">January</textPath></text><path d="M 101.08105385017728 79.02784411241856 l 1.194152132556198 -23.166232351283476 a44.19698947426889,44.19698947426889 0 0,0 0.7573588705265606,0.04556082896289707 l -1.5916553552152208 23.142319544495887" fill="#e2ff1b" stroke="none" /><path d="M 102.51750503828377 79.15144685158666 l 3.1510938031608102 -26.095577022407888 a47.28513900074985,47.28513900074985 0 0,0 0.8050231375116552,0.10422636227557448 l -3.5985947625632573 26.037639063931916" fill="#beff1f" stroke="none" /><path d="M 103.23170211078529 79.25015418208739 l 3.518639418758209 -22.592189170034892 a43.86455411447774,43.86455411447774 0 0,0 0.7430289865269396,0.12226513697731793 l -3.905945908338219 22.528458034561908" fill="#e6ff1a" stroke="none" /><path d="M 104.29559338865022 79.4440306129975 l 5.821186974732339 -27.856486967500423 a49.458216457910964,49.458216457910964 0 0,0 0.8295734592124917,0.18080167432289226 l -6.298522850563965 27.752453835043813" fill="#a5ff21" stroke="none" /><path d="M 104.9986988182912 79.60360301121754 l 6.479136627557655 -26.437088451230768 a48.21945732774183,48.21945732774183 0 0,0 0.802267769231284,0.20393332969488542 l -6.9320096900143335 26.321969889700615" fill="#b3ff20" stroke="none" /><path d="M 105.69591212413111 79.78721728523813 l 6.889764675046696 -24.449344248583287 a46.40156080762074,46.40156080762074 0 0,0 0.7648302706392415,0.22263094502728717 l -7.308454958067542 24.327469609253484" fill="#c8ff1d" stroke="none" /><path d="M 106.72888874123014 80.10723608172694 l 14.590440427459734 -43.13404457242116 a66.53489599244591,66.53489599244591 0 0,0 1.078797525857756,0.37526177953481443 l -15.328743725362509 42.877224360317754" fill="#37ff77" stroke="none" /><path d="M 108.07796709384702 80.6158196554323 l 10.147319399611042 -24.3498725571456 a47.379620629322076,47.379620629322076 0 0,0 0.7480676358292723,0.3193055908842596 l -10.563822110610744 24.172092316601937" fill="#bcff1f" stroke="none" /><path d="M 108.73861861582097 80.90454125486305 l 9.838499738016665 -21.498897494073567 a44.643152720304386,44.643152720304386 0 0,0 0.694118724358924,0.32488261110900485 l -10.206107176247093 21.326838651394027" fill="#ddff1b" stroke="none" /><path d="M 109.3889696526874 81.21577127319529 l 23.46786093653638 -46.9514423698843 a73.48979365123449,73.48979365123449 0 0,0 1.1235986772998883,0.5737174905868642 l -24.270386835549846 46.541666927624604" fill="#40ffc4" stroke="none" /><path d="M 110.34350942703115 81.72400993836675 l 13.93086037892287 -24.614495460296748 a49.283250479073516,49.283250479073516 0 0,0 0.7326953337090205,0.4230218481508857 l -14.351348180492288 24.37172671486969" fill="#a7ff21" stroke="none" /><line stroke="#e1ed5e" stroke-width="0.3" x1="143.13028292997686" x2="145.6673583964461" y1="26.7553504044142" y2="22.446841604673864" /><path d="M 143.63769802327073 25.89364864446614 a86.0,86.0 0 0,1 29.32050498858742,28.57503671076993" fill="none" id="id62" stroke="none" /><text fill="#e1ed5e" style="font-size:6.75px; font-family:Arial;" text-anchor="middle"><textPath startOffset="20.669276256404974" xlink:href="#id62">February</textPath></text><path d="M 110.96478420261332 82.08984904055464 l 14.188413096130269 -23.17570649188873 a48.1739661732441,48.1739661732441 0 0,0 0.7015869959166202,0.4378421746018373 l -14.5841642208366 22.928728520445347" fill="#b3ff20" stroke="none" /><path d="M 111.5731344415666 82.4767994020092 l 14.95151131593288 -22.638493776691636 a48.13022467853473,48.13022467853473 0 0,0 0.6855204217178602,0.4612487335361532 l -15.33792802574774 22.378495369098363" fill="#b4ff20" stroke="none" /><path d="M 112.16784306229584 82.88440491214696 l 16.389939632971657 -23.05450266214792 a49.28674979865026,49.28674979865026 0 0,0 0.685365089435852,0.4961514709029967 l -16.78328573278148 22.76975041987185" fill="#a7ff21" stroke="none" /><path d="M 112.7482090630111 83.31218511350987 l 23.918425852468722 -31.309987232666252 a60.40058877440498,60.40058877440498 0 0,0 0.818543185874898,0.6365041322505185 l -24.452378982978846 30.89478204879494" fill="#31ff2f" stroke="none" /><path d="M 114.91283532996326 85.21462403516908 l 1.8711969900512115 -1.8552039494849917 a23.63498764129197,23.63498764129197 0 0,0 0.2831845164374525,0.29057226105909284 l -1.902768307639476 1.8228089963581569" fill="#ff0801" stroke="none" /><path d="M 116.57777611688842 87.10902102172516 l 1.662980179803954 -1.2931434462612488 a23.10659038520288,23.10659038520288 0 0,0 0.24080150551836368,0.31521690055571133 l -1.6849336626766245 1.2644056324646555" fill="#ff0000" stroke="none" /><path d="M 117.81537515405839 88.88188828441811 l 18.00190545186381 -11.234520417133655 a42.21987391340573,42.21987391340573 0 0,0 0.3784348955788866,0.6181449614415908 l -18.192108311898096 10.92383833956751" fill="#faff18" stroke="none" /><line stroke="#e1ed5e" stroke-width="0.3" x1="172.87174338648825" x2="177.1583165268699" y1="56.24261187166439" y2="53.66864786411523" /><path d="M 173.72905801456457 55.72781907015455 a86.0,86.0 0 0,1 12.242430191666344,42.057860355516425" fill="none" id="id63" stroke="none" /><text fill="#e1ed5e" style="font-size:6.75px; font-family:Arial;" text-anchor="middle"><textPath startOffset="22.145653131862474" xlink:href="#id63">March</textPath></text><path d="M 118.36410011445183 89.81374322990088 l 20.101720274141268 -11.150085381639315 a43.98703029966396,43.98703029966396 0 0,0 0.3605986582237161,0.6634609160583205 l -20.290164281980328 10.80336963210639" fill="#e5ff1a" stroke="none" /><path d="M 118.8641267826498 90.77261029715802 l 20.836092600682246 -10.191977000908937 a44.195239814480516,44.195239814480516 0 0,0 0.3275093340271,0.6843685455192209 l -21.007981192669256 9.832795953324611" fill="#e2ff1b" stroke="none" /><path d="M 119.16976305983485 91.42560881287824 l 24.767310448151107 -11.078102935987209 a48.131974338323104,48.131974338323104 0 0,0 0.33088696600392903,0.7571341324058851 l -24.95383129617201 10.651306733805473" fill="#b4ff20" stroke="none" /><path d="M 119.94978838288452 93.4421083053983 l 18.395115508099785 -6.0468398409328925 a40.3634848779404,40.3634848779404 0 0,0 0.21072676841968466,0.6600986007244838 l -18.496206992296727 5.730172206517022" fill="#ffed16" stroke="none" /><path d="M 120.51834098615036 95.52812308129327 l 17.115807755714513 -3.7303106376614386 a38.51759380120532,38.51759380120532 0 0,0 0.13525597811609807,0.6472488185007925 l -17.17732144465498 3.4359453678752416" fill="#ffd513" stroke="none" /><path d="M 120.65975698304385 96.23510406497455 l 17.245822080133 -3.142763271559974 a38.529841419723944,38.529841419723944 0 0,0 0.11299368170614137,0.6517175291786033 l -17.297230579331373 2.8462527094607784" fill="#ffd614" stroke="none" /><path d="M 120.77682067341334 96.94652285012252 l 18.188301287157 -2.6730539406584333 a39.38367539645069,39.38367539645069 0 0,0 0.09256192090592406,0.6697319500059604 l -18.231507724618137 2.3604336824523875" fill="#ffe015" stroke="none" /><path d="M 120.96210409425399 98.7389718711861 l 18.34875432117914 -1.103815495985693 a39.38192573666231,39.38192573666231 0 0,0 0.03480314027674981,0.6751716236353004 l -18.36499905091246 0.7886720789736619" fill="#ffe015" stroke="none" /><path d="M 120.99303781780057 99.45929381324524 l 26.5090522259493 -0.6827791512585195 a47.51784375260366,47.51784375260366 0 0,0 0.014003210778423232,0.8156168251012391 l -26.51686686832639 0.2276154101882139" fill="#bbff1f" stroke="none" /><line stroke="#e1ed5e" stroke-width="0.3" x1="184.99686870605535" x2="189.99668451229388" y1="99.2704041080226" y2="99.22748670261217" /><path d="M 185.99683186730306 99.26182062694052 a86.0,86.0 0 0,1 -10.086455211305974,41.156179273409016" fill="none" id="id64" stroke="none" /><text fill="#e1ed5e" style="font-size:6.75px; font-family:Arial;" text-anchor="middle"><textPath startOffset="21.40746469413373" xlink:href="#id64">April</textPath></text><path d="M 120.99922638620191 100.18025310272382 l 17.922854592183658 0.15384615082924452 a38.9235148721082,38.9235148721082 0 0,0 -0.011470515914585283,0.6681000465226252 l -17.917572644670404 -0.46149311332094084" fill="#ffdb14" stroke="none" /><path d="M 120.93736805541906 101.62068470465957 l 22.68820581515653 1.7562106203351322 a43.75607520759853,43.75607520759853 0 0,0 -0.06439722712533666,0.7483933935246289 l -22.65471496533345 -2.1454250612354184" fill="#e7ff1a" stroke="none" /><path d="M 120.86939407059847 102.33845913500097 l 14.798740211753007 1.6582297079451227 a35.89135445885522,35.89135445885522 0 0,0 -0.07386426004888767,0.6117020335527379 l -14.768093865444456 -1.912025418421269" fill="#ffb310" stroke="none" /><path d="M 120.77682067341334 103.0534771498775 l 17.738224354192223 2.606908130763013 a38.92876385147332,38.92876385147332 0 0,0 -0.10284332054197569,0.6603278926997399 l -17.69085954151198 -2.9110242053942037" fill="#ffdb14" stroke="none" /><path d="M 120.51834098615036 104.47187691870673 l 17.105550579672332 3.7280751338833693 a38.507095842475074,38.507095842475074 0 0,0 -0.14630704767559724,0.6446558475206601 l -17.039032670439074 -4.021165315343046" fill="#ffd513" stroke="none" /><path d="M 120.35273937422433 105.17358676015961 l 16.98953779462495 4.31867407032292 a38.529841419723944,38.529841419723944 0 0,0 -0.1684497497741078,0.6396311372542874 l -16.912898564046113 -4.609685711950011" fill="#ffd614" stroke="none" /><path d="M 120.16314734710363 105.8691983318838 l 16.995908715859205 4.9472613261589435 a38.70130807898464,38.70130807898464 0 0,0 -0.19115438545835925,0.6362907795963777 l -16.908478010397214 -5.238289709346045" fill="#ffd814" stroke="none" /><path d="M 119.83427380445688 106.89939002012753 l 18.3712296401378 6.390467313613277 a40.450967867359125,40.450967867359125 0 0,0 -0.23376774199717237,0.6538899795965243 l -18.25882172809668 -6.704892249590722" fill="#ffee16" stroke="none" /><path d="M 119.4528033332814 107.91128576633889 l 16.241553770334615 6.605298525104726 a38.53334073930069,38.53334073930069 0 0,0 -0.2544561182957314,0.6106020524124413 l -16.1257718075024 -6.883133086958446" fill="#ffd614" stroke="none" /><path d="M 119.16976305983485 108.57439118712176 l 19.257075003118455 8.613444708789437 a42.09564806843114,42.09564806843114 0 0,0 -0.30071434153613913,0.6571151065545084 l -19.10637619672726 -8.942748797558634" fill="#fcff18" stroke="none" /><path d="M 118.5362547648365 109.86951160357373 l 20.28707550678137 10.801725033288896 a43.98353098008721,43.98353098008721 0 0,0 -0.3605699713599915,0.663408135460127 l -20.09866018580604 -11.148388002223626" fill="#e5ff1a" stroke="none" /><line stroke="#e1ed5e" stroke-width="0.3" x1="174.33088141563837" x2="178.70328620479359" y1="141.23008692659167" y2="143.65538615756765" /><path d="M 175.20536237346943 141.71514677278685 a86.0,86.0 0 0,1 -30.301960400862466,31.631185727798858" fill="none" id="id65" stroke="none" /><text fill="#e1ed5e" style="font-size:6.75px; font-family:Arial;" text-anchor="middle"><textPath startOffset="22.145653131862474" xlink:href="#id65">May</textPath></text><path d="M 118.18653347947321 110.5 l 32.14754028109843 18.560391035076506 a58.12078207015303,58.12078207015303 0 0,0 -0.5062770965928356,0.8597691927599169 l -31.824189474375828 -19.10951139612997" fill="#48ff2c" stroke="none" /><path d="M 117.81537515405839 111.11811171558189 l 18.000421125886575 11.233594087943583 a42.21812425361735,42.21812425361735 0 0,0 -0.3889742921816613,0.6115321942222427 l -17.804929142079022 -11.540939956844499" fill="#faff18" stroke="none" /><path d="M 117.423217284605 111.72311816256416 l 15.981242460039697 10.752893147304869 a40.26200461021468,40.26200461021468 0 0,0 -0.39075284552145906,0.570120079406076 l -15.794299877702917 -11.025647961780988" fill="#ffeb16" stroke="none" /><path d="M 117.01052211995028 112.31430620078461 l 16.30991933982735 11.807123816921369 a41.135084844613544,41.135084844613544 0 0,0 -0.41898626535765326,0.5684353375998226 l -16.104831054885867 -12.085365463790069" fill="#fff617" stroke="none" /><path d="M 116.57777611688842 112.89097897827486 l 16.872895246250078 13.12046539827858 a42.37384397478268,42.37384397478268 0 0,0 -0.4514500647578898,0.5703924091115259 l -16.645178750850626 -13.408177751304788" fill="#f8ff18" stroke="none" /><path d="M 115.89218393027572 113.72728997021213 l 16.55776043947826 14.30219910663226 a42.87949565362291,42.87949565362291 0 0,0 -0.4859450261237225,0.5529162360307192 l -16.30980434939595 -14.584327620474273" fill="#f2ff19" stroke="none" /><path d="M 115.16444852881244 114.52719865689866 l 12.643427924666822 12.112117945920366 a38.50884550226345,38.50884550226345 0 0,0 -0.4613968476578028,0.4734338125406571 l -12.433644275858214 -12.32737445052876" fill="#ffd513" stroke="none" /><path d="M 114.65682725009322 115.03919595460226 l 25.773904735784768 26.446296815994277 a57.928319493431836,57.928319493431836 0 0,0 -0.7181112100821473,0.687934294925938 l -25.31612103983731 -26.884843241225795" fill="#4aff2c" stroke="none" /><path d="M 114.13192950727249 115.5334660781643 l 15.482051358718527 17.017486499440306 a44.00627655733607,44.00627655733607 0 0,0 -0.5631440738208916,0.5035669033293226 l -15.187642258074257 -17.280748932653015" fill="#e4ff1a" stroke="none" /><path d="M 113.03279911837588 116.46651593811092 l 12.50253970469463 15.796550491133047 a41.1455828033438,41.1455828033438 0 0,0 -0.5576011280009197,0.43359400975378853 l -12.22952863205848 -16.008845552507626" fill="#fff717" stroke="none" /><path d="M 112.16784306229584 117.11559508785304 l 12.576062420177736 17.689806737424693 a42.70452967478546,42.70452967478546 0 0,0 -0.6011270762372611,0.419633385095047 l -12.270540252766716 -17.90308493832486" fill="#f4ff19" stroke="none" /><path d="M 111.5731344415666 117.5232005979908 l 10.824562494045047 16.389767260230897 a40.64168078429194,40.64168078429194 0 0,0 -0.585461541260596,0.37948909769945005 l -10.541615320527441 -16.57317019963424" fill="#fff016" stroke="none" /><path d="M 110.96478420261333 117.91015095944535 l 10.056406629463781 16.42638446093046 a40.2602549504263,40.2602549504263 0 0,0 -0.5925298103725274,0.35579712636444777 l -9.772944062533817 -16.596595587830834" fill="#ffeb16" stroke="none" /><line stroke="#e1ed5e" stroke-width="0.3" x1="143.1302829299769" x2="145.66735839644613" y1="173.24464959558577" y2="177.55315839532614" /><path d="M 143.63769802327073 174.10635135553383 a86.0,86.0 0 0,1 -40.68552437913181,11.842963189579606" fill="none" id="id66" stroke="none" /><text fill="#e1ed5e" style="font-size:6.75px; font-family:Arial;" text-anchor="middle"><textPath startOffset="21.407464694133747" xlink:href="#id66">June</textPath></text><path d="M 110.65571695917076 118.09573695890943 l 9.097325382338665 15.449247364507862 a38.92876385147332,38.92876385147332 0 0,0 -0.5787549186339911,0.334144308068156 l -8.830777995844276 -15.60313856985219" fill="#ffdb14" stroke="none" /><path d="M 109.71004243097381 118.62028667847754 l 9.743751301578738 18.684927882543686 a42.07290249118227,42.07290249118227 0 0,0 -0.6432601758770207,0.3284532292130215 l -9.421563903988135 -18.849439063429546" fill="#fcff18" stroke="none" /><path d="M 109.06512990194946 118.94263497670748 l 9.928919184410889 20.747622357080285 a44.00102757797095,44.00102757797095 0 0,0 -0.6841348621646961,0.32020965948735236 l -9.571295608374687 -20.91500824813817" fill="#e4ff1a" stroke="none" /><path d="M 108.4095320186766 119.2426549942271 l 10.517578676286918 24.066278289083485 a47.26414308328936,47.26414308328936 0 0,0 -0.7462443832640392,0.3185273527814566 l -10.102899217852448 -24.243280291524346" fill="#beff1f" stroke="none" /><path d="M 108.07796709384702 119.3841803445677 l 2.4471481950643863 5.872264815134403 a27.36176299052962,27.36176299052962 0 0,0 -0.43511136593580324,0.17695600459862107 l -2.345982367938142 -5.913408076312315" fill="#ff3e05" stroke="none" /><path d="M 107.74402155503746 119.51999308798841 l 13.63069953384521 34.35826705725356 a57.96331268919932,57.96331268919932 0 0,0 -0.9280415944699802,0.35898642534509506 l -13.0388856768817 -34.5871933707367" fill="#49ff2c" stroke="none" /><path d="M 107.06938296918513 119.77432235084164 l 7.164604752173285 20.040674625126037 a42.28286166578721,42.28286166578721 0 0,0 -0.6855747780294933,0.23847849577053798 l -6.81952420209877 -20.160711553465166" fill="#f9ff18" stroke="none" /><path d="M 106.38641147887787 120.00534299687104 l 5.45346720751682 17.082908354619757 a38.932263171050074,38.932263171050074 0 0,0 -0.6384137860218178,0.1977822228332064 l -5.159412788623378 -17.17400716525961" fill="#ffdb14" stroke="none" /><path d="M 105.69591212413111 120.21278271476187 l 10.068889455191192 35.73093655615041 a58.1225317299414,58.1225317299414 0 0,0 -0.9626713124017595,0.2623803470042795 l -9.454036741854738 -35.89851739729883" fill="#48ff2c" stroke="none" /><path d="M 104.9986988182912 120.39639698878246 l 5.624941781307049 22.951681983822247 a44.630905101785764,44.630905101785764 0 0,0 -0.7456928357001624,0.17598147880891551 l -5.230116791867007 -23.044859606277388" fill="#ddff1b" stroke="none" /><path d="M 104.64783097203109 120.47920084513623 l 3.967701514102573 17.48242496119636 a38.92701419168495,38.92701419168495 0 0,0 -0.6529313051005575,0.14230333898588998 l -3.6670077923828797 -17.547959758315972" fill="#ffdb14" stroke="none" /><path d="M 103.94208987418118 120.62667999033965 l 4.054965000136706 21.217290345827198 a42.60129974727136,42.60129974727136 0 0,0 -0.7194857774255847,0.1311142759792136 l -3.690144489160064 -21.28377279573778" fill="#f5ff19" stroke="none" /><path d="M 103.58742460773223 120.69131181640829 l 4.784395175602232 27.595119969332146 a49.00680423251035,49.00680423251035 0 0,0 -0.8301344175703737,0.1365983025080063 l -4.3099832549787855 -27.67318427033582" fill="#aaff21" stroke="none" /><path d="M 102.51750503828377 120.84855314841334 l 2.5895895689158808 21.445516469323554 a42.60129974727136,42.60129974727136 0 0,0 -0.726786487837632,0.0814379418937516 l -2.2210671794774495 -21.48681017172428" fill="#f5ff19" stroke="none" /><path d="M 102.15924093988457 120.88869738790638 l 1.8434533766487462 17.83373917298385 a38.92876385147332,38.92876385147332 0 0,0 -0.6653119211035909,0.06300573065070675 l -1.5370418921601399 -17.86275665913974" fill="#ffdb14" stroke="none" /><path d="M 101.44090949804482 120.95050786540614 l 1.4557559841107095 21.166372514448415 a42.216374593828974,42.216374593828974 0 0,0 -0.7234190871467078,0.04351909587468237 l -1.0921925448315364 -21.18824358814779" fill="#faff18" stroke="none" /><path d="M 101.08105385017728 120.97215588758144 l 1.903365731270001 36.92478669839512 a57.97381064792957,57.97381064792957 0 0,0 -0.994317769294741,0.04270028329955644 l -1.2692222013744305 -36.952019550120504" fill="#49ff2c" stroke="none" /><line stroke="#e1ed5e" stroke-width="0.3" x1="101.45913802915013" x2="101.54496967792366" y1="184.9874750549273" y2="189.98673829345242" /><path d="M 101.47630435890484 185.9873277026323 a86.0,86.0 0 0,1 -42.54439059252881,-10.42667462771756" fill="none" id="id67" stroke="none" /><text fill="#e1ed5e" style="font-size:6.75px; font-family:Arial;" text-anchor="middle"><textPath startOffset="22.145653131862474" xlink:href="#id67">July</textPath></text><path d="M 100.36049292484886 120.99690560180557 l 0.3949032945743391 23.001137127714575 a44.0045268975477,44.0045268975477 0 0,0 -0.7553962194231886,0.006484168027558765 l -2.8172420230980982e-15 -23.0045268975477" fill="#e4ff1a" stroke="none" /><path d="M 99.63950707515114 120.99690560180557 l -0.364297388187716 21.218496518257535 a42.2216235731941,42.2216235731941 0 0,0 -0.7245767140045704,-0.018662525902204186 l 0.7284874162630303 -21.209116275005286" fill="#faff18" stroke="none" /><path d="M 99.27912038922189 120.98762331915562 l -0.6613985842104454 19.255898130130948 a40.26725358957981,40.26725358957981 0 0,0 -0.6906298778247645,-0.029658618551268272 l 0.9918542226360486 -19.24170694315385" fill="#ffec16" stroke="none" /><path d="M 98.55909050195518 120.95050786540614 l -2.5469126837299028 37.031551450933804 a58.11903241036465,58.11903241036465 0 0,0 -0.9947515353308571,-0.07700006008300925 l 3.182233213835996 -36.982373623855736" fill="#48ff2c" stroke="none" /><path d="M 97.84075906011543 120.88869738790638 l -1.9799988155944315 19.15469243074659 a40.256755630849554,40.256755630849554 0 0,0 -0.6867881076458696,-0.07695603996462734 l 2.3085228248411003 -19.11788063027499" fill="#ffeb16" stroke="none" /><path d="M 97.12497278360702 120.80226474461374 l -3.1750897675414973 22.973367888731783 a44.19174049490377,44.19174049490377 0 0,0 -0.7505754463824951,-0.11030874313319859 l 3.568990319531677 -22.915478072299702" fill="#e2ff1b" stroke="none" /><path d="M 96.76829788921471 120.74984581791261 l -2.7585292963864223 17.711736918197694 a38.92526453189657,38.92526453189657 0 0,0 -0.6593615377907749,-0.10849769012697813 l 3.062168337230261 -17.661773229575047" fill="#ffdb14" stroke="none" /><path d="M 95.70440661134978 120.55596938700252 l -12.886780165950636 61.667908161007546 a84.0,84.0 0 0,0 -1.4089503335234541,-0.30707416746512495 l 13.943492916093227 -61.43760253540871" fill="#4dd2ff" stroke="none" /><path d="M 94.6519064749342 120.30758222061772 l -5.857251872162917 22.240939397063343 a43.99927791818257,43.99927791818257 0 0,0 -0.7287508193041555,-0.1986242764122937 l 6.2381840924017675 -22.137114626506907" fill="#e4ff1a" stroke="none" /><path d="M 94.30408787586889 120.21278271476187 l -5.859005006070158 20.79154181657317 a42.60129974727136,42.60129974727136 0 0,0 -0.7021911127165699,-0.2043975990688678 l 6.2150561311683346 -20.687900523201783" fill="#f5ff19" stroke="none" /><path d="M 93.95794788825049 120.11202640906438 l -5.159412788623381 17.174007165259606 a38.932263171050074,38.932263171050074 0 0,0 -0.6384137860218004,-0.19778222283319774 l 5.453467207516816 -17.08290835461976" fill="#ffdb14" stroke="none" /><path d="M 91.59046798132341 119.24265499422711 l -1.1700990200119346 2.67741554478512 a23.921931846585387,23.921931846585387 0 0,0 -0.3748755785005809,-0.1676770780384503 l 1.2158880013681506 -2.656934715836815" fill="#ff0c01" stroke="none" /><line stroke="#e1ed5e" stroke-width="0.3" x1="58.13341422392154" x2="55.67067388415222" y1="173.97424548756322" y2="178.32567169271397" /><path d="M 57.64086615596768 174.84453072859336 a86.0,86.0 0 0,1 -31.369924170532247,-30.572349798747897" fill="none" id="id68" stroke="none" /><text fill="#e1ed5e" style="font-size:6.75px; font-family:Arial;" text-anchor="middle"><textPath startOffset="22.145653131862474" xlink:href="#id68">August</textPath></text><path d="M 89.65649057296885 118.27599006163327 l -5.744702461237227 10.15033880224795 a32.6632321493043,32.6632321493043 0 0,0 -0.48560510004938795,-0.2803642352333714 l 5.918100029147015 -10.050227669738407" fill="#ff880c" stroke="none" /><path d="M 89.03521579738668 117.91015095944536 l -9.689157768177036 15.826511045841977 a39.55689171549976,39.55689171549976 0 0,0 -0.5760912590562319,-0.3595235531763831 l 9.95941315602298 -15.657851695824046" fill="#ffe315" stroke="none" /><path d="M 87.83215693770417 117.11559508785305 l -10.147022068807646 14.273057286165566 a38.5123448218402,38.5123448218402 0 0,0 -0.5355398106192221,-0.38768952323578754 l 10.390542889800821 -14.096766991556713" fill="#ffd513" stroke="none" /><path d="M 87.2517909369889 116.68781488649013 l -10.621442272067464 13.90380888701374 a38.496597883744826,38.496597883744826 0 0,0 -0.5217023296709663,-0.40567888704047284 l 10.858554546373659 -13.719428948352475" fill="#ffd513" stroke="none" /><path d="M 86.68645165197938 116.24036423190432 l -13.873348170246942 16.92322899284257 a42.88299497319966,42.88299497319966 0 0,0 -0.5652911255518193,-0.47158596221090365 l 14.161813629960653 -16.682580846719794" fill="#f2ff19" stroke="none" /><path d="M 85.86807049272751 115.53346607816431 l -22.486593417659627 24.716705237380115 a54.415002638375874,54.415002638375874 0 0,0 -0.6855518900945801,-0.634536594776101 l 22.907575079068174 -24.327050896471636" fill="#6eff28" stroke="none" /><path d="M 85.34317274990678 115.03919595460226 l -12.64638289793362 12.976302938805876 a39.119476768406145,39.119476768406145 0 0,0 -0.4769001015714379,-0.4728240568198592 l 12.86727491963502 -12.757298871757358" fill="#ffdd14" stroke="none" /><path d="M 84.83555147118756 114.52719865689866 l -16.435066497858102 15.744421928703126 a43.759574527175275,43.759574527175275 0 0,0 -0.5149963601226207,-0.5469082878025096 l 16.702918691716974 -15.459972180956125" fill="#e7ff1a" stroke="none" /><path d="M 84.58840730492382 114.26474011684316 l -7.740251681555191 7.164261401199532 a31.546949204321383,31.546949204321383 0 0,0 -0.3644458289710856,-0.4005898075515831 l 7.862095211368156 -7.030334018090275" fill="#ff790b" stroke="none" /><path d="M 83.8745106332314 113.45245675266167 l -13.764460124076786 11.482802185493284 a38.92526453189657,38.92526453189657 0 0,0 -0.4236425247972717,-0.5167749969416789 l 13.959549468112687 -11.24482490685311" fill="#ffdb14" stroke="none" /><path d="M 83.20337586046588 112.60449989151573 l -16.968289584679457 12.733320841888645 a42.2146249340406,42.2146249340406 0 0,0 -0.42998204844844573,-0.5833532291637723 l 17.184373652711734 -12.440161303455994" fill="#faff18" stroke="none" /><path d="M 82.78059297857968 112.02048342749411 l -10.642394086002383 7.429217602006662 a33.97897631016191,33.97897631016191 0 0,0 -0.329774481167616,-0.4811508234533218 l 10.768358303985323 -7.245432043483289" fill="#ff9a0e" stroke="none" /><path d="M 82.37810715431573 111.42229804090323 l -14.682055860541785 9.516731225236665 a38.496597883744826,38.496597883744826 0 0,0 -0.3546862201474681,-0.5576256498871025 l 14.843259772315143 -9.263291900670891" fill="#ffd513" stroke="none" /><path d="M 82.18462484594161 111.11811171558189 l -17.822302008618795 11.12243458513554 a42.008165079012414,42.008165079012414 0 0,0 -0.3765372582055187,-0.6150453134051825 l 18.010607231279717 -10.8148521556058" fill="#fdff18" stroke="none" /><line stroke="#e1ed5e" stroke-width="0.3" x1="26.387840678322732" x2="22.057713659400548" y1="142.50000000000003" y2="145.00000000000006" /><path d="M 25.521815274538298 143.00000000000003 a86.0,86.0 0 0,1 -11.493303480769221,-40.785679425670985" fill="none" id="id69" stroke="none" /><text fill="#e1ed5e" style="font-size:6.75px; font-family:Arial;" text-anchor="middle"><textPath startOffset="21.40746469413373" xlink:href="#id69">September</textPath></text><path d="M 81.4637452351635 109.86951160357371 l -13.375940999104253 7.121935179150054 a36.1538034271114,36.1538034271114 0 0,0 -0.2869784431983475,-0.5503190043589266 l 13.49622751127755 -6.891269931686624" fill="#ffb710" stroke="none" /><path d="M 81.1358732173502 109.22738970284198 l -16.103688978395585 7.877121245478838 a38.92701419168495,38.92701419168495 0 0,0 -0.28846908732928805,-0.6027894450985805 l 16.236537323684786 -7.599519298315153" fill="#ffdb14" stroke="none" /><path d="M 80.9802524753101 108.90220220490708 l -14.084554336610422 6.592282600373325 a36.5509761990724,36.5509761990724 0 0,0 -0.2611054406939978,-0.5705625099459337 l 14.195644242159476 -6.349531108212703" fill="#ffbc11" stroke="none" /><path d="M 80.68587082218212 108.24405325689762 l -20.13589288766365 8.594815319540077 a42.8934929319299,42.8934929319299 0 0,0 -0.2832485193912193,-0.6796933335360213 l 20.280467251591357 -8.247889476562774" fill="#f2ff19" stroke="none" /><path d="M 80.41425534168474 107.57618678355246 l -18.157351138368153 7.0236534846492304 a40.468464465242874,40.468464465242874 0 0,0 -0.24506414062498733,-0.6500617483791673 l 18.275245962807574 -6.710923456075918" fill="#ffee16" stroke="none" /><path d="M 80.28708602549918 107.23885506374661 l -14.594574964097069 5.35933008274383 a36.547476879495655,36.547476879495655 0 0,0 -0.21120931330564327,-0.5907900396697742 l 14.684424447446656 -5.108005086693135" fill="#ffbc11" stroke="none" /><path d="M 80.05021161711548 106.5578916946017 l -12.47949103052437 4.102256575921585 a34.13644569111562,34.13644569111562 0 0,0 -0.1782170916999888,-0.5582625014305317 l 12.548072838001612 -3.887425040799662" fill="#ff9c0e" stroke="none" /><path d="M 79.94057633289273 106.21446072829308 l -20.63212029636786 6.391883607974402 a42.59955008748299,42.59955008748299 0 0,0 -0.21040867148873502,-0.7003820356743515 l 20.738805287860224 -6.0367639687093275" fill="#f5ff19" stroke="none" /><path d="M 79.64726062577567 105.17358676015961 l -17.376164665288137 4.416953108952881 a38.92876385147332,38.92876385147332 0 0,0 -0.15907492932181072,-0.6490799960857213 l 17.449427121126238 -4.118017288259059" fill="#ffdb14" stroke="none" /><path d="M 79.48165901384964 104.47187691870673 l -11.97867208792365 2.6106958288147912 a33.25986613714,33.25986613714 0 0,0 -0.11679326983942039,-0.5588980758212484 l 12.021723068587438 -2.4046813017081337" fill="#ff900d" stroke="none" /><path d="M 79.34024301695615 103.76489593502545 l -36.36615261872141 6.627124427412678 a57.96506234898769,57.96506234898769 0 0,0 -0.16998994970649636,-0.9804568568358412 l 36.474557385920136 -6.001874537656244" fill="#49ff2c" stroke="none" /><path d="M 79.22317932658666 103.0534771498775 l -12.131304408527289 1.7828839836427497 a33.261615796928375,33.261615796928375 0 0,0 -0.07817348227677046,-0.565624375678088 l 12.160122407359271 -1.574371299764576" fill="#ff900d" stroke="none" /><path d="M 79.0935383218832 101.97986365728391 l -17.854131046799 1.6908047730019253 a38.93401283083845,38.93401283083845 0 0,0 -0.05730044240194733,-0.6659179976210996 l 17.880525111898688 -1.3840657280051638" fill="#ffdb14" stroke="none" /><path d="M 79.06263194458094 101.62068470465958 l -19.40691140193882 1.5022176803958485 a40.46496514566612,40.46496514566612 0 0,0 -0.04766394996654497,-0.6930233717144819 l 19.42983931307043 -1.1688508845270231" fill="#ffee16" stroke="none" /><path d="M 79.01933749520258 100.90099992219065 l -17.48048643719062 0.7506873015169127 a38.496597883744826,38.496597883744826 0 0,0 -0.022686068969896,-0.6604801453860677 l 17.490797193157363 -0.45050089156672507" fill="#ffd513" stroke="none" /><line stroke="#e1ed5e" stroke-width="0.3" x1="15.003131293944662" x2="10.003315487706104" y1="100.72959589197737" y2="100.7725132973878" /><path d="M 14.003168132696942 100.73817937305945 a86.0,86.0 0 0,1 10.791469493833604,-42.45332614584628" fill="none" id="id70" stroke="none" /><text fill="#e1ed5e" style="font-size:6.75px; font-family:Arial;" text-anchor="middle"><textPath startOffset="22.145653131862435" xlink:href="#id70">October</textPath></text><path d="M 79.00696218219943 99.45929381324524 l -17.522280628105044 -0.45131179317153863 a38.52809175993556,38.52809175993556 0 0,0 0.02270462833063186,-0.6610204809239437 l 17.511951312777562 0.7520385386596209" fill="#ffd614" stroke="none" /><path d="M 79.03789590574601 98.7389718711861 l -17.492968140198958 -1.0523335244424803 a38.524592440358816,38.524592440358816 0 0,0 0.04537837212880034,-0.65979157156903 l 17.472325806905094 1.352468520165835" fill="#ffd513" stroke="none" /><path d="M 79.0935383218832 98.0201363427161 l -17.446534298998905 -1.6522049372085086 a38.524592440358816,38.524592440358816 0 0,0 0.06800068916109928,-0.6578449823812647 l 17.41560121735614 1.951454441872686" fill="#ffd513" stroke="none" /><path d="M 79.17382384314186 97.30363454192245 l -21.039024570381162 -2.7239229465818062 a42.2146249340406,42.2146249340406 0 0,0 0.0992153915266738,-0.717873148994994 l 20.98916466229928 3.084684403776867" fill="#faff18" stroke="none" /><path d="M 79.2786578344484 96.59031103205396 l -19.025399838729584 -3.1306223034492193 a40.2812508678868,40.2812508678868 0 0,0 0.11812991363523348,-0.6813419500450864 l 18.968855107602117 3.456757286414898" fill="#ffec16" stroke="none" /><path d="M 79.407916724674 95.88100663000787 l -15.247188941135517 -3.049864810657934 a36.54922653928403,36.54922653928403 0 0,0 0.12834398250502904,-0.6141724173312406 l 15.19258724780612 3.3111536792745837" fill="#ffbc11" stroke="none" /><path d="M 79.64726062577567 94.8264132398404 l -21.547665111917286 -5.477332209960397 a43.232926930874555,43.232926930874555 0 0,0 0.18901130799309301,-0.7177067229109403 l 21.45046432311947 5.846419437244122" fill="#eeff19" stroke="none" /><path d="M 79.94057633289273 93.78553927170692 l -18.594813318541014 -5.760720698446588 a40.466714805454494,40.466714805454494 0 0,0 0.21126570377412754,-0.6617868080462906 l 18.49318289898963 6.0790765401842695" fill="#ffee16" stroke="none" /><path d="M 80.05021161711548 93.44210830539832 l -17.10527999402321 -5.622845288067257 a39.0057488821618,39.0057488821618 0 0,0 0.21455869706557695,-0.6343046632923617 l 17.00623587538527 5.915651625833781" fill="#ffdc14" stroke="none" /><path d="M 80.5471966667186 92.08871423366112 l -18.084348564952972 -7.354747125348612 a40.52270391868248,40.52270391868248 0 0,0 0.2675929401438869,-0.642125642555935 l 17.955429780272606 7.664105277345811" fill="#ffef16" stroke="none" /><path d="M 80.9802524753101 91.09779779509293 l -17.43137912946835 -8.158765594521437 a40.24625767211931,40.24625767211931 0 0,0 0.2982453563462893,-0.6232180873162032 l 17.288754515162154 8.456796183902728" fill="#ffeb16" stroke="none" /><path d="M 81.1358732173502 90.77261029715801 l -16.106832388307428 -7.8786588447850106 a38.930513511261694,38.930513511261694 0 0,0 0.29880112125983493,-0.5978024014556105 l 15.969211353835847 8.15399310240439" fill="#ffdb14" stroke="none" /><path d="M 81.46374523516351 90.13048839642627 l -16.276300910929415 -8.666213468775256 a39.43966450967868,39.43966450967868 0 0,0 0.3233200788072189,-0.5948725287058718 l 16.125135482506845 8.944340830955747" fill="#ffe115" stroke="none" /><line stroke="#e1ed5e" stroke-width="0.3" x1="26.387840678322718" x2="22.05771365940052" y1="57.49999999999999" y2="54.99999999999999" /><path d="M 25.521815274538284 56.99999999999999 a86.0,86.0 0 0,1 29.574782752854787,-30.34633250058573" fill="none" id="id71" stroke="none" /><text fill="#e1ed5e" style="font-size:6.75px; font-family:Arial;" text-anchor="middle"><textPath startOffset="21.40746469413373" xlink:href="#id71">November</textPath></text><path d="M 81.81346652052679 89.5 l -16.699568318155432 -9.641500263837587 a40.28300052767517,40.28300052767517 0 0,0 0.3508961824460838,-0.5958984310262706 l 16.53159842557957 9.926749863157431" fill="#ffec16" stroke="none" /><path d="M 82.18462484594161 88.88188828441811 l -23.749215635704232 -14.821267041073416 a48.99455661399172,48.99455661399172 0 0,0 0.45140856721148287,-0.7096892446265671 l 23.49128937686686 15.226769960378654" fill="#aaff21" stroke="none" /><path d="M 82.576782715395 88.27688183743585 l -10.313991068996458 -6.939713490017354 a33.431332796400696,33.431332796400696 0 0,0 0.3244594636118701,-0.47339605399826334 l 10.193341868569275 7.115744279085652" fill="#ff920d" stroke="none" /><path d="M 82.98947788004972 87.6856937992154 l -15.615458054068286 -11.304387401359016 a40.27775154831005,40.27775154831005 0 0,0 0.41025379580420174,-0.5565880655312309 l 15.419102238680265 11.57078177615911" fill="#ffec16" stroke="none" /><path d="M 83.64595745247003 86.82634096563983 l -20.465830454958777 -16.48582431439079 a47.27989002138473,47.27989002138473 0 0,0 0.5145699643064401,-0.6276916885480123 l 20.179813671413704 16.834718284637294" fill="#beff1f" stroke="none" /><path d="M 84.58840730492382 85.73525988315684 l -14.139955460730878 -13.087731677174737 a40.26725358957981,40.26725358957981 0 0,0 0.47389603886318216,-0.5032611709126315 l 13.913203588131424 13.32853430803188" fill="#ffec16" stroke="none" /><path d="M 85.60350026404147 84.71141617570332 l -10.803672046139235 -11.47312532330715 a36.75918571388897,36.75918571388897 0 0,0 0.46311362717316507,-0.4286510594264799 l 10.605128647652117 11.656894128865996" fill="#ffbf11" stroke="none" /><path d="M 85.86807049272753 84.46653392183569 l -13.22844680319435 -14.540380319508097 a40.65742772238731,40.65742772238731 0 0,0 0.5202891784955065,-0.46524579167296226 l 12.976892597875452 14.76532164106446" fill="#fff016" stroke="none" /><line stroke="#e1ed5e" stroke-width="0.3" x1="56.869717070023135" x2="54.33264160355391" y1="26.7553504044142" y2="22.446841604673864" /><path d="M 56.362301976729285 25.89364864446614 a86.0,86.0 0 0,1 42.16139366436587,-11.88097634709845" fill="none" id="id72" stroke="none" /><text fill="#e1ed5e" style="font-size:6.75px; font-family:Arial;" text-anchor="middle"><textPath startOffset="22.145653131862474" xlink:href="#id72">December</textPath></text></svg>